<svg width="87" height="30" viewBox="0 0 87 30" fill="none" xmlns="http://www.w3.org/2000/svg">
<g clip-path="url(#clip0_72_6536)">
<path d="M80.8005 2.0775C82.333 2.0775 83.373 2.36628 83.9798 2.96046C84.5864 3.55431 84.8813 4.57473 84.8813 6.07988V24.0308C84.8813 25.5317 84.5876 26.5464 83.9833 27.133C83.3788 27.7201 82.3377 28.0055 80.8008 28.0055H6.03879C4.51151 28.0055 3.4821 27.7226 2.89188 27.1406C2.30165 26.5587 2.01477 25.5431 2.01477 24.0356V6.07988C2.01477 4.35417 2.2051 3.40365 2.65117 2.90146C3.15055 2.33935 4.22857 2.0775 6.04391 2.0775H80.8005ZM80.8005 0.914062H6.04391C1.58205 0.914062 0.839355 2.44323 0.839355 6.07988V24.0355C0.839355 27.6694 2.36756 29.1689 6.03879 29.1689H80.8007C84.4746 29.1689 86.0567 27.6673 86.0567 24.0308V6.07988C86.0567 2.44323 84.4745 0.914062 80.8005 0.914062Z" fill="#FC8019"/>
<path d="M23.1347 22.9944L20.4872 23.9493L7.14746 21.301V11.7047L20.4837 9.05664L23.1347 10.0331V22.9944ZM13.3523 16.4609V19.3272L17.0811 19.8699V16.4609H13.3523ZM17.0817 12.8746L13.3527 13.4174V16.0865H17.0817V12.8746ZM12.9756 19.3049V16.4613H10.0186V18.893L12.9756 19.3049ZM12.9783 13.4393L10.0182 13.8517V16.0865H12.9783V13.4393Z" fill="#FC8019"/>
<path d="M11.2653 10.2908C11.104 10.3198 10.9478 10.3479 10.7858 10.377C10.7858 10.3538 10.7858 10.336 10.7858 10.3182C10.7858 9.54119 10.7839 8.76418 10.7866 7.98718C10.7879 7.63175 10.8299 7.28097 10.9486 6.94283C11.1224 6.44778 11.4522 6.09044 11.9251 5.85851C12.2111 5.71823 12.5141 5.62748 12.8229 5.55452C13.0069 5.51105 13.191 5.46701 13.3769 5.43335C13.5434 5.40327 13.712 5.38466 13.8803 5.36562C14.043 5.34718 14.2065 5.35042 14.3693 5.36612C14.7422 5.40194 15.0801 5.51887 15.3471 5.79227C15.5328 5.98241 15.6485 6.21227 15.726 6.46258C15.781 6.64058 15.8152 6.82283 15.8376 7.00773C15.8655 7.23734 15.8737 7.46787 15.8742 7.69873C15.8753 8.23648 15.8746 8.77432 15.8746 9.31216V9.3779C15.7159 9.40673 15.5585 9.43524 15.3952 9.4649C15.3952 9.44114 15.3952 9.42169 15.3952 9.40233C15.3951 8.78039 15.3964 8.15837 15.3939 7.53651C15.3929 7.28587 15.3743 7.03632 15.3066 6.79291C15.2408 6.55665 15.1339 6.34441 14.9448 6.17928C14.795 6.04848 14.6185 5.97161 14.4254 5.93105C14.2135 5.88659 13.9994 5.88369 13.7845 5.9077C13.318 5.95972 12.8685 6.07898 12.4314 6.24543C12.2082 6.33044 11.9997 6.44272 11.8165 6.59712C11.5672 6.8072 11.413 7.07429 11.3353 7.38693C11.2873 7.57981 11.2659 7.77593 11.2657 7.97413C11.2648 8.72637 11.2653 9.4787 11.2653 10.2309V10.2908Z" fill="#FC8019"/>
<path d="M18.0435 8.9443C17.8848 8.97288 17.7299 9.00081 17.5686 9.02989C17.5677 9.00962 17.5663 8.99258 17.5663 8.97546C17.566 8.78083 17.5687 8.58613 17.5653 8.3915C17.5623 8.22837 17.5562 8.06507 17.5443 7.90236C17.5357 7.78593 17.511 7.67133 17.4653 7.56239C17.3875 7.37715 17.2436 7.27144 17.05 7.22657C16.8927 7.19009 16.7329 7.19067 16.5731 7.20139C16.4967 7.20654 16.4209 7.21734 16.3448 7.22541C16.337 7.22624 16.3289 7.22549 16.3245 7.22549C16.3005 7.06743 16.2771 6.91336 16.2529 6.7538C16.3207 6.74374 16.3888 6.72953 16.4575 6.72438C16.6217 6.71208 16.7862 6.69654 16.9507 6.69629C17.1307 6.69596 17.3088 6.72064 17.4751 6.79776C17.6803 6.893 17.8067 7.05621 17.8858 7.26064C17.9535 7.43549 17.9858 7.61798 18.0069 7.80313C18.049 8.17277 18.0459 8.54383 18.0456 8.91488C18.0455 8.92294 18.0444 8.93108 18.0435 8.9443Z" fill="#FC8019"/>
<path d="M14.8407 7.08398C14.8807 7.16767 14.8934 7.44249 14.8822 7.57404C14.7738 7.62673 14.6642 7.6775 14.5568 7.73268C14.4322 7.79675 14.3173 7.87495 14.2193 7.97601C14.0797 8.11977 14.0058 8.29529 13.9658 8.48717C13.925 8.68346 13.9185 8.88265 13.9184 9.08218C13.9184 9.29817 13.9193 9.51423 13.9198 9.7303C13.9198 9.7416 13.9184 9.7529 13.9174 9.76969C13.7609 9.79778 13.6052 9.8257 13.442 9.85504C13.442 9.82878 13.4419 9.81116 13.442 9.79354C13.4434 9.48839 13.4384 9.18315 13.4478 8.87825C13.4571 8.57983 13.4995 8.28556 13.6135 8.00518C13.7298 7.71889 13.925 7.50265 14.1951 7.35066C14.3954 7.23797 14.6105 7.16052 14.8272 7.08656C14.8315 7.08506 14.8363 7.08482 14.8407 7.08398Z" fill="#FC8019"/>
<path d="M28.0894 12.666V8.15332H29.4057C31.0865 8.15332 31.9268 8.88653 31.9268 10.353C31.9268 11.0496 31.6937 11.6092 31.2274 12.032C30.7612 12.4547 30.1357 12.666 29.3516 12.666H28.0894ZM28.8429 8.78897V12.0335H29.447C29.9789 12.0335 30.3928 11.8888 30.6884 11.5992C30.9842 11.3097 31.1321 10.9006 31.1321 10.3719C31.1321 9.31667 30.5798 8.78897 29.4756 8.78897H28.8429Z" fill="#FC8019"/>
<path d="M34.101 12.7417C33.5987 12.7417 33.1975 12.5912 32.8976 12.2901C32.5977 11.9891 32.4478 11.5899 32.4478 11.0927C32.4478 10.5515 32.604 10.1287 32.9167 9.82448C33.2293 9.52033 33.6506 9.36816 34.1805 9.36816C34.6892 9.36816 35.0855 9.51609 35.3696 9.81185C35.6536 10.1078 35.7957 10.5179 35.7957 11.0423C35.7957 11.5564 35.6424 11.9681 35.3362 12.2776C35.0299 12.5871 34.6182 12.7417 34.101 12.7417ZM34.136 9.95038C33.8477 9.95038 33.6199 10.05 33.4524 10.2494C33.2849 10.4487 33.2012 10.7235 33.2012 11.0738C33.2012 11.4117 33.286 11.6776 33.4556 11.8716C33.6252 12.0657 33.8519 12.1627 34.136 12.1627C34.4264 12.1627 34.6495 12.0673 34.8053 11.8764C34.961 11.6854 35.0389 11.4137 35.0389 11.0613C35.0389 10.7068 34.961 10.433 34.8053 10.2399C34.6495 10.0469 34.4264 9.95038 34.136 9.95038Z" fill="#FC8019"/>
<path d="M40.9043 9.44336L39.9441 12.6659H39.1715L38.5802 10.4819C38.5568 10.398 38.542 10.3036 38.5357 10.1987H38.523C38.5187 10.27 38.4996 10.3623 38.4657 10.4756L37.8235 12.6659H37.0668L36.1099 9.44336H36.8728L37.4642 11.7658C37.4833 11.8351 37.496 11.9275 37.5023 12.0428H37.5246C37.5309 11.9547 37.5479 11.8602 37.5755 11.7596L38.2336 9.44336H38.9267L39.5118 11.7753C39.5308 11.8488 39.5446 11.9411 39.5531 12.0523H39.5753C39.5796 11.9746 39.5955 11.8823 39.623 11.7753L40.2016 9.44336H40.9043Z" fill="#FC8019"/>
<path d="M44.3313 12.6662H43.5936V10.8505C43.5936 10.2483 43.3785 9.94722 42.9482 9.94722C42.7236 9.94722 42.5381 10.0307 42.3918 10.1974C42.2455 10.3642 42.1725 10.5746 42.1725 10.8284V12.6662H41.4316V9.4437H42.1725V9.97872H42.1852C42.4289 9.57176 42.7808 9.36816 43.2408 9.36816C43.5947 9.36816 43.865 9.48201 44.0515 9.70963C44.238 9.93733 44.3313 10.2662 44.3313 10.6962V12.6662Z" fill="#FC8019"/>
<path d="M45.9523 7.89502H45.2114V12.6659H45.9523V7.89502Z" fill="#FC8019"/>
<path d="M48.3363 12.7417C47.8341 12.7417 47.4328 12.5912 47.1329 12.2901C46.8331 11.9891 46.6831 11.5899 46.6831 11.0927C46.6831 10.5515 46.8394 10.1287 47.1521 9.82448C47.4648 9.52033 47.886 9.36816 48.4159 9.36816C48.9246 9.36816 49.3209 9.51609 49.605 9.81185C49.889 10.1078 50.031 10.5179 50.031 11.0423C50.031 11.5564 49.8779 11.9681 49.5716 12.2776C49.2651 12.5871 48.8535 12.7417 48.3363 12.7417ZM48.3713 9.95038C48.083 9.95038 47.8552 10.05 47.6877 10.2494C47.5202 10.4487 47.4365 10.7235 47.4365 11.0738C47.4365 11.4117 47.5213 11.6776 47.6909 11.8716C47.8605 12.0657 48.0872 12.1627 48.3713 12.1627C48.6617 12.1627 48.8848 12.0673 49.0406 11.8764C49.1964 11.6854 49.2743 11.4137 49.2743 11.0613C49.2743 10.7068 49.1964 10.433 49.0406 10.2399C48.8848 10.0469 48.6617 9.95038 48.3713 9.95038Z" fill="#FC8019"/>
<path d="M53.1845 12.6663H52.4691V12.1627H52.4564C52.2316 12.5487 51.902 12.7418 51.4676 12.7418C51.1475 12.7418 50.8969 12.6558 50.7157 12.4838C50.5344 12.3117 50.4438 12.084 50.4438 11.8008C50.4438 11.1924 50.7978 10.8378 51.5057 10.7371L52.4723 10.6018C52.4723 10.1423 52.2518 9.91265 51.811 9.91265C51.4231 9.91265 51.0734 10.0448 50.7618 10.3091V9.67032C51.1052 9.46888 51.5015 9.36816 51.9509 9.36816C52.7733 9.36816 53.1845 9.76897 53.1845 10.5703V12.6663ZM52.4722 11.0833L51.7886 11.1777C51.5767 11.205 51.4171 11.2559 51.3101 11.3304C51.2032 11.4048 51.1496 11.5354 51.1496 11.7221C51.1496 11.8586 51.1989 11.9703 51.2974 12.0573C51.396 12.1444 51.5279 12.1879 51.6933 12.1879C51.918 12.1879 52.1039 12.1098 52.2513 11.9535C52.3986 11.7972 52.4723 11.6005 52.4723 11.3634V11.0833H52.4722Z" fill="#FC8019"/>
<path d="M57.0247 12.6659H56.2872V12.1183H56.2745C56.037 12.5337 55.6714 12.7414 55.1777 12.7414C54.7771 12.7414 54.4564 12.5972 54.2158 12.3087C53.9753 12.0203 53.855 11.6274 53.855 11.1302C53.855 10.5973 53.988 10.1704 54.254 9.84934C54.52 9.52832 54.8745 9.36785 55.3175 9.36785C55.7563 9.36785 56.0752 9.54203 56.2745 9.89023H56.2872V7.89502H57.0247V12.6659ZM56.2966 11.1931V10.7714C56.2966 10.5427 56.2214 10.3487 56.071 10.1892C55.9204 10.0298 55.7286 9.95006 55.4955 9.95006C55.22 9.95006 55.0033 10.0519 54.8453 10.2553C54.6874 10.4588 54.6085 10.741 54.6085 11.1019C54.6085 11.4291 54.6842 11.6877 54.8359 11.8775C54.9874 12.0674 55.1913 12.1624 55.4479 12.1624C55.7001 12.1624 55.9046 12.0707 56.0616 11.887C56.2182 11.7034 56.2966 11.4722 56.2966 11.1931Z" fill="#FC8019"/>
<path d="M61.58 8.4899C61.4804 8.43322 61.367 8.40497 61.2397 8.40497C60.8815 8.40497 60.7025 8.60533 60.7025 9.00597V9.44342H61.4593V10.0162H60.7057V12.666H59.968V10.0162H59.4116V9.44342H59.968V8.92104C59.968 8.58115 60.0803 8.31322 60.3051 8.11702C60.5298 7.92081 60.8106 7.82275 61.1476 7.82275C61.33 7.82275 61.4741 7.8427 61.58 7.8825V8.4899Z" fill="#FC8019"/>
<path d="M63.8529 10.1389C63.7639 10.0697 63.6356 10.035 63.4682 10.035C63.2498 10.035 63.0676 10.1326 62.9213 10.3277C62.7751 10.5228 62.702 10.7882 62.702 11.1239V12.6659H61.9644V9.44339H62.702V10.1075H62.7147C62.7867 9.88085 62.8975 9.70409 63.0469 9.57711C63.1964 9.45021 63.3633 9.38672 63.5477 9.38672C63.6812 9.38672 63.783 9.40666 63.8529 9.44655V10.1389Z" fill="#FC8019"/>
<path d="M65.7406 12.7417C65.2384 12.7417 64.8372 12.5912 64.5373 12.2901C64.2374 11.9891 64.0874 11.5899 64.0874 11.0927C64.0874 10.5515 64.2437 10.1287 64.5565 9.82448C64.8691 9.52033 65.2903 9.36816 65.8202 9.36816C66.3289 9.36816 66.7253 9.51609 67.0093 9.81185C67.2933 10.1078 67.4353 10.5179 67.4353 11.0423C67.4353 11.5564 67.2822 11.9681 66.9759 12.2776C66.6696 12.5871 66.2579 12.7417 65.7406 12.7417ZM65.7756 9.95038C65.4873 9.95038 65.2596 10.05 65.092 10.2494C64.9245 10.4487 64.8408 10.7235 64.8408 11.0738C64.8408 11.4117 64.9256 11.6776 65.0952 11.8716C65.2648 12.0657 65.4915 12.1627 65.7756 12.1627C66.066 12.1627 66.2891 12.0673 66.4449 11.8764C66.6007 11.6854 66.6786 11.4137 66.6786 11.0613C66.6786 10.7068 66.6007 10.433 66.4449 10.2399C66.2892 10.0469 66.066 9.95038 65.7756 9.95038Z" fill="#FC8019"/>
<path d="M73.0338 12.6662H72.2963V10.9102C72.2963 10.5725 72.248 10.328 72.1515 10.177C72.0551 10.0259 71.8924 9.95038 71.6635 9.95038C71.4705 9.95038 71.3068 10.0459 71.1722 10.2368C71.0376 10.4277 70.9703 10.6564 70.9703 10.9228V12.6662H70.2295V10.8505C70.2295 10.2505 70.0154 9.95038 69.5873 9.95038C69.3881 9.95038 69.2244 10.0406 69.0961 10.221C68.9678 10.4015 68.9038 10.6354 68.9038 10.9228V12.6662H68.166V9.4437H68.9038V9.95354H68.9164C69.1517 9.56329 69.494 9.36816 69.9433 9.36816C70.168 9.36816 70.3646 9.42958 70.5331 9.55232C70.7016 9.67506 70.8166 9.83603 70.878 10.0354C71.1197 9.59063 71.4799 9.36816 71.959 9.36816C72.6754 9.36816 73.0337 9.80562 73.0337 10.6805V12.6662H73.0338Z" fill="#FC8019"/>
<path d="M35.6762 16.0571L34.0388 21.9709H32.918L31.7806 17.8346C31.7333 17.6588 31.7042 17.4662 31.6932 17.2573H31.6764C31.6624 17.4526 31.6292 17.6422 31.5765 17.8265L30.4347 21.9709H29.2889L27.6182 16.0571H28.7057L29.7889 20.3873C29.8333 20.5688 29.8611 20.7585 29.8723 20.9564H29.8931C29.9042 20.8162 29.9431 20.6265 30.0098 20.3873L31.2347 16.0571H32.2555L33.3888 20.4203C33.4276 20.5688 33.4568 20.7448 33.4763 20.9483H33.4929C33.5013 20.8108 33.5332 20.6293 33.5888 20.4038L34.6512 16.0571H35.6762Z" fill="#FC8019"/>
<path d="M36.7478 16.8614C36.5895 16.8614 36.454 16.8105 36.3415 16.7087C36.2291 16.607 36.1729 16.4778 36.1729 16.3211C36.1729 16.1643 36.2291 16.0338 36.3415 15.9292C36.454 15.8247 36.5895 15.7725 36.7478 15.7725C36.9116 15.7725 37.0506 15.8247 37.1644 15.9292C37.2783 16.0338 37.3353 16.1643 37.3353 16.3211C37.3353 16.4694 37.2783 16.5967 37.1644 16.7025C37.0506 16.8084 36.9116 16.8614 36.7478 16.8614ZM37.227 21.971H36.2603V17.7481H37.227V21.971Z" fill="#FC8019"/>
<path d="M42.1529 21.9709H41.1863V19.5914C41.1863 18.8023 40.9043 18.4078 40.3405 18.4078C40.046 18.4078 39.803 18.517 39.6114 18.7357C39.4196 18.9542 39.3239 19.2298 39.3239 19.5624V21.9708H38.353V17.7479H39.3239V18.449H39.3405C39.6599 17.9157 40.121 17.6489 40.7238 17.6489C41.1876 17.6489 41.5418 17.7982 41.7862 18.0964C42.0306 18.3948 42.1529 18.8257 42.1529 19.3893V21.9709Z" fill="#FC8019"/>
<path d="M47.0744 21.9708H46.1077V21.2532H46.0911C45.7799 21.7975 45.3008 22.0698 44.6536 22.0698C44.1286 22.0698 43.7085 21.8808 43.3933 21.5027C43.0781 21.1247 42.9204 20.6098 42.9204 19.9582C42.9204 19.26 43.0947 18.7005 43.4433 18.2798C43.7918 17.8591 44.2564 17.6488 44.837 17.6488C45.4119 17.6488 45.83 17.877 46.0912 18.3334H46.1078V15.7188H47.0745V21.9708H47.0744ZM46.1203 20.0407V19.4881C46.1203 19.1886 46.0216 18.9342 45.8245 18.7251C45.6272 18.5162 45.3758 18.4118 45.0704 18.4118C44.7092 18.4118 44.4252 18.5451 44.2184 18.8117C44.0114 19.0785 43.908 19.4483 43.908 19.9212C43.908 20.3501 44.0073 20.6889 44.2059 20.9377C44.4044 21.1866 44.6719 21.311 45.008 21.311C45.3386 21.311 45.6066 21.1906 45.8121 20.9501C46.0176 20.7095 46.1203 20.4065 46.1203 20.0407Z" fill="#FC8019"/>
<path d="M50.0918 22.0699C49.4335 22.0699 48.9079 21.8726 48.5148 21.478C48.1218 21.0836 47.9253 20.5604 47.9253 19.9089C47.9253 19.1996 48.1301 18.6456 48.5399 18.2469C48.9496 17.8483 49.5016 17.6489 50.196 17.6489C50.8627 17.6489 51.3821 17.8427 51.7544 18.2304C52.1265 18.6181 52.3126 19.1557 52.3126 19.8429C52.3126 20.5165 52.1119 21.056 51.7105 21.4616C51.3091 21.8671 50.7695 22.0699 50.0918 22.0699ZM50.1377 18.4119C49.7599 18.4119 49.4612 18.5425 49.2418 18.8037C49.0225 19.065 48.9127 19.4251 48.9127 19.8842C48.9127 20.3268 49.0238 20.6754 49.246 20.9296C49.4683 21.1839 49.7655 21.3112 50.1377 21.3112C50.5182 21.3112 50.8106 21.186 51.0147 20.9358C51.2188 20.6856 51.3209 20.3296 51.3209 19.8677C51.3209 19.4031 51.2188 19.0442 51.0147 18.7913C50.8105 18.5384 50.5182 18.4119 50.1377 18.4119Z" fill="#FC8019"/>
<path d="M58.8964 17.748L57.6381 21.971H56.6256L55.8507 19.1089C55.8201 18.999 55.8007 18.8752 55.7924 18.7378H55.7757C55.7702 18.8313 55.7452 18.9523 55.7007 19.1007L54.8591 21.971H53.8674L52.6133 17.748H53.6132L54.3882 20.7916C54.4132 20.8823 54.4298 21.0033 54.4382 21.1545H54.4674C54.4757 21.0389 54.4979 20.9152 54.5341 20.7833L55.3964 17.748H56.3047L57.0714 20.8039C57.0964 20.9001 57.1144 21.021 57.1256 21.1668H57.1547C57.1603 21.0651 57.1811 20.944 57.2173 20.8039L57.9755 17.748H58.8964Z" fill="#FC8019"/>
<path d="M61.5193 21.7357V20.7253C61.611 20.8078 61.72 20.8821 61.8464 20.948C61.9727 21.014 62.1068 21.0696 62.2484 21.115C62.3901 21.1604 62.5317 21.1955 62.6734 21.2203C62.8151 21.2451 62.9456 21.2573 63.0651 21.2573C63.4817 21.2573 63.7921 21.1887 63.9963 21.0512C64.2004 20.9137 64.3025 20.7145 64.3025 20.4532C64.3025 20.313 64.2684 20.1913 64.2004 20.0882C64.1323 19.9851 64.0372 19.891 63.915 19.8057C63.7927 19.7206 63.649 19.6387 63.4838 19.5603C63.3185 19.4821 63.1414 19.4003 62.9526 19.315C62.7497 19.2078 62.5609 19.0992 62.3859 18.9892C62.2109 18.8793 62.0588 18.7576 61.9296 18.6243C61.8005 18.4909 61.6991 18.3404 61.6255 18.1727C61.5518 18.0049 61.5151 17.8083 61.5151 17.5828C61.5151 17.3052 61.5783 17.0639 61.7047 16.8591C61.8311 16.6543 61.9977 16.4852 62.2047 16.3518C62.4116 16.2185 62.647 16.1195 62.9108 16.0549C63.1747 15.9903 63.4442 15.958 63.7192 15.958C64.3442 15.958 64.7997 16.0281 65.0858 16.1683V17.1374C64.7468 16.8956 64.3108 16.7745 63.7775 16.7745C63.6302 16.7745 63.4838 16.7883 63.3379 16.8158C63.1921 16.8433 63.0616 16.8887 62.9463 16.9518C62.831 17.0152 62.7373 17.0962 62.665 17.1952C62.5928 17.2941 62.5567 17.4137 62.5567 17.554C62.5567 17.686 62.5844 17.8001 62.64 17.8962C62.6956 17.9924 62.7769 18.0805 62.8837 18.1602C62.9906 18.24 63.1213 18.3176 63.2754 18.3932C63.4295 18.4689 63.6079 18.5507 63.8108 18.6386C64.0191 18.7458 64.2156 18.8585 64.4003 18.9767C64.585 19.095 64.7475 19.2256 64.8878 19.3685C65.028 19.5115 65.1392 19.6703 65.2211 19.8448C65.3031 20.0195 65.344 20.218 65.344 20.4407C65.344 20.7404 65.2829 20.9933 65.1607 21.1996C65.0384 21.4057 64.8739 21.5735 64.667 21.7027C64.46 21.8319 64.2218 21.9254 63.9524 21.9832C63.6829 22.0409 63.3982 22.0698 63.0982 22.0698C62.9983 22.0698 62.8753 22.0621 62.7295 22.0471C62.5837 22.0319 62.4343 22.01 62.2816 21.9811C62.1289 21.9522 61.9844 21.9172 61.8483 21.8759C61.7124 21.8346 61.6026 21.788 61.5193 21.7357Z" fill="#FC8019"/>
<path d="M68.1989 21.9255C68.01 22.019 67.7614 22.0658 67.4531 22.0658C66.6253 22.0658 66.2115 21.6727 66.2115 20.8863V18.4986H65.499V17.7481H66.2115V16.7706L67.1781 16.4985V17.7481H68.1989V18.4986H67.1781V20.61C67.1781 20.8603 67.2239 21.039 67.3155 21.1462C67.4073 21.2534 67.56 21.307 67.774 21.307C67.9378 21.307 68.0795 21.2603 68.199 21.1668V21.9255H68.1989Z" fill="#FC8019"/>
<path d="M70.7374 22.0699C70.0791 22.0699 69.5534 21.8726 69.1604 21.478C68.7673 21.0836 68.5708 20.5604 68.5708 19.9089C68.5708 19.1996 68.7757 18.6456 69.1855 18.2469C69.5952 17.8483 70.1472 17.6489 70.8416 17.6489C71.5082 17.6489 72.0277 17.8427 72.4 18.2304C72.7721 18.6181 72.9582 19.1557 72.9582 19.8429C72.9582 20.5165 72.7574 21.056 72.3561 21.4616C71.9546 21.8671 71.4151 22.0699 70.7374 22.0699ZM70.7833 18.4119C70.4054 18.4119 70.1068 18.5425 69.8874 18.8037C69.668 19.065 69.5583 19.4251 69.5583 19.8842C69.5583 20.3268 69.6694 20.6754 69.8916 20.9296C70.1139 21.1839 70.4111 21.3112 70.7833 21.3112C71.1638 21.3112 71.4562 21.186 71.6603 20.9358C71.8644 20.6856 71.9665 20.3296 71.9665 19.8677C71.9665 19.4031 71.8644 19.0442 71.6603 18.7913C71.4562 18.5384 71.1638 18.4119 70.7833 18.4119Z" fill="#FC8019"/>
<path d="M76.2797 18.6595C76.163 18.5687 75.9949 18.5233 75.7756 18.5233C75.4895 18.5233 75.2506 18.6511 75.0589 18.9069C74.8673 19.1625 74.7715 19.5104 74.7715 19.9503V21.971H73.8047V17.748H74.7715V18.6182H74.7881C74.8825 18.3214 75.0277 18.0898 75.2235 17.9234C75.4194 17.757 75.6381 17.6738 75.8797 17.6738C76.0547 17.6738 76.188 17.6999 76.2797 17.7522V18.6595Z" fill="#FC8019"/>
<path d="M80.3638 20.1194H77.4556C77.4667 20.5098 77.5883 20.8108 77.8202 21.0225C78.0521 21.2343 78.3708 21.34 78.7764 21.34C79.232 21.34 79.6499 21.2053 80.0305 20.9359V21.707C79.6417 21.949 79.1278 22.0699 78.489 22.0699C77.8612 22.0699 77.3689 21.8782 77.012 21.4946C76.6551 21.1111 76.4766 20.5716 76.4766 19.8759C76.4766 19.2189 76.6731 18.6834 77.0661 18.2696C77.4591 17.8559 77.9473 17.6489 78.5306 17.6489C79.1139 17.6489 79.5651 17.8345 79.8847 18.2056C80.2041 18.5768 80.3638 19.0923 80.3638 19.7522V20.1194ZM79.4305 19.443C79.4278 19.0993 79.3458 18.8319 79.1847 18.6409C79.0236 18.45 78.8014 18.3543 78.5182 18.3543C78.2403 18.3543 78.0049 18.4547 77.8119 18.6553C77.6188 18.8561 77.5001 19.1187 77.4557 19.443H79.4305Z" fill="#FC8019"/>
</g>
<defs>
<clipPath id="clip0_72_6536">
<rect width="86.8966" height="30" fill="white"/>
</clipPath>
</defs>
</svg>
