<svg width="86" height="30" viewBox="0 0 86 30" fill="none" xmlns="http://www.w3.org/2000/svg">
<path d="M79.9672 2.0775C81.4839 2.0775 82.5132 2.36628 83.1137 2.96046C83.714 3.55431 84.0059 4.57473 84.0059 6.07988V24.0308C84.0059 25.5317 83.7152 26.5464 83.1172 27.133C82.5189 27.7201 81.4885 28.0055 79.9675 28.0055H5.97685C4.46532 28.0055 3.44653 27.7226 2.8624 27.1406C2.27826 26.5587 1.99434 25.5431 1.99434 24.0356V6.07988C1.99434 4.35417 2.18271 3.40365 2.62418 2.90146C3.11841 2.33935 4.1853 2.0775 5.98191 2.0775H79.9672ZM79.9672 0.914062H5.98191C1.56608 0.914062 0.831055 2.44323 0.831055 6.07988V24.0355C0.831055 27.6694 2.34349 29.1689 5.97685 29.1689H79.9674C83.6034 29.1689 85.1692 27.6673 85.1692 24.0308V6.07988C85.1692 2.44323 83.6033 0.914062 79.9672 0.914062Z" fill="#FC8019"/>
<path d="M42.267 17.1201C40.7094 17.1201 39.4763 18.2885 39.4763 19.9112C39.4763 21.469 40.7094 22.7024 42.267 22.7024C43.8247 22.7024 45.0578 21.5339 45.0578 19.9112C45.0578 18.2235 43.8247 17.1201 42.267 17.1201ZM42.267 21.5339C41.4233 21.5339 40.7094 20.8199 40.7094 19.8463C40.7094 18.8726 41.4233 18.1586 42.267 18.1586C43.1108 18.1586 43.8247 18.8078 43.8247 19.8463C43.8247 20.8199 43.1108 21.5339 42.267 21.5339ZM36.2313 17.1201C34.6736 17.1201 33.4405 18.2885 33.4405 19.9112C33.4405 21.469 34.6736 22.7024 36.2313 22.7024C37.7889 22.7024 39.022 21.5339 39.022 19.9112C39.022 18.2235 37.7889 17.1201 36.2313 17.1201ZM36.2313 21.5339C35.3875 21.5339 34.6736 20.8199 34.6736 19.8463C34.6736 18.8726 35.3875 18.1586 36.2313 18.1586C37.075 18.1586 37.7889 18.8078 37.7889 19.8463C37.7889 20.8199 37.075 21.5339 36.2313 21.5339ZM29.0271 17.9639V19.1323H31.8179C31.753 19.7815 31.4934 20.3008 31.1689 20.6253C30.7795 21.0148 30.1305 21.469 29.0271 21.469C27.2748 21.469 25.9768 20.106 25.9768 18.3534C25.9768 16.6008 27.3397 15.2378 29.0271 15.2378C29.9358 15.2378 30.6496 15.6273 31.1689 16.0815L32.0126 15.2378C31.2987 14.5886 30.3901 14.0693 29.092 14.0693C26.7556 14.0693 24.7437 16.0167 24.7437 18.3534C24.7437 20.6901 26.7556 22.6375 29.092 22.6375C30.3901 22.6375 31.2987 22.248 32.0775 21.4041C32.8563 20.6253 33.116 19.5219 33.116 18.678C33.116 18.4183 33.116 18.1586 33.0511 17.9639H29.0271ZM58.4925 18.8727C58.2329 18.2235 57.5838 17.1201 56.156 17.1201C54.7281 17.1201 53.56 18.2235 53.56 19.9112C53.56 21.469 54.7281 22.7024 56.2858 22.7024C57.519 22.7024 58.2979 21.9234 58.5574 21.469L57.6487 20.8199C57.3242 21.2743 56.9348 21.5988 56.2858 21.5988C55.6368 21.5988 55.2474 21.3392 54.9229 20.755L58.6222 19.1972L58.4925 18.8727ZM54.7282 19.7814C54.7282 18.7429 55.5719 18.1586 56.1561 18.1586C56.6103 18.1586 57.0647 18.4183 57.1945 18.7429L54.7282 19.7814ZM51.6778 22.4427H52.911V14.3289H51.6778V22.4427ZM49.7308 17.7042C49.4062 17.3797 48.887 17.0551 48.238 17.0551C46.8751 17.0551 45.577 18.2885 45.577 19.8463C45.577 21.404 46.8102 22.5726 48.238 22.5726C48.887 22.5726 49.4062 22.248 49.6659 21.9234H49.7308V22.3129C49.7308 23.3515 49.1466 23.9356 48.238 23.9356C47.5241 23.9356 47.0049 23.4164 46.8751 22.9619L45.8367 23.4164C46.1611 24.1304 46.94 25.039 48.303 25.039C49.7308 25.039 50.899 24.1953 50.899 22.183V17.2499H49.7308V17.7042ZM48.3029 21.5339C47.4592 21.5339 46.7453 20.8199 46.7453 19.8463C46.7453 18.8726 47.4592 18.1586 48.3029 18.1586C49.1465 18.1586 49.7957 18.8726 49.7957 19.8463C49.7957 20.8199 49.1466 21.5339 48.3029 21.5339ZM64.1389 14.3289H61.2183V22.4427H62.4514V19.392H64.1389C65.5017 19.392 66.7997 18.4183 66.7997 16.8604C66.7997 15.3026 65.5018 14.3289 64.1389 14.3289ZM64.2038 18.2235H62.4514V15.4325H64.2038C65.1125 15.4325 65.6317 16.2114 65.6317 16.7954C65.5667 17.5095 65.0475 18.2235 64.2038 18.2235ZM71.6675 17.0552C70.7588 17.0552 69.8502 17.4447 69.5258 18.2885L70.629 18.7429C70.8887 18.2885 71.2781 18.1587 71.7324 18.1587C72.3813 18.1587 72.9655 18.5483 73.0304 19.1973V19.2622C72.8357 19.1323 72.3164 18.9376 71.7973 18.9376C70.6289 18.9376 69.4608 19.5868 69.4608 20.7551C69.4608 21.8586 70.4343 22.5726 71.4727 22.5726C72.3164 22.5726 72.7059 22.183 73.0304 21.7937H73.0953V22.4427H74.2635V19.3271C74.1338 17.899 73.0304 17.0552 71.6675 17.0552ZM71.5376 21.5339C71.1482 21.5339 70.564 21.3392 70.564 20.8199C70.564 20.1708 71.278 19.9761 71.8621 19.9761C72.3813 19.9761 72.6409 20.106 72.9654 20.2358C72.8357 21.0147 72.1866 21.5339 71.5376 21.5339ZM78.3523 17.2499L76.9893 20.755H76.9245L75.4967 17.2499H74.1986L76.3404 22.183L75.1072 24.9093H76.3404L79.6504 17.2499H78.3523ZM67.4488 22.4427H68.682V14.3289H67.4488V22.4427Z" fill="#FC8019"/>
<path d="M27.0071 9.50939H29.0292C29.0407 9.55552 29.0502 9.6112 29.058 9.67651C29.0656 9.74183 29.0695 9.80715 29.0695 9.87239C29.0695 10.1375 29.0292 10.3872 28.9485 10.6214C28.8679 10.8557 28.7411 11.0651 28.5683 11.2494C28.384 11.4454 28.163 11.5972 27.9058 11.7046C27.6485 11.8121 27.3546 11.8659 27.0244 11.8659C26.7248 11.8659 26.4425 11.8121 26.1775 11.7046C25.9125 11.5972 25.682 11.4473 25.4862 11.2552C25.2902 11.0632 25.1348 10.8355 25.0195 10.5724C24.9043 10.3093 24.8467 10.0222 24.8467 9.71108C24.8467 9.39995 24.9043 9.11283 25.0195 8.84973C25.1348 8.58662 25.2902 8.35901 25.4862 8.16687C25.682 7.97491 25.9125 7.82507 26.1775 7.71754C26.4425 7.61 26.7248 7.55615 27.0244 7.55615C27.3585 7.55615 27.6571 7.61374 27.9202 7.72901C28.1832 7.84427 28.4089 8.00366 28.5971 8.20726L28.0613 8.73155C27.9268 8.58953 27.7771 8.48092 27.612 8.40604C27.4468 8.33108 27.249 8.29369 27.0186 8.29369C26.8304 8.29369 26.6518 8.32734 26.4828 8.39449C26.3137 8.46172 26.1659 8.55679 26.0392 8.6797C25.9125 8.80269 25.8116 8.95153 25.7368 9.12621C25.6619 9.30106 25.6244 9.49602 25.6244 9.71108C25.6244 9.92624 25.6619 10.1211 25.7368 10.2959C25.8116 10.4707 25.9133 10.6195 26.0421 10.7424C26.1707 10.8654 26.3196 10.9604 26.4886 11.0277C26.6575 11.0949 26.838 11.1285 27.0301 11.1285C27.249 11.1285 27.4343 11.0968 27.5861 11.0334C27.7377 10.97 27.8674 10.8885 27.9749 10.7885C28.0517 10.7194 28.1179 10.632 28.1737 10.5263C28.2293 10.4208 28.2725 10.3026 28.3033 10.172H27.0071V9.50939Z" fill="#FC8019"/>
<path d="M30.4926 8.38548V9.34191H32.1459V10.0794H30.4926V11.036H32.3303V11.7734H29.7148V7.64795H32.3303V8.38548H30.4926Z" fill="#FC8019"/>
<path d="M33.9203 11.7734V8.38548H32.7681V7.64795H35.8503V8.38548H34.698V11.7734H33.9203Z" fill="#FC8019"/>
<path d="M38.4481 7.64795H37.6704V11.7734H38.4481V7.64795Z" fill="#FC8019"/>
<path d="M40.1532 11.7734V8.38548H39.001V7.64795H42.0832V8.38548H40.9309V11.7734H40.1532Z" fill="#FC8019"/>
<path d="M45.7416 11.866C45.4343 11.866 45.1491 11.8103 44.8861 11.6989C44.6229 11.5875 44.3955 11.4349 44.2034 11.2408C44.0113 11.0469 43.8606 10.8183 43.7512 10.5552C43.6418 10.2921 43.5869 10.0107 43.5869 9.71108C43.5869 9.41142 43.6417 9.13011 43.7512 8.86701C43.8607 8.60391 44.0113 8.37538 44.2034 8.18133C44.3955 7.98737 44.6229 7.83471 44.8861 7.72327C45.1491 7.61191 45.4343 7.55615 45.7416 7.55615C46.0488 7.55615 46.334 7.61191 46.5972 7.72327C46.8602 7.83471 47.0877 7.98737 47.2799 8.18133C47.4719 8.37538 47.6226 8.60391 47.732 8.86701C47.8415 9.13011 47.8963 9.41142 47.8963 9.71108C47.8963 10.0107 47.8416 10.2921 47.732 10.5552C47.6226 10.8183 47.4718 11.0469 47.2799 11.2408C47.0877 11.4349 46.8602 11.5875 46.5972 11.6989C46.334 11.8103 46.0488 11.866 45.7416 11.866ZM45.7416 11.1285C45.9337 11.1285 46.1132 11.0939 46.2802 11.0248C46.4473 10.9556 46.5933 10.8596 46.7181 10.7367C46.8429 10.6137 46.9408 10.465 47.0119 10.2901C47.0829 10.1154 47.1185 9.92233 47.1185 9.71108C47.1185 9.49984 47.0829 9.30687 47.0119 9.13203C46.9408 8.95726 46.8429 8.80851 46.7181 8.68552C46.5933 8.56261 46.4473 8.46654 46.2802 8.3974C46.1132 8.32826 45.9336 8.29369 45.7416 8.29369C45.5495 8.29369 45.37 8.32826 45.203 8.3974C45.0359 8.46654 44.8899 8.56261 44.7651 8.68552C44.6402 8.80851 44.5423 8.95726 44.4713 9.13203C44.4002 9.30687 44.3647 9.49984 44.3647 9.71108C44.3647 9.92233 44.4002 10.1154 44.4713 10.2901C44.5423 10.465 44.6402 10.6137 44.7651 10.7367C44.8899 10.8596 45.0359 10.9556 45.203 11.0248C45.3701 11.0939 45.5495 11.1285 45.7416 11.1285Z" fill="#FC8019"/>
<path d="M48.5239 7.64795H49.4284L51.0876 10.4136H51.1337L51.0876 9.61848V7.64795H51.8596V11.7734H51.0414L49.2901 8.85219H49.244L49.2901 9.64731V11.7734H48.5239V7.64795Z" fill="#FC8019"/>
<path fill-rule="evenodd" clip-rule="evenodd" d="M18.8399 12.5537L8.74463 6.74463L16.7189 14.6788L18.8399 12.5537Z" fill="#FC8019"/>
<path fill-rule="evenodd" clip-rule="evenodd" d="M7.80797 6.80371C7.7695 6.87368 7.72754 6.95454 7.72754 7.04363V23.4818C7.72754 23.5333 7.75438 23.5819 7.76817 23.6276L16.2131 15.1666L7.80797 6.80371Z" fill="#FC8019"/>
<path fill-rule="evenodd" clip-rule="evenodd" d="M16.7208 15.6528L8.44141 23.9481C8.46559 23.9388 8.4896 23.9279 8.51311 23.9145L18.9743 17.8948L16.7208 15.6528Z" fill="#FC8019"/>
<path fill-rule="evenodd" clip-rule="evenodd" d="M22.7965 14.8304L19.4586 12.9097L17.2075 15.165L19.5933 17.5386L22.7965 15.6954C23.1301 15.5036 23.1301 15.0223 22.7965 14.8304Z" fill="#FC8019"/>
</svg>
