<svg width="86" height="30" viewBox="0 0 86 30" fill="none" xmlns="http://www.w3.org/2000/svg">
<path d="M79.9672 2.0775C81.4839 2.0775 82.5132 2.36628 83.1137 2.96046C83.714 3.55431 84.0059 4.57473 84.0059 6.07988V24.0308C84.0059 25.5317 83.7152 26.5464 83.1172 27.133C82.5189 27.7201 81.4885 28.0055 79.9675 28.0055H5.97685C4.46532 28.0055 3.44653 27.7226 2.8624 27.1406C2.27826 26.5587 1.99434 25.5431 1.99434 24.0356V6.07988C1.99434 4.35417 2.18271 3.40365 2.62418 2.90146C3.11841 2.33935 4.1853 2.0775 5.98191 2.0775H79.9672ZM79.9672 0.914062H5.98191C1.56608 0.914062 0.831055 2.44323 0.831055 6.07988V24.0355C0.831055 27.6694 2.34349 29.1689 5.97685 29.1689H79.9674C83.6034 29.1689 85.1692 27.6673 85.1692 24.0308V6.07988C85.1692 2.44323 83.6033 0.914062 79.9672 0.914062Z" fill="#FC8019"/>
<path fill-rule="evenodd" clip-rule="evenodd" d="M22.8192 18.5016C22.3945 19.4432 22.1911 19.8635 21.6443 20.6957C20.881 21.8577 19.8056 23.3046 18.4731 23.3168C17.2886 23.3277 16.9846 22.5459 15.3775 22.5547C13.7704 22.5634 13.4348 23.3305 12.2503 23.3197C10.9176 23.3075 9.89845 22.0006 9.13526 20.839C7.00129 17.5901 6.77836 13.7773 8.0942 11.7504C9.02965 10.3098 10.5048 9.46658 11.8923 9.46658C13.3048 9.46658 14.1928 10.2414 15.3607 10.2414C16.4934 10.2414 17.1841 9.46533 18.8169 9.46533C20.0513 9.46533 21.3593 10.1374 22.2913 11.3002C19.238 12.9737 19.7338 17.3355 22.8192 18.5016Z" fill="#FC8019"/>
<path fill-rule="evenodd" clip-rule="evenodd" d="M17.5783 8.16772C18.1712 7.40617 18.6221 6.33015 18.4586 5.23096C17.4897 5.29769 16.3556 5.91439 15.6936 6.71841C15.0927 7.44846 14.5968 8.53104 14.7899 9.58304C15.848 9.61578 16.9426 8.98378 17.5783 8.16772Z" fill="#FC8019"/>
<path fill-rule="evenodd" clip-rule="evenodd" d="M77.6386 20.0278H73.3481C73.365 20.6095 73.5725 21.1196 73.9711 21.4542C74.332 21.755 74.7992 21.8922 75.3739 21.8922C76.0104 21.8922 76.5871 21.7845 77.1085 21.5784L77.3334 22.5695C76.7267 22.8366 76.0057 22.9642 75.1741 22.9642C74.1787 22.9642 73.3951 22.6716 72.8257 22.0848C72.2568 21.4981 71.97 20.7096 71.97 19.7217C71.97 18.7488 72.236 17.9426 72.7642 17.2953C73.323 16.6078 74.0731 16.2642 75.016 16.2642C75.9456 16.2642 76.6466 16.6077 77.1216 17.2952C77.4998 17.8441 77.6909 18.5472 77.6909 19.3507C77.6909 19.6048 77.6724 19.8615 77.6386 20.0278ZM71.5421 17.6667C71.459 17.641 71.2385 17.6304 71.0807 17.6304C70.5777 17.6304 70.1849 17.8199 69.9106 18.1988C69.6717 18.535 69.5479 18.9524 69.5479 19.4687V22.7701H68.1353V18.4333C68.1353 17.6961 68.1047 17.0361 68.0795 16.3712H69.3237L69.3769 17.7009H69.416C69.5655 17.2854 69.8025 16.9075 70.131 16.6535C70.4487 16.4214 70.8056 16.2951 71.1761 16.2951C71.3071 16.2951 71.459 16.287 71.5421 16.3043V17.6667ZM66.3719 22.0129C65.7789 22.6645 64.9934 22.9908 64.0158 22.9908C63.0696 22.9908 62.3151 22.6776 61.7549 22.0506C61.1953 21.4256 60.9161 20.6324 60.9161 19.6802C60.9161 18.6837 61.2045 17.866 61.7825 17.2314C62.3616 16.5932 63.1383 16.2797 64.1178 16.2797C65.0659 16.2797 65.8244 16.5898 66.3981 17.2197C66.9436 17.8254 67.2174 18.6136 67.2174 19.5748C67.2175 20.5663 66.937 21.3753 66.3719 22.0129ZM60.4909 17.5347H58.9952V20.609C58.9952 21.4029 59.2416 21.7965 59.7977 21.7965C60.0536 21.7965 60.2467 21.7778 60.416 21.7342L60.4482 22.8174C60.1651 22.9233 59.7909 22.9771 59.3319 22.9771C58.7697 22.9771 58.3103 22.8072 57.9935 22.4604C57.6727 22.1178 57.4996 21.5387 57.4996 20.7266V17.5347H56.5856V16.3712H57.4996V15.2314L58.9952 14.8075V16.3712H60.4909V17.5347ZM55.4648 22.1952C54.881 22.7169 54.0715 22.9761 53.0332 22.9761C52.0709 22.9761 51.3015 22.7898 50.7204 22.4207L51.0526 21.2292C51.6788 21.5982 52.3668 21.7855 53.1154 21.7855C53.6561 21.7855 54.0743 21.6625 54.3748 21.4215C54.6733 21.1796 54.8234 20.8555 54.8234 20.4443C54.8234 20.0873 54.6997 19.7824 54.4541 19.5338C54.2047 19.2871 53.7975 19.0593 53.2231 18.8455C51.6624 18.2645 50.8806 17.4126 50.8806 16.2916C50.8806 15.5592 51.1532 14.9569 51.7059 14.4896C52.2576 14.0229 52.9879 13.7881 53.8981 13.7881C54.7098 13.7881 55.3855 13.9304 55.9248 14.211L55.5639 15.3768C55.0609 15.1039 54.4891 14.9656 53.8515 14.9656C53.3474 14.9656 52.9521 15.0939 52.6678 15.3353C52.43 15.5591 52.3106 15.8283 52.3106 16.145C52.3106 16.4957 52.4476 16.7884 52.7206 17.0213C52.9597 17.2322 53.3924 17.4604 54.0168 17.7073C54.7874 18.0138 55.3503 18.3781 55.7135 18.7943C56.0745 19.2089 56.2563 19.7244 56.2563 20.3414C56.2561 21.1015 55.9906 21.7211 55.4648 22.1952ZM47.203 22.1454C46.6701 22.708 46.0053 22.9907 45.2144 22.9907C44.3628 22.9907 43.7894 22.6868 43.374 22.0752V25.5125H41.9614V18.5239C41.9614 17.836 41.9351 17.2023 41.9007 16.3712H43.1551L43.2379 17.4516H43.2624C43.7424 16.7037 44.4635 16.2911 45.4345 16.2911C46.1941 16.2911 46.8274 16.583 47.3347 17.1847C47.8435 17.7836 48.0967 18.5727 48.0967 19.5519C48.0967 20.6495 47.7996 21.5083 47.203 22.1454ZM40.1335 22.1454C39.6019 22.708 38.9382 22.9907 38.1494 22.9907C37.2953 22.9907 36.7266 22.6868 36.3112 22.0752V25.5125H34.8986V18.5239C34.8986 17.836 34.8659 17.2023 34.8295 16.3712H36.0874L36.1664 17.4516H36.1913C36.6705 16.7037 37.3931 16.2911 38.3654 16.2911C39.1244 16.2911 39.7561 16.583 40.2667 17.1847C40.7724 17.7836 41.0271 18.5727 41.0271 19.5519C41.0271 20.6495 40.73 21.5083 40.1335 22.1454ZM32.4866 22.7701L31.6534 20.194H28.753L27.9574 22.7701H26.4761L29.3466 13.8782H31.1227L34.0105 22.7701H32.4866ZM74.9104 17.2555C74.4436 17.2555 74.0644 17.4946 73.7718 17.8807C73.5339 18.1889 73.3912 18.5319 73.3481 19.0305H76.3267C76.3346 18.5319 76.2441 18.2035 76.0501 17.8929C75.802 17.4971 75.4213 17.2555 74.9104 17.2555ZM30.1956 15.1247H30.1707C30.0808 15.5402 29.9415 16.0933 29.7455 16.8358L29.004 19.1967H31.3997L30.6482 16.8358C30.5668 16.5964 30.4151 15.9557 30.1956 15.1247ZM44.9716 17.4146C44.6173 17.4146 44.3008 17.5307 44.0127 17.7644C43.7258 18.0015 43.5324 18.3081 43.4436 18.6879C43.3996 18.8659 43.374 19.0102 43.374 19.1258V20.1968C43.374 20.6656 43.5202 21.0619 43.8083 21.3841C44.0945 21.7033 44.4706 21.8654 44.9275 21.8654C45.4689 21.8654 45.8886 21.6592 46.1891 21.2433C46.4898 20.8281 46.6413 20.2811 46.6413 19.5994C46.6413 18.9743 46.4993 18.4573 46.2178 18.0523C45.9065 17.6304 45.4915 17.4146 44.9716 17.4146ZM64.0656 17.3256C63.4934 17.3256 63.0561 17.5796 62.7577 18.091C62.4989 18.5117 62.3721 19.0256 62.3721 19.6332C62.3721 20.2255 62.4988 20.7303 62.7577 21.1521C63.0634 21.6625 63.4963 21.9165 64.055 21.9165C64.5987 21.9165 65.0287 21.6591 65.3359 21.1362C65.6023 20.7091 65.7354 20.1966 65.7354 19.6085C65.7354 19.0196 65.6077 18.5117 65.3532 18.0909C65.049 17.5796 64.6224 17.3256 64.0656 17.3256ZM37.9001 17.4146C37.5477 17.4146 37.2293 17.5307 36.9416 17.7644C36.654 18.0015 36.4663 18.3081 36.3775 18.6879C36.334 18.8659 36.3112 19.0102 36.3112 19.1258V20.1968C36.3112 20.6656 36.453 21.0619 36.7417 21.3841C37.028 21.7033 37.4021 21.8654 37.8602 21.8654C38.3975 21.8654 38.82 21.6592 39.1196 21.2433C39.4196 20.8281 39.5684 20.2811 39.5684 19.5994C39.5684 18.9743 39.429 18.4573 39.1462 18.0523C38.8356 17.6304 38.4215 17.4146 37.9001 17.4146Z" fill="#FC8019"/>
<path d="M28.3595 10.3744L27.9631 11.6799H27.0952L28.5713 7.07324H29.6442L31.1409 11.6799H30.2388L29.822 10.3744H28.3595ZM29.6785 9.73884L29.3163 8.60424C29.2274 8.32402 29.1522 8.00964 29.0838 7.74305H29.0702C29.0018 8.00964 28.9335 8.33092 28.8515 8.60424L28.4961 9.73884H29.6785Z" fill="#FC8019"/>
<path d="M32.0983 8.35156L32.6382 10.0397C32.7339 10.3336 32.8022 10.6002 32.8637 10.8736H32.8842C32.9457 10.6002 33.0209 10.3405 33.1097 10.0397L33.6359 8.35156H34.5243L33.2532 11.6801H32.4264L31.1895 8.35156H32.0983Z" fill="#FC8019"/>
<path d="M36.8685 11.6801L36.8139 11.311H36.7933C36.5884 11.5707 36.2398 11.7553 35.8093 11.7553C35.1396 11.7553 34.7637 11.2701 34.7637 10.7642C34.7637 9.92363 35.5086 9.4998 36.7387 9.50662V9.45193C36.7387 9.23321 36.6499 8.87097 36.0621 8.87097C35.7341 8.87097 35.3924 8.97351 35.1669 9.11703L35.0029 8.5703C35.2489 8.41988 35.6794 8.27637 36.2056 8.27637C37.2717 8.27637 37.5792 8.95299 37.5792 9.67756V10.8805C37.5792 11.1811 37.5929 11.4751 37.6271 11.6801H36.8685ZM36.7592 10.0534C36.1647 10.0397 35.5974 10.1696 35.5974 10.6754C35.5974 11.0035 35.8093 11.1538 36.0758 11.1538C36.4106 11.1538 36.6567 10.9351 36.7319 10.6959C36.7523 10.6344 36.7592 10.566 36.7592 10.5113V10.0534Z" fill="#FC8019"/>
<path d="M39.3151 6.82715H38.4678V11.6798H39.3151V6.82715Z" fill="#FC8019"/>
<path d="M41.1193 7.42184C41.1193 7.67473 40.9348 7.87293 40.6409 7.87293C40.3607 7.87293 40.1763 7.67473 40.1763 7.42184C40.1763 7.16215 40.3675 6.96387 40.6477 6.96387C40.9348 6.96387 41.1125 7.16215 41.1193 7.42184ZM40.224 8.35135H41.0714V11.6799H40.224V8.35135Z" fill="#FC8019"/>
<path d="M41.9463 11.6798C41.9599 11.4543 41.9736 11.0852 41.9736 10.7435V6.82715H42.8142V8.80923H42.8279C43.0329 8.48804 43.3951 8.27613 43.894 8.27613C44.7072 8.27613 45.2879 8.95275 45.2811 9.96435C45.2811 11.1604 44.5226 11.755 43.7708 11.755C43.3403 11.755 42.9576 11.591 42.7185 11.1809H42.7048L42.6637 11.6798H41.9463ZM42.8142 10.3061C42.8142 10.3744 42.821 10.4428 42.8347 10.5043C42.9235 10.8392 43.2173 11.0921 43.5795 11.0921C44.1058 11.0921 44.427 10.6683 44.427 9.99851C44.427 9.41072 44.1468 8.9323 43.5864 8.9323C43.2447 8.9323 42.9372 9.17837 42.8415 9.54743C42.8279 9.60892 42.8142 9.68413 42.8142 9.76615V10.3061Z" fill="#FC8019"/>
<path d="M46.8191 6.82715H45.9717V11.6798H46.8191V6.82715Z" fill="#FC8019"/>
<path d="M48.3225 10.2516C48.343 10.8531 48.8146 11.1128 49.3476 11.1128C49.7372 11.1128 50.0174 11.0581 50.2703 10.9624L50.3933 11.5434C50.1062 11.6596 49.7098 11.7484 49.2316 11.7484C48.1518 11.7484 47.5161 11.0855 47.5161 10.0671C47.5161 9.14446 48.0765 8.27637 49.1426 8.27637C50.2224 8.27637 50.5777 9.1649 50.5777 9.8962C50.5777 10.0534 50.5641 10.1764 50.5505 10.2516H48.3225ZM49.785 9.66385C49.7918 9.35628 49.6552 8.85052 49.0947 8.85052C48.5753 8.85052 48.3567 9.32213 48.3224 9.66385H49.785Z" fill="#FC8019"/>
<path d="M55.8335 9.98512C55.8335 11.2086 54.9724 11.7553 54.1249 11.7553C53.1818 11.7553 52.4575 11.106 52.4575 10.0398C52.4575 8.94617 53.175 8.27637 54.1797 8.27637C55.1705 8.27637 55.8335 8.9736 55.8335 9.98512ZM53.3255 10.0193C53.3255 10.6617 53.6398 11.147 54.1523 11.147C54.6306 11.147 54.9656 10.6755 54.9656 10.0056C54.9656 9.48617 54.7332 8.89157 54.1592 8.89157C53.5646 8.89157 53.3255 9.46565 53.3255 10.0193Z" fill="#FC8019"/>
<path d="M56.5239 9.34257C56.5239 8.95988 56.5169 8.63861 56.4966 8.35157H57.2346L57.2756 8.85052H57.2961C57.4397 8.59074 57.8019 8.27637 58.3553 8.27637C58.9362 8.27637 59.5377 8.65224 59.5377 9.70482V11.6801H58.6971V9.80055C58.6971 9.32205 58.5194 8.95988 58.0616 8.95988C57.7268 8.95988 57.4944 9.19905 57.4055 9.45193C57.3783 9.52714 57.3714 9.62969 57.3714 9.72534V11.6801H56.5241V9.34257H56.5239Z" fill="#FC8019"/>
<path d="M62.8112 7.40137V8.3514H63.6108V8.98023H62.8112V10.4497C62.8112 10.8529 62.9205 11.0648 63.2417 11.0648C63.3853 11.0648 63.4945 11.0443 63.5697 11.0238L63.5833 11.6663C63.4604 11.7141 63.2417 11.7483 62.9752 11.7483C62.6676 11.7483 62.4079 11.6457 62.2508 11.4749C62.0731 11.2835 61.9911 10.9828 61.9911 10.5454V8.98023H61.5127V8.3514H61.9911V7.59957L62.8112 7.40137Z" fill="#FC8019"/>
<path d="M64.2466 6.82715H65.094V8.80923H65.1077C65.2101 8.652 65.3468 8.52219 65.5245 8.42654C65.6886 8.33081 65.8867 8.27612 66.0985 8.27612C66.6658 8.27612 67.2602 8.652 67.2602 9.71828V11.6798H66.4198V9.81394C66.4198 9.3287 66.242 8.96646 65.7774 8.96646C65.4493 8.96646 65.217 9.18518 65.1282 9.43798C65.1009 9.50637 65.094 9.59529 65.094 9.69094V11.6798H64.2467V6.82715H64.2466Z" fill="#FC8019"/>
<path d="M68.7503 10.2516C68.7708 10.8531 69.2423 11.1128 69.7754 11.1128C70.1649 11.1128 70.4452 11.0581 70.698 10.9624L70.821 11.5434C70.5339 11.6596 70.1376 11.7484 69.6592 11.7484C68.5795 11.7484 67.9438 11.0855 67.9438 10.0671C67.9438 9.14446 68.5042 8.27637 69.5704 8.27637C70.6502 8.27637 71.0055 9.1649 71.0055 9.8962C71.0055 10.0534 70.9917 10.1764 70.9781 10.2516H68.7503ZM70.2128 9.66385C70.2196 9.35628 70.0829 8.85052 69.5225 8.85052C69.0031 8.85052 68.7845 9.32213 68.7503 9.66385H70.2128Z" fill="#FC8019"/>
</svg>
