<svg width="173" height="32" viewBox="0 0 173 32" fill="none" xmlns="http://www.w3.org/2000/svg">
<path d="M21.5069 23.46C21.6669 23.46 21.8269 23.4933 21.9869 23.56C22.1469 23.6133 22.3002 23.7133 22.4469 23.86L25.1269 26.68C23.9535 28.2133 22.4802 29.3733 20.7069 30.16C18.9469 30.9333 16.8602 31.32 14.4469 31.32C12.2335 31.32 10.2469 30.9467 8.48688 30.2C6.74021 29.44 5.25354 28.4 4.02688 27.08C2.81354 25.7467 1.88021 24.1733 1.22688 22.36C0.573542 20.5333 0.246875 18.5533 0.246875 16.42C0.246875 14.2467 0.600208 12.2533 1.30688 10.44C2.01354 8.61333 3.00688 7.04 4.28688 5.72C5.56688 4.4 7.10021 3.37333 8.88688 2.64C10.6735 1.90667 12.6402 1.54 14.7869 1.54C15.8802 1.54 16.9069 1.64 17.8669 1.84C18.8402 2.02666 19.7469 2.29333 20.5869 2.64C21.4269 2.97333 22.2002 3.38 22.9069 3.86C23.6135 4.34 24.2402 4.86 24.7869 5.42L22.5069 8.48C22.3602 8.66666 22.1869 8.84 21.9869 9C21.7869 9.14667 21.5069 9.22 21.1469 9.22C20.9069 9.22 20.6802 9.16667 20.4669 9.06C20.2535 8.95333 20.0269 8.82667 19.7869 8.68C19.5469 8.52 19.2802 8.35333 18.9869 8.18C18.7069 7.99333 18.3669 7.82667 17.9669 7.68C17.5802 7.52 17.1202 7.38666 16.5869 7.28C16.0669 7.17333 15.4535 7.12 14.7469 7.12C13.6269 7.12 12.6002 7.32667 11.6669 7.74C10.7469 8.15333 9.94688 8.76 9.26688 9.56C8.60021 10.3467 8.08021 11.32 7.70688 12.48C7.34688 13.6267 7.16688 14.94 7.16688 16.42C7.16688 17.9133 7.36688 19.24 7.76688 20.4C8.18021 21.56 8.73354 22.54 9.42688 23.34C10.1335 24.1267 10.9535 24.7267 11.8869 25.14C12.8202 25.5533 13.8202 25.76 14.8869 25.76C15.5002 25.76 16.0602 25.7333 16.5669 25.68C17.0735 25.6133 17.5469 25.5133 17.9869 25.38C18.4269 25.2333 18.8402 25.0467 19.2269 24.82C19.6135 24.58 20.0069 24.28 20.4069 23.92C20.5669 23.7867 20.7402 23.68 20.9269 23.6C21.1135 23.5067 21.3069 23.46 21.5069 23.46ZM33.5578 12.08C34.3045 11.44 35.1111 10.9267 35.9778 10.54C36.8578 10.14 37.9045 9.94 39.1178 9.94C40.2511 9.94 41.2511 10.14 42.1178 10.54C42.9978 10.9267 43.7378 11.4733 44.3378 12.18C44.9378 12.8733 45.3911 13.7067 45.6978 14.68C46.0045 15.64 46.1578 16.6867 46.1578 17.82V31H39.9578V17.82C39.9578 16.8067 39.7245 16.02 39.2578 15.46C38.7911 14.8867 38.1045 14.6 37.1978 14.6C36.5178 14.6 35.8778 14.7467 35.2778 15.04C34.6911 15.32 34.1178 15.7067 33.5578 16.2V31H27.3578V1.06H33.5578V12.08ZM56.5103 10.26V31H50.3103V10.26H56.5103ZM57.1503 4.58C57.1503 5.07333 57.0503 5.54 56.8503 5.98C56.6503 6.40667 56.377 6.78667 56.0303 7.12C55.6836 7.44 55.277 7.7 54.8103 7.9C54.357 8.08667 53.8703 8.18 53.3503 8.18C52.8436 8.18 52.3703 8.08667 51.9303 7.9C51.4903 7.7 51.097 7.44 50.7503 7.12C50.417 6.78667 50.1503 6.40667 49.9503 5.98C49.7636 5.54 49.6703 5.07333 49.6703 4.58C49.6703 4.07333 49.7636 3.6 49.9503 3.16C50.1503 2.72 50.417 2.33333 50.7503 2C51.097 1.66667 51.4903 1.40667 51.9303 1.22C52.3703 1.03333 52.8436 0.94 53.3503 0.94C53.8703 0.94 54.357 1.03333 54.8103 1.22C55.277 1.40667 55.6836 1.66667 56.0303 2C56.377 2.33333 56.6503 2.72 56.8503 3.16C57.0503 3.6 57.1503 4.07333 57.1503 4.58ZM73.7344 18.14C73.7344 17.6467 73.6677 17.1667 73.5344 16.7C73.4144 16.2333 73.2077 15.82 72.9144 15.46C72.6344 15.0867 72.261 14.7867 71.7944 14.56C71.3277 14.3333 70.761 14.22 70.0944 14.22C68.921 14.22 68.001 14.56 67.3344 15.24C66.6677 15.9067 66.2277 16.8733 66.0144 18.14H73.7344ZM65.9344 21.74C66.1344 23.4733 66.661 24.7333 67.5144 25.52C68.3677 26.2933 69.4677 26.68 70.8144 26.68C71.5344 26.68 72.1544 26.5933 72.6744 26.42C73.1944 26.2467 73.6544 26.0533 74.0544 25.84C74.4677 25.6267 74.841 25.4333 75.1744 25.26C75.521 25.0867 75.881 25 76.2544 25C76.7477 25 77.121 25.18 77.3744 25.54L79.1744 27.76C78.5344 28.4933 77.841 29.0933 77.0944 29.56C76.361 30.0133 75.601 30.3733 74.8144 30.64C74.041 30.8933 73.261 31.0667 72.4744 31.16C71.701 31.2667 70.961 31.32 70.2544 31.32C68.801 31.32 67.4344 31.0867 66.1544 30.62C64.8877 30.14 63.7744 29.4333 62.8144 28.5C61.8677 27.5667 61.1144 26.4067 60.5544 25.02C60.0077 23.6333 59.7344 22.02 59.7344 20.18C59.7344 18.7933 59.9677 17.48 60.4344 16.24C60.9144 15 61.5944 13.9133 62.4744 12.98C63.3677 12.0467 64.441 11.3067 65.6944 10.76C66.961 10.2133 68.3877 9.94 69.9744 9.94C71.3477 9.94 72.601 10.1533 73.7344 10.58C74.881 11.0067 75.861 11.6267 76.6744 12.44C77.501 13.2533 78.141 14.2533 78.5944 15.44C79.061 16.6133 79.2944 17.9467 79.2944 19.44C79.2944 19.9067 79.2744 20.2867 79.2344 20.58C79.1944 20.8733 79.121 21.1067 79.0144 21.28C78.9077 21.4533 78.761 21.5733 78.5744 21.64C78.401 21.7067 78.1744 21.74 77.8944 21.74H65.9344ZM83.5463 31V14.52L82.1863 14.24C81.7196 14.1333 81.3396 13.9667 81.0463 13.74C80.7663 13.5133 80.6263 13.18 80.6263 12.74V10.3H83.5463V9.12C83.5463 7.93333 83.7329 6.86 84.1063 5.9C84.4929 4.94 85.0396 4.12 85.7463 3.44C86.4663 2.76 87.3396 2.23333 88.3663 1.86C89.3929 1.48667 90.5596 1.3 91.8663 1.3C92.3729 1.3 92.8396 1.33333 93.2663 1.4C93.6929 1.45333 94.1396 1.54667 94.6063 1.68L94.4863 4.7C94.4729 4.91333 94.4196 5.09333 94.3263 5.24C94.2329 5.37333 94.1063 5.48666 93.9463 5.58C93.7996 5.66 93.6396 5.72 93.4663 5.76C93.2929 5.8 93.1196 5.82 92.9463 5.82C92.3996 5.82 91.9129 5.87333 91.4863 5.98C91.0596 6.08667 90.6996 6.28 90.4063 6.56C90.1263 6.82667 89.9129 7.18667 89.7663 7.64C89.6196 8.08 89.5463 8.64 89.5463 9.32V10.3H94.4063V14.54H89.7463V31H83.5463Z" fill="black"/>
<path d="M122.815 1.86V31H119.295C118.775 31 118.335 30.92 117.975 30.76C117.628 30.5867 117.281 30.2933 116.935 29.88L103.195 12.5C103.248 13.02 103.281 13.5267 103.295 14.02C103.321 14.5 103.335 14.9533 103.335 15.38V31H97.3747V1.86H100.935C101.228 1.86 101.475 1.87333 101.675 1.9C101.875 1.92667 102.055 1.98 102.215 2.06C102.375 2.12667 102.528 2.22667 102.675 2.36C102.821 2.49333 102.988 2.67333 103.175 2.9L117.035 20.4C116.968 19.84 116.921 19.3 116.895 18.78C116.868 18.2467 116.855 17.7467 116.855 17.28V1.86H122.815ZM135.268 7.06V13.86H144.428V18.86H135.268V25.8H147.228V31H128.468V1.86H147.228V7.06H135.268ZM172.338 7.22H164.138V31H157.378V7.22H149.178V1.86H172.338V7.22Z" fill="#FC8019"/>
</svg>
