<svg width="528" height="394" viewBox="0 0 528 394" fill="none" xmlns="http://www.w3.org/2000/svg">
<rect width="528" height="394" fill="white"/>
<path d="M405.226 377.839H463.517V378.05H405.226V377.839Z" fill="#EBEBEB"/>
<path d="M328.243 372.241H337.43V372.558H328.243V372.241Z" fill="#EBEBEB"/>
<path d="M381.782 368.016H402.057V368.332H381.782V368.016Z" fill="#EBEBEB"/>
<path fill-rule="evenodd" clip-rule="evenodd" d="M467.107 313.722H263.194C259.92 313.722 257.174 310.975 257.174 307.701V21.0209C257.174 17.6408 259.92 15 263.194 15H467.107C470.486 15 473.126 17.6408 473.126 21.0209V307.701C473.126 310.975 470.486 313.722 467.107 313.722V313.722ZM263.194 15.2113C260.026 15.2113 257.491 17.852 257.491 21.0209V307.701C257.491 310.87 260.026 313.405 263.194 313.405H467.107C470.275 313.405 472.915 310.87 472.915 307.701V21.0209C472.915 17.852 470.275 15.2113 467.107 15.2113H263.194Z" fill="#EBEBEB"/>
<path d="M206.592 133.411C206.592 145.664 196.771 155.594 184.522 155.594H85.152C67.9392 155.594 54 141.65 54 124.327C54 107.849 66.8832 94.2226 83.1456 93.1663C86.736 77.0049 101.203 64.8574 118.522 64.8574C132.883 64.8574 145.238 73.0966 151.152 85.1384C154.637 83.7652 158.438 83.0258 162.346 83.0258C178.925 83.0258 192.23 96.3352 192.442 112.813C200.678 115.982 206.592 124.01 206.592 133.411V133.411Z" fill="#7D97F4"/>
<path d="M460.982 277.596C460.982 289.849 451.161 299.673 438.912 299.673H339.542C322.329 299.673 308.285 285.73 308.285 268.512C308.285 251.928 321.273 238.408 337.536 237.351C341.126 221.084 355.593 208.937 372.912 208.937C387.273 208.937 399.629 217.282 405.542 229.323C409.027 227.95 412.829 227.105 416.736 227.105C433.209 227.105 446.621 240.415 446.726 256.893C455.069 260.062 460.982 268.09 460.982 277.596V277.596Z" fill="#F5F5F5"/>
<path d="M359.078 170.276C359.078 176.614 353.904 181.79 347.568 181.79H296.035C287.059 181.79 279.878 174.501 279.878 165.628C279.878 156.967 286.531 149.995 294.979 149.467C296.88 141.017 304.378 134.679 313.354 134.679C320.746 134.679 327.187 139.01 330.25 145.242C332.045 144.502 334.051 144.08 336.058 144.08C344.611 144.08 351.581 151.051 351.686 159.607C356.016 161.192 359.078 165.417 359.078 170.276Z" fill="#E0E0E0"/>
<path d="M434.054 80.7019C434.054 89.1523 427.296 95.9126 418.954 95.9126H350.842C339.014 95.9126 329.405 86.3003 329.405 74.4697C329.405 63.1673 338.275 53.8719 349.469 53.1325C351.898 42.0413 361.824 33.6965 373.651 33.6965C383.472 33.6965 392.026 39.4006 396.038 47.6397C398.467 46.689 401.002 46.1609 403.747 46.1609C415.046 46.1609 424.234 55.2451 424.339 66.5475C430.042 68.7657 434.054 74.2585 434.054 80.7019V80.7019Z" fill="#7D97F4"/>
<path d="M215.779 261.752C215.779 270.202 209.021 276.962 200.679 276.962H132.567C120.739 276.962 111.235 267.35 111.235 255.52C111.235 244.217 120 234.922 131.194 234.182C133.623 223.091 143.549 214.746 155.482 214.746C165.303 214.746 173.751 220.45 177.763 228.689C180.192 227.739 182.727 227.211 185.472 227.211C196.771 227.211 205.959 236.295 206.064 247.597C211.767 249.815 215.779 255.308 215.779 261.752V261.752Z" fill="#F5F5F5"/>
<path d="M126.758 141.862C126.618 141.862 126.477 141.791 126.336 141.65C126.336 141.58 126.301 141.51 126.23 141.439C126.23 141.439 126.23 141.404 126.23 141.333C126.23 141.263 126.23 141.193 126.23 141.122C126.301 141.052 126.336 140.981 126.336 140.911C126.547 140.805 126.758 140.7 126.97 140.805C127.04 140.805 127.075 140.841 127.075 140.911C127.216 140.981 127.286 141.122 127.286 141.333C127.286 141.404 127.286 141.439 127.286 141.439C127.216 141.51 127.146 141.58 127.075 141.65C127.005 141.791 126.899 141.862 126.758 141.862V141.862Z" fill="#E0E0E0"/>
<path d="M126.23 164.572C126.23 164.255 126.442 164.044 126.758 164.044C127.075 164.044 127.286 164.255 127.286 164.572C127.286 164.889 127.075 165.1 126.758 165.1C126.442 165.1 126.23 164.889 126.23 164.572ZM126.23 158.762C126.23 158.446 126.442 158.234 126.758 158.234C127.075 158.234 127.286 158.446 127.286 158.762C127.286 159.079 127.075 159.291 126.758 159.291C126.442 159.291 126.23 159.079 126.23 158.762ZM126.23 152.953C126.23 152.636 126.442 152.425 126.758 152.425C127.075 152.425 127.286 152.636 127.286 152.953C127.286 153.164 127.075 153.481 126.758 153.481C126.442 153.481 126.23 153.164 126.23 152.953ZM126.23 147.143C126.23 146.826 126.442 146.615 126.758 146.615C127.075 146.615 127.286 146.826 127.286 147.143C127.286 147.354 127.075 147.671 126.758 147.671C126.442 147.671 126.23 147.354 126.23 147.143Z" fill="#E0E0E0"/>
<path d="M126.758 170.91C126.688 170.91 126.618 170.91 126.547 170.91C126.477 170.84 126.406 170.804 126.336 170.804C126.336 170.734 126.301 170.663 126.23 170.593C126.23 170.523 126.23 170.452 126.23 170.382C126.23 170.311 126.23 170.241 126.23 170.171C126.301 170.1 126.336 170.065 126.336 170.065C126.406 169.994 126.477 169.924 126.547 169.854C126.688 169.854 126.829 169.854 126.97 169.854C127.04 169.924 127.075 169.994 127.075 170.065C127.146 170.065 127.216 170.1 127.286 170.171C127.286 170.241 127.286 170.311 127.286 170.382C127.286 170.523 127.216 170.663 127.075 170.804C127.075 170.804 127.04 170.84 126.97 170.91C126.899 170.91 126.829 170.91 126.758 170.91V170.91Z" fill="#E0E0E0"/>
<path d="M223.065 170.382C223.065 170.065 223.277 169.854 223.593 169.854C223.805 169.854 224.121 170.065 224.121 170.382C224.121 170.699 223.805 170.91 223.593 170.91C223.277 170.91 223.065 170.699 223.065 170.382ZM216.624 170.382C216.624 170.065 216.835 169.854 217.152 169.854C217.363 169.854 217.574 170.065 217.574 170.382C217.574 170.699 217.363 170.91 217.152 170.91C216.835 170.91 216.624 170.699 216.624 170.382ZM210.182 170.382C210.182 170.065 210.393 169.854 210.71 169.854C210.921 169.854 211.238 170.065 211.238 170.382C211.238 170.699 210.921 170.91 210.71 170.91C210.393 170.91 210.182 170.699 210.182 170.382ZM203.635 170.382C203.635 170.065 203.952 169.854 204.163 169.854C204.48 169.854 204.691 170.065 204.691 170.382C204.691 170.699 204.48 170.91 204.163 170.91C203.952 170.91 203.635 170.699 203.635 170.382ZM197.193 170.382C197.193 170.065 197.51 169.854 197.721 169.854C198.038 169.854 198.249 170.065 198.249 170.382C198.249 170.699 198.038 170.91 197.721 170.91C197.51 170.91 197.193 170.699 197.193 170.382ZM190.752 170.382C190.752 170.065 190.963 169.854 191.28 169.854C191.597 169.854 191.808 170.065 191.808 170.382C191.808 170.699 191.597 170.91 191.28 170.91C190.963 170.91 190.752 170.699 190.752 170.382ZM184.31 170.382C184.31 170.065 184.521 169.854 184.838 169.854C185.155 169.854 185.366 170.065 185.366 170.382C185.366 170.699 185.155 170.91 184.838 170.91C184.521 170.91 184.31 170.699 184.31 170.382ZM177.869 170.382C177.869 170.065 178.08 169.854 178.397 169.854C178.713 169.854 178.925 170.065 178.925 170.382C178.925 170.699 178.713 170.91 178.397 170.91C178.08 170.91 177.869 170.699 177.869 170.382ZM171.427 170.382C171.427 170.065 171.638 169.854 171.955 169.854C172.166 169.854 172.483 170.065 172.483 170.382C172.483 170.699 172.166 170.91 171.955 170.91C171.638 170.91 171.427 170.699 171.427 170.382ZM164.985 170.382C164.985 170.065 165.197 169.854 165.513 169.854C165.725 169.854 166.041 170.065 166.041 170.382C166.041 170.699 165.725 170.91 165.513 170.91C165.197 170.91 164.985 170.699 164.985 170.382ZM158.438 170.382C158.438 170.065 158.755 169.854 158.966 169.854C159.283 169.854 159.6 170.065 159.6 170.382C159.6 170.699 159.283 170.91 158.966 170.91C158.755 170.91 158.438 170.699 158.438 170.382ZM152.102 170.382C152.102 170.065 152.313 169.854 152.63 169.854C152.841 169.854 153.053 170.065 153.053 170.382C153.053 170.699 152.841 170.91 152.63 170.91C152.313 170.91 152.102 170.699 152.102 170.382ZM145.555 170.382C145.555 170.065 145.872 169.854 146.083 169.854C146.4 169.854 146.611 170.065 146.611 170.382C146.611 170.699 146.4 170.91 146.083 170.91C145.872 170.91 145.555 170.699 145.555 170.382ZM139.113 170.382C139.113 170.065 139.43 169.854 139.641 169.854C139.958 169.854 140.169 170.065 140.169 170.382C140.169 170.699 139.958 170.91 139.641 170.91C139.43 170.91 139.113 170.699 139.113 170.382ZM132.672 170.382C132.672 170.065 132.883 169.854 133.2 169.854C133.517 169.854 133.728 170.065 133.728 170.382C133.728 170.699 133.517 170.91 133.2 170.91C132.883 170.91 132.672 170.699 132.672 170.382Z" fill="#E0E0E0"/>
<path d="M230.035 170.91C229.965 170.91 229.895 170.91 229.824 170.91C229.754 170.84 229.683 170.804 229.613 170.804C229.613 170.734 229.578 170.663 229.507 170.593C229.507 170.523 229.507 170.452 229.507 170.382C229.507 170.311 229.507 170.241 229.507 170.171C229.578 170.1 229.613 170.065 229.613 170.065C229.683 169.994 229.754 169.924 229.824 169.854C229.965 169.854 230.106 169.854 230.247 169.854C230.317 169.924 230.352 169.994 230.352 170.065C230.423 170.065 230.458 170.1 230.458 170.171C230.528 170.241 230.563 170.311 230.563 170.382C230.563 170.523 230.493 170.663 230.352 170.804C230.352 170.804 230.317 170.84 230.247 170.91C230.176 170.91 230.106 170.91 230.035 170.91V170.91Z" fill="#E0E0E0"/>
<path d="M229.507 164.15C229.507 163.833 229.719 163.621 230.035 163.621C230.247 163.621 230.563 163.833 230.563 164.15C230.563 164.361 230.247 164.678 230.035 164.678C229.719 164.678 229.507 164.361 229.507 164.15ZM229.507 157.812C229.507 157.495 229.719 157.284 230.035 157.284C230.247 157.284 230.563 157.495 230.563 157.812C230.563 158.129 230.247 158.34 230.035 158.34C229.719 158.34 229.507 158.129 229.507 157.812ZM229.507 151.474C229.507 151.263 229.719 150.946 230.035 150.946C230.247 150.946 230.563 151.263 230.563 151.474C230.563 151.791 230.247 152.002 230.035 152.002C229.719 152.002 229.507 151.791 229.507 151.474ZM229.507 145.242C229.507 144.925 229.719 144.714 230.035 144.714C230.247 144.714 230.563 144.925 230.563 145.242C230.563 145.559 230.247 145.77 230.035 145.77C229.719 145.77 229.507 145.559 229.507 145.242ZM229.507 138.904C229.507 138.693 229.719 138.376 230.035 138.376C230.247 138.376 230.563 138.693 230.563 138.904C230.563 139.221 230.247 139.432 230.035 139.432C229.719 139.432 229.507 139.221 229.507 138.904ZM229.507 132.672C229.507 132.355 229.719 132.144 230.035 132.144C230.247 132.144 230.563 132.355 230.563 132.672C230.563 132.883 230.247 133.2 230.035 133.2C229.719 133.2 229.507 132.883 229.507 132.672ZM229.507 126.334C229.507 126.017 229.719 125.806 230.035 125.806C230.247 125.806 230.563 126.017 230.563 126.334C230.563 126.651 230.247 126.862 230.035 126.862C229.719 126.862 229.507 126.651 229.507 126.334ZM229.507 120.102C229.507 119.785 229.719 119.574 230.035 119.574C230.247 119.574 230.563 119.785 230.563 120.102C230.563 120.313 230.247 120.63 230.035 120.63C229.719 120.63 229.507 120.313 229.507 120.102ZM229.507 113.764C229.507 113.447 229.719 113.236 230.035 113.236C230.247 113.236 230.563 113.447 230.563 113.764C230.563 114.081 230.247 114.292 230.035 114.292C229.719 114.292 229.507 114.081 229.507 113.764Z" fill="#E0E0E0"/>
<path d="M230.035 108.06C229.965 108.06 229.895 108.025 229.824 107.954C229.754 107.954 229.683 107.919 229.613 107.849C229.613 107.778 229.578 107.708 229.507 107.638C229.507 107.638 229.507 107.602 229.507 107.532C229.507 107.461 229.507 107.391 229.507 107.321C229.578 107.25 229.613 107.18 229.613 107.109C229.683 107.039 229.754 107.004 229.824 107.004C229.965 106.933 230.106 106.933 230.247 107.004C230.317 107.004 230.352 107.039 230.352 107.109C230.493 107.25 230.563 107.391 230.563 107.532C230.563 107.673 230.493 107.778 230.352 107.849C230.282 107.99 230.176 108.06 230.035 108.06V108.06Z" fill="#E0E0E0"/>
<path d="M374.918 107.532C374.918 107.215 375.13 106.898 375.446 106.898C375.763 106.898 375.974 107.215 375.974 107.532C375.974 107.743 375.763 108.06 375.446 108.06C375.13 108.06 374.918 107.743 374.918 107.532ZM368.582 107.532C368.582 107.215 368.794 106.898 369.11 106.898C369.427 106.898 369.638 107.215 369.638 107.532C369.638 107.743 369.427 108.06 369.11 108.06C368.794 108.06 368.582 107.743 368.582 107.532ZM362.246 107.532C362.246 107.215 362.458 106.898 362.774 106.898C363.091 106.898 363.302 107.215 363.302 107.532C363.302 107.743 363.091 108.06 362.774 108.06C362.458 108.06 362.246 107.743 362.246 107.532ZM355.91 107.532C355.91 107.215 356.122 106.898 356.438 106.898C356.755 106.898 356.966 107.215 356.966 107.532C356.966 107.743 356.755 108.06 356.438 108.06C356.122 108.06 355.91 107.743 355.91 107.532ZM349.574 107.532C349.574 107.215 349.891 106.898 350.102 106.898C350.419 106.898 350.63 107.215 350.63 107.532C350.63 107.743 350.419 108.06 350.102 108.06C349.891 108.06 349.574 107.743 349.574 107.532ZM343.238 107.532C343.238 107.215 343.555 106.898 343.766 106.898C344.083 106.898 344.294 107.215 344.294 107.532C344.294 107.743 344.083 108.06 343.766 108.06C343.555 108.06 343.238 107.743 343.238 107.532ZM337.008 107.532C337.008 107.215 337.219 106.898 337.536 106.898C337.747 106.898 338.064 107.215 338.064 107.532C338.064 107.743 337.747 108.06 337.536 108.06C337.219 108.06 337.008 107.743 337.008 107.532ZM330.672 107.532C330.672 107.215 330.883 106.898 331.2 106.898C331.411 106.898 331.728 107.215 331.728 107.532C331.728 107.743 331.411 108.06 331.2 108.06C330.883 108.06 330.672 107.743 330.672 107.532ZM324.336 107.532C324.336 107.215 324.547 106.898 324.864 106.898C325.181 106.898 325.392 107.215 325.392 107.532C325.392 107.743 325.181 108.06 324.864 108.06C324.547 108.06 324.336 107.743 324.336 107.532ZM318 107.532C318 107.215 318.211 106.898 318.528 106.898C318.845 106.898 319.056 107.215 319.056 107.532C319.056 107.743 318.845 108.06 318.528 108.06C318.211 108.06 318 107.743 318 107.532ZM311.664 107.532C311.664 107.215 311.875 106.898 312.192 106.898C312.509 106.898 312.72 107.215 312.72 107.532C312.72 107.743 312.509 108.06 312.192 108.06C311.875 108.06 311.664 107.743 311.664 107.532ZM305.328 107.532C305.328 107.215 305.539 106.898 305.856 106.898C306.173 106.898 306.384 107.215 306.384 107.532C306.384 107.743 306.173 108.06 305.856 108.06C305.539 108.06 305.328 107.743 305.328 107.532ZM298.992 107.532C298.992 107.215 299.309 106.898 299.52 106.898C299.837 106.898 300.048 107.215 300.048 107.532C300.048 107.743 299.837 108.06 299.52 108.06C299.309 108.06 298.992 107.743 298.992 107.532ZM292.656 107.532C292.656 107.215 292.973 106.898 293.184 106.898C293.501 106.898 293.712 107.215 293.712 107.532C293.712 107.743 293.501 108.06 293.184 108.06C292.973 108.06 292.656 107.743 292.656 107.532ZM286.426 107.532C286.426 107.215 286.637 106.898 286.954 106.898C287.165 106.898 287.482 107.215 287.482 107.532C287.482 107.743 287.165 108.06 286.954 108.06C286.637 108.06 286.426 107.743 286.426 107.532ZM280.09 107.532C280.09 107.215 280.301 106.898 280.618 106.898C280.934 106.898 281.146 107.215 281.146 107.532C281.146 107.743 280.934 108.06 280.618 108.06C280.301 108.06 280.09 107.743 280.09 107.532ZM273.754 107.532C273.754 107.215 273.965 106.898 274.282 106.898C274.598 106.898 274.81 107.215 274.81 107.532C274.81 107.743 274.598 108.06 274.282 108.06C273.965 108.06 273.754 107.743 273.754 107.532ZM267.418 107.532C267.418 107.215 267.629 106.898 267.946 106.898C268.262 106.898 268.474 107.215 268.474 107.532C268.474 107.743 268.262 108.06 267.946 108.06C267.629 108.06 267.418 107.743 267.418 107.532ZM261.082 107.532C261.082 107.215 261.293 106.898 261.61 106.898C261.926 106.898 262.138 107.215 262.138 107.532C262.138 107.743 261.926 108.06 261.61 108.06C261.293 108.06 261.082 107.743 261.082 107.532ZM254.746 107.532C254.746 107.215 255.062 106.898 255.274 106.898C255.59 106.898 255.802 107.215 255.802 107.532C255.802 107.743 255.59 108.06 255.274 108.06C255.062 108.06 254.746 107.743 254.746 107.532ZM248.41 107.532C248.41 107.215 248.726 106.898 248.938 106.898C249.254 106.898 249.466 107.215 249.466 107.532C249.466 107.743 249.254 108.06 248.938 108.06C248.726 108.06 248.41 107.743 248.41 107.532ZM242.074 107.532C242.074 107.215 242.39 106.898 242.602 106.898C242.918 106.898 243.13 107.215 243.13 107.532C243.13 107.743 242.918 108.06 242.602 108.06C242.39 108.06 242.074 107.743 242.074 107.532ZM235.843 107.532C235.843 107.215 236.054 106.898 236.371 106.898C236.582 106.898 236.899 107.215 236.899 107.532C236.899 107.743 236.582 108.06 236.371 108.06C236.054 108.06 235.843 107.743 235.843 107.532Z" fill="#E0E0E0"/>
<path d="M381.782 108.06C381.642 108.06 381.501 107.99 381.36 107.849C381.29 107.778 381.254 107.673 381.254 107.532C381.254 107.391 381.29 107.25 381.36 107.109C381.43 107.039 381.501 107.004 381.571 107.004C381.782 106.898 381.994 107.004 382.099 107.109C382.17 107.18 382.205 107.25 382.205 107.321C382.275 107.391 382.31 107.461 382.31 107.532C382.31 107.673 382.24 107.778 382.099 107.849C382.029 107.99 381.923 108.06 381.782 108.06V108.06Z" fill="#E0E0E0"/>
<path d="M381.254 101.405C381.254 101.088 381.466 100.877 381.782 100.877C381.994 100.877 382.31 101.088 382.31 101.405C382.31 101.722 381.994 101.933 381.782 101.933C381.466 101.933 381.254 101.722 381.254 101.405ZM381.254 95.2788C381.254 94.9619 381.466 94.7506 381.782 94.7506C381.994 94.7506 382.31 94.9619 382.31 95.2788C382.31 95.5957 381.994 95.8069 381.782 95.8069C381.466 95.8069 381.254 95.5957 381.254 95.2788ZM381.254 89.1522C381.254 88.941 381.466 88.6241 381.782 88.6241C381.994 88.6241 382.31 88.941 382.31 89.1522C382.31 89.4691 381.994 89.6804 381.782 89.6804C381.466 89.6804 381.254 89.4691 381.254 89.1522ZM381.254 83.1313C381.254 82.8144 381.466 82.6032 381.782 82.6032C381.994 82.6032 382.31 82.8144 382.31 83.1313C382.31 83.3426 381.994 83.6595 381.782 83.6595C381.466 83.6595 381.254 83.3426 381.254 83.1313ZM381.254 77.0048C381.254 76.6879 381.466 76.4766 381.782 76.4766C381.994 76.4766 382.31 76.6879 382.31 77.0048C382.31 77.3217 381.994 77.5329 381.782 77.5329C381.466 77.5329 381.254 77.3217 381.254 77.0048ZM381.254 70.8782C381.254 70.667 381.466 70.3501 381.782 70.3501C381.994 70.3501 382.31 70.667 382.31 70.8782C382.31 71.1951 381.994 71.4064 381.782 71.4064C381.466 71.4064 381.254 71.1951 381.254 70.8782Z" fill="#E0E0E0"/>
<path d="M381.782 65.3855C381.642 65.3855 381.501 65.3151 381.36 65.1742C381.29 65.1038 381.254 64.9982 381.254 64.8573C381.254 64.7869 381.254 64.7165 381.254 64.6461C381.325 64.5757 381.36 64.5052 381.36 64.4348C381.571 64.2236 381.888 64.2236 382.099 64.4348C382.24 64.5757 382.31 64.7165 382.31 64.8573C382.31 64.9278 382.275 64.963 382.205 64.963C382.205 65.0334 382.17 65.1038 382.099 65.1742C382.099 65.2447 382.064 65.2799 381.994 65.2799C381.923 65.3503 381.853 65.3855 381.782 65.3855V65.3855Z" fill="#E0E0E0"/>
<path d="M163.507 264.076C163.366 264.076 163.225 264.04 163.085 263.97C163.085 263.9 163.049 263.829 162.979 263.759C162.979 263.688 162.979 263.618 162.979 263.547C162.979 263.407 163.014 263.301 163.085 263.231C163.296 263.019 163.507 263.019 163.718 263.125C163.789 263.125 163.824 263.16 163.824 263.231C163.965 263.301 164.035 263.407 164.035 263.547C164.035 263.618 164.035 263.688 164.035 263.759C163.965 263.829 163.894 263.9 163.824 263.97C163.824 264.04 163.789 264.076 163.718 264.076C163.648 264.076 163.577 264.076 163.507 264.076Z" fill="#E0E0E0"/>
<path d="M162.979 289.532C162.979 289.216 163.19 289.004 163.507 289.004C163.824 289.004 164.035 289.216 164.035 289.532C164.035 289.744 163.824 290.061 163.507 290.061C163.19 290.061 162.979 289.744 162.979 289.532ZM162.979 282.983C162.979 282.772 163.19 282.455 163.507 282.455C163.824 282.455 164.035 282.772 164.035 282.983C164.035 283.3 163.824 283.512 163.507 283.512C163.19 283.512 162.979 283.3 162.979 282.983ZM162.979 276.54C162.979 276.223 163.19 276.012 163.507 276.012C163.824 276.012 164.035 276.223 164.035 276.54C164.035 276.857 163.824 277.068 163.507 277.068C163.19 277.068 162.979 276.857 162.979 276.54ZM162.979 270.097C162.979 269.78 163.19 269.568 163.507 269.568C163.824 269.568 164.035 269.78 164.035 270.097C164.035 270.308 163.824 270.625 163.507 270.625C163.19 270.625 162.979 270.308 162.979 270.097Z" fill="#E0E0E0"/>
<path d="M163.507 296.504C163.366 296.504 163.225 296.434 163.085 296.293C163.085 296.293 163.049 296.258 162.979 296.187C162.979 296.117 162.979 296.046 162.979 295.976C162.979 295.905 162.979 295.835 162.979 295.765C163.049 295.694 163.085 295.624 163.085 295.553C163.296 295.448 163.507 295.448 163.718 295.448C163.789 295.518 163.824 295.553 163.824 295.553C163.894 295.624 163.965 295.694 164.035 295.765C164.035 295.835 164.035 295.905 164.035 295.976C164.035 296.046 164.035 296.117 164.035 296.187C163.965 296.258 163.894 296.293 163.824 296.293C163.824 296.363 163.789 296.434 163.718 296.504C163.648 296.504 163.577 296.504 163.507 296.504Z" fill="#E0E0E0"/>
<path d="M223.383 295.976C223.383 295.659 223.699 295.448 223.911 295.448C224.227 295.448 224.439 295.659 224.439 295.976C224.439 296.293 224.227 296.504 223.911 296.504C223.699 296.504 223.383 296.293 223.383 295.976ZM217.363 295.976C217.363 295.659 217.575 295.448 217.891 295.448C218.208 295.448 218.419 295.659 218.419 295.976C218.419 296.293 218.208 296.504 217.891 296.504C217.575 296.504 217.363 296.293 217.363 295.976ZM211.344 295.976C211.344 295.659 211.555 295.448 211.872 295.448C212.189 295.448 212.4 295.659 212.4 295.976C212.4 296.293 212.189 296.504 211.872 296.504C211.555 296.504 211.344 296.293 211.344 295.976ZM205.325 295.976C205.325 295.659 205.536 295.448 205.853 295.448C206.064 295.448 206.381 295.659 206.381 295.976C206.381 296.293 206.064 296.504 205.853 296.504C205.536 296.504 205.325 296.293 205.325 295.976ZM199.2 295.976C199.2 295.659 199.517 295.448 199.728 295.448C200.045 295.448 200.256 295.659 200.256 295.976C200.256 296.293 200.045 296.504 199.728 296.504C199.517 296.504 199.2 296.293 199.2 295.976ZM193.181 295.976C193.181 295.659 193.392 295.448 193.709 295.448C194.026 295.448 194.237 295.659 194.237 295.976C194.237 296.293 194.026 296.504 193.709 296.504C193.392 296.504 193.181 296.293 193.181 295.976ZM187.162 295.976C187.162 295.659 187.373 295.448 187.69 295.448C188.007 295.448 188.218 295.659 188.218 295.976C188.218 296.293 188.007 296.504 187.69 296.504C187.373 296.504 187.162 296.293 187.162 295.976ZM181.143 295.976C181.143 295.659 181.354 295.448 181.671 295.448C181.882 295.448 182.199 295.659 182.199 295.976C182.199 296.293 181.882 296.504 181.671 296.504C181.354 296.504 181.143 296.293 181.143 295.976ZM175.018 295.976C175.018 295.659 175.335 295.448 175.546 295.448C175.863 295.448 176.074 295.659 176.074 295.976C176.074 296.293 175.863 296.504 175.546 296.504C175.335 296.504 175.018 296.293 175.018 295.976ZM168.999 295.976C168.999 295.659 169.21 295.448 169.527 295.448C169.843 295.448 170.055 295.659 170.055 295.976C170.055 296.293 169.843 296.504 169.527 296.504C169.21 296.504 168.999 296.293 168.999 295.976Z" fill="#E0E0E0"/>
<path d="M230.035 296.504C229.965 296.504 229.895 296.504 229.824 296.504C229.754 296.434 229.683 296.363 229.613 296.293C229.613 296.293 229.578 296.258 229.507 296.187C229.507 296.117 229.507 296.046 229.507 295.976C229.507 295.835 229.543 295.694 229.613 295.553C229.683 295.553 229.754 295.518 229.824 295.448C229.965 295.448 230.106 295.448 230.247 295.448C230.317 295.518 230.352 295.553 230.352 295.553C230.493 295.694 230.563 295.835 230.563 295.976C230.563 296.046 230.528 296.117 230.458 296.187C230.458 296.258 230.423 296.293 230.352 296.293C230.352 296.363 230.317 296.434 230.247 296.504C230.176 296.504 230.106 296.504 230.035 296.504V296.504Z" fill="#E0E0E0"/>
<path d="M229.507 289.849C229.507 289.532 229.719 289.321 230.035 289.321C230.247 289.321 230.563 289.532 230.563 289.849C230.563 290.061 230.247 290.378 230.035 290.378C229.719 290.378 229.507 290.061 229.507 289.849ZM229.507 283.723C229.507 283.406 229.719 283.089 230.035 283.089C230.247 283.089 230.563 283.406 230.563 283.723C230.563 283.934 230.247 284.251 230.035 284.251C229.719 284.251 229.507 283.934 229.507 283.723ZM229.507 277.491C229.507 277.279 229.719 276.962 230.035 276.962C230.247 276.962 230.563 277.279 230.563 277.491C230.563 277.808 230.247 278.019 230.035 278.019C229.719 278.019 229.507 277.808 229.507 277.491ZM229.507 271.364C229.507 271.047 229.719 270.836 230.035 270.836C230.247 270.836 230.563 271.047 230.563 271.364C230.563 271.681 230.247 271.892 230.035 271.892C229.719 271.892 229.507 271.681 229.507 271.364ZM229.507 265.238C229.507 264.921 229.719 264.709 230.035 264.709C230.247 264.709 230.563 264.921 230.563 265.238C230.563 265.554 230.247 265.766 230.035 265.766C229.719 265.766 229.507 265.554 229.507 265.238ZM229.507 259.111C229.507 258.794 229.719 258.583 230.035 258.583C230.247 258.583 230.563 258.794 230.563 259.111C230.563 259.322 230.247 259.639 230.035 259.639C229.719 259.639 229.507 259.322 229.507 259.111ZM229.507 252.879C229.507 252.668 229.719 252.351 230.035 252.351C230.247 252.351 230.563 252.668 230.563 252.879C230.563 253.196 230.247 253.407 230.035 253.407C229.719 253.407 229.507 253.196 229.507 252.879ZM229.507 246.752C229.507 246.435 229.719 246.224 230.035 246.224C230.247 246.224 230.563 246.435 230.563 246.752C230.563 247.069 230.247 247.28 230.035 247.28C229.719 247.28 229.507 247.069 229.507 246.752ZM229.507 240.626C229.507 240.309 229.719 240.098 230.035 240.098C230.247 240.098 230.563 240.309 230.563 240.626C230.563 240.943 230.247 241.154 230.035 241.154C229.719 241.154 229.507 240.943 229.507 240.626ZM229.507 234.499C229.507 234.182 229.719 233.971 230.035 233.971C230.247 233.971 230.563 234.182 230.563 234.499C230.563 234.71 230.247 235.027 230.035 235.027C229.719 235.027 229.507 234.71 229.507 234.499ZM229.507 228.373C229.507 228.056 229.719 227.845 230.035 227.845C230.247 227.845 230.563 228.056 230.563 228.373C230.563 228.584 230.247 228.901 230.035 228.901C229.719 228.901 229.507 228.584 229.507 228.373ZM229.507 222.14C229.507 221.929 229.719 221.612 230.035 221.612C230.247 221.612 230.563 221.929 230.563 222.14C230.563 222.457 230.247 222.669 230.035 222.669C229.719 222.669 229.507 222.457 229.507 222.14ZM229.507 216.014C229.507 215.697 229.719 215.486 230.035 215.486C230.247 215.486 230.563 215.697 230.563 216.014C230.563 216.331 230.247 216.542 230.035 216.542C229.719 216.542 229.507 216.331 229.507 216.014ZM229.507 209.887C229.507 209.571 229.719 209.359 230.035 209.359C230.247 209.359 230.563 209.571 230.563 209.887C230.563 210.204 230.247 210.416 230.035 210.416C229.719 210.416 229.507 210.204 229.507 209.887Z" fill="#E0E0E0"/>
<path d="M230.035 204.289C229.965 204.289 229.895 204.254 229.824 204.183C229.754 204.183 229.683 204.148 229.613 204.078C229.613 204.007 229.578 203.972 229.507 203.972C229.507 203.902 229.507 203.831 229.507 203.761C229.507 203.62 229.543 203.479 229.613 203.338C229.683 203.268 229.754 203.233 229.824 203.233C229.965 203.162 230.106 203.162 230.247 203.233C230.317 203.233 230.352 203.268 230.352 203.338C230.493 203.479 230.563 203.62 230.563 203.761C230.563 203.831 230.528 203.902 230.458 203.972C230.458 203.972 230.423 204.007 230.352 204.078C230.352 204.148 230.317 204.183 230.247 204.183C230.176 204.254 230.106 204.289 230.035 204.289V204.289Z" fill="#E0E0E0"/>
<path d="M312.509 203.761C312.509 203.444 312.72 203.233 313.037 203.233C313.354 203.233 313.565 203.444 313.565 203.761C313.565 203.972 313.354 204.289 313.037 204.289C312.72 204.289 312.509 203.972 312.509 203.761ZM306.173 203.761C306.173 203.444 306.384 203.233 306.701 203.233C306.912 203.233 307.229 203.444 307.229 203.761C307.229 203.972 306.912 204.289 306.701 204.289C306.384 204.289 306.173 203.972 306.173 203.761ZM299.731 203.761C299.731 203.444 299.942 203.233 300.259 203.233C300.576 203.233 300.787 203.444 300.787 203.761C300.787 203.972 300.576 204.289 300.259 204.289C299.942 204.289 299.731 203.972 299.731 203.761ZM293.395 203.761C293.395 203.444 293.606 203.233 293.923 203.233C294.134 203.233 294.451 203.444 294.451 203.761C294.451 203.972 294.134 204.289 293.923 204.289C293.606 204.289 293.395 203.972 293.395 203.761ZM286.954 203.761C286.954 203.444 287.165 203.233 287.482 203.233C287.798 203.233 288.01 203.444 288.01 203.761C288.01 203.972 287.798 204.289 287.482 204.289C287.165 204.289 286.954 203.972 286.954 203.761ZM280.618 203.761C280.618 203.444 280.829 203.233 281.146 203.233C281.357 203.233 281.674 203.444 281.674 203.761C281.674 203.972 281.357 204.289 281.146 204.289C280.829 204.289 280.618 203.972 280.618 203.761ZM274.176 203.761C274.176 203.444 274.387 203.233 274.704 203.233C275.021 203.233 275.232 203.444 275.232 203.761C275.232 203.972 275.021 204.289 274.704 204.289C274.387 204.289 274.176 203.972 274.176 203.761ZM267.84 203.761C267.84 203.444 268.051 203.233 268.368 203.233C268.579 203.233 268.896 203.444 268.896 203.761C268.896 203.972 268.579 204.289 268.368 204.289C268.051 204.289 267.84 203.972 267.84 203.761ZM261.398 203.761C261.398 203.444 261.61 203.233 261.926 203.233C262.243 203.233 262.454 203.444 262.454 203.761C262.454 203.972 262.243 204.289 261.926 204.289C261.61 204.289 261.398 203.972 261.398 203.761ZM255.062 203.761C255.062 203.444 255.274 203.233 255.59 203.233C255.802 203.233 256.118 203.444 256.118 203.761C256.118 203.972 255.802 204.289 255.59 204.289C255.274 204.289 255.062 203.972 255.062 203.761ZM248.621 203.761C248.621 203.444 248.832 203.233 249.149 203.233C249.466 203.233 249.677 203.444 249.677 203.761C249.677 203.972 249.466 204.289 249.149 204.289C248.832 204.289 248.621 203.972 248.621 203.761ZM242.285 203.761C242.285 203.444 242.496 203.233 242.813 203.233C243.024 203.233 243.341 203.444 243.341 203.761C243.341 203.972 243.024 204.289 242.813 204.289C242.496 204.289 242.285 203.972 242.285 203.761ZM235.843 203.761C235.843 203.444 236.054 203.233 236.371 203.233C236.688 203.233 236.899 203.444 236.899 203.761C236.899 203.972 236.688 204.289 236.371 204.289C236.054 204.289 235.843 203.972 235.843 203.761Z" fill="#E0E0E0"/>
<path d="M319.478 204.289C319.337 204.289 319.197 204.219 319.056 204.078C318.985 204.007 318.95 203.972 318.95 203.972C318.95 203.902 318.95 203.831 318.95 203.761C318.95 203.69 318.95 203.62 318.95 203.55C318.95 203.479 318.985 203.409 319.056 203.338C319.126 203.268 319.197 203.233 319.267 203.233C319.408 203.162 319.513 203.162 319.584 203.233C319.654 203.233 319.725 203.268 319.795 203.338C319.865 203.409 319.901 203.479 319.901 203.55C319.971 203.62 320.006 203.69 320.006 203.761C320.006 203.902 319.936 204.007 319.795 204.078C319.725 204.219 319.619 204.289 319.478 204.289V204.289Z" fill="#E0E0E0"/>
<path d="M318.95 197.106C318.95 196.789 319.161 196.578 319.478 196.578C319.689 196.578 320.006 196.789 320.006 197.106C320.006 197.317 319.689 197.634 319.478 197.634C319.161 197.634 318.95 197.317 318.95 197.106ZM318.95 190.346C318.95 190.135 319.161 189.818 319.478 189.818C319.689 189.818 320.006 190.135 320.006 190.346C320.006 190.663 319.689 190.874 319.478 190.874C319.161 190.874 318.95 190.663 318.95 190.346ZM318.95 183.691C318.95 183.48 319.161 183.163 319.478 183.163C319.689 183.163 320.006 183.48 320.006 183.691C320.006 184.008 319.689 184.219 319.478 184.219C319.161 184.219 318.95 184.008 318.95 183.691ZM318.95 177.036C318.95 176.72 319.161 176.508 319.478 176.508C319.689 176.508 320.006 176.72 320.006 177.036C320.006 177.353 319.689 177.565 319.478 177.565C319.161 177.565 318.95 177.353 318.95 177.036Z" fill="#E0E0E0"/>
<path d="M319.478 170.91C319.337 170.91 319.197 170.875 319.056 170.804C318.985 170.734 318.95 170.663 318.95 170.593C318.95 170.523 318.95 170.452 318.95 170.382C318.95 170.311 318.95 170.241 318.95 170.171C318.95 170.1 318.985 170.065 319.056 170.065C319.126 169.994 319.197 169.924 319.267 169.854C319.408 169.854 319.513 169.854 319.584 169.854C319.654 169.924 319.725 169.994 319.795 170.065C319.865 170.065 319.901 170.1 319.901 170.171C319.971 170.241 320.006 170.311 320.006 170.382C320.006 170.523 319.936 170.663 319.795 170.804C319.725 170.875 319.619 170.91 319.478 170.91V170.91Z" fill="#E0E0E0"/>
<path d="M381.782 287.737C381.642 287.737 381.501 287.666 381.36 287.526C381.29 287.455 381.254 287.349 381.254 287.209C381.254 287.068 381.29 286.927 381.36 286.786C381.571 286.68 381.782 286.575 381.994 286.68C382.064 286.68 382.099 286.716 382.099 286.786C382.17 286.857 382.205 286.927 382.205 286.997C382.275 287.068 382.31 287.138 382.31 287.209C382.31 287.349 382.24 287.455 382.099 287.526C382.029 287.666 381.923 287.737 381.782 287.737V287.737Z" fill="#E0E0E0"/>
<path d="M381.254 323.651C381.254 323.44 381.466 323.123 381.782 323.123C381.994 323.123 382.31 323.44 382.31 323.651C382.31 323.968 381.994 324.179 381.782 324.179C381.466 324.179 381.254 323.968 381.254 323.651ZM381.254 317.63C381.254 317.313 381.466 317.102 381.782 317.102C381.994 317.102 382.31 317.313 382.31 317.63C382.31 317.841 381.994 318.158 381.782 318.158C381.466 318.158 381.254 317.841 381.254 317.63ZM381.254 311.503C381.254 311.187 381.466 310.975 381.782 310.975C381.994 310.975 382.31 311.187 382.31 311.503C382.31 311.82 381.994 312.032 381.782 312.032C381.466 312.032 381.254 311.82 381.254 311.503ZM381.254 305.377C381.254 305.166 381.466 304.849 381.782 304.849C381.994 304.849 382.31 305.166 382.31 305.377C382.31 305.694 381.994 305.905 381.782 305.905C381.466 305.905 381.254 305.694 381.254 305.377ZM381.254 299.356C381.254 299.039 381.466 298.828 381.782 298.828C381.994 298.828 382.31 299.039 382.31 299.356C382.31 299.673 381.994 299.884 381.782 299.884C381.466 299.884 381.254 299.673 381.254 299.356ZM381.254 293.229C381.254 292.913 381.466 292.701 381.782 292.701C381.994 292.701 382.31 292.913 382.31 293.229C382.31 293.546 381.994 293.758 381.782 293.758C381.466 293.758 381.254 293.546 381.254 293.229Z" fill="#E0E0E0"/>
<path d="M381.782 330.306C381.642 330.306 381.501 330.235 381.36 330.094C381.29 330.024 381.254 329.918 381.254 329.778C381.254 329.707 381.254 329.637 381.254 329.566C381.325 329.496 381.36 329.425 381.36 329.355C381.571 329.249 381.888 329.249 382.099 329.355C382.24 329.496 382.31 329.637 382.31 329.778C382.31 329.848 382.275 329.918 382.205 329.989C382.205 330.059 382.17 330.094 382.099 330.094C382.099 330.165 382.064 330.235 381.994 330.306C381.923 330.306 381.853 330.306 381.782 330.306V330.306Z" fill="#E0E0E0"/>
<path d="M374.918 329.777C374.918 329.461 375.13 329.249 375.446 329.249C375.763 329.249 375.974 329.461 375.974 329.777C375.974 330.094 375.763 330.306 375.446 330.306C375.13 330.306 374.918 330.094 374.918 329.777ZM368.582 329.777C368.582 329.461 368.794 329.249 369.11 329.249C369.427 329.249 369.638 329.461 369.638 329.777C369.638 330.094 369.427 330.306 369.11 330.306C368.794 330.306 368.582 330.094 368.582 329.777ZM362.246 329.777C362.246 329.461 362.458 329.249 362.774 329.249C363.091 329.249 363.302 329.461 363.302 329.777C363.302 330.094 363.091 330.306 362.774 330.306C362.458 330.306 362.246 330.094 362.246 329.777ZM355.91 329.777C355.91 329.461 356.122 329.249 356.438 329.249C356.755 329.249 356.966 329.461 356.966 329.777C356.966 330.094 356.755 330.306 356.438 330.306C356.122 330.306 355.91 330.094 355.91 329.777ZM349.574 329.777C349.574 329.461 349.891 329.249 350.102 329.249C350.419 329.249 350.63 329.461 350.63 329.777C350.63 330.094 350.419 330.306 350.102 330.306C349.891 330.306 349.574 330.094 349.574 329.777ZM343.238 329.777C343.238 329.461 343.555 329.249 343.766 329.249C344.083 329.249 344.294 329.461 344.294 329.777C344.294 330.094 344.083 330.306 343.766 330.306C343.555 330.306 343.238 330.094 343.238 329.777ZM337.008 329.777C337.008 329.461 337.219 329.249 337.536 329.249C337.747 329.249 338.064 329.461 338.064 329.777C338.064 330.094 337.747 330.306 337.536 330.306C337.219 330.306 337.008 330.094 337.008 329.777ZM330.672 329.777C330.672 329.461 330.883 329.249 331.2 329.249C331.411 329.249 331.728 329.461 331.728 329.777C331.728 330.094 331.411 330.306 331.2 330.306C330.883 330.306 330.672 330.094 330.672 329.777ZM324.336 329.777C324.336 329.461 324.547 329.249 324.864 329.249C325.181 329.249 325.392 329.461 325.392 329.777C325.392 330.094 325.181 330.306 324.864 330.306C324.547 330.306 324.336 330.094 324.336 329.777ZM318 329.777C318 329.461 318.211 329.249 318.528 329.249C318.845 329.249 319.056 329.461 319.056 329.777C319.056 330.094 318.845 330.306 318.528 330.306C318.211 330.306 318 330.094 318 329.777ZM311.664 329.777C311.664 329.461 311.875 329.249 312.192 329.249C312.509 329.249 312.72 329.461 312.72 329.777C312.72 330.094 312.509 330.306 312.192 330.306C311.875 330.306 311.664 330.094 311.664 329.777ZM305.328 329.777C305.328 329.461 305.539 329.249 305.856 329.249C306.173 329.249 306.384 329.461 306.384 329.777C306.384 330.094 306.173 330.306 305.856 330.306C305.539 330.306 305.328 330.094 305.328 329.777ZM298.992 329.777C298.992 329.461 299.309 329.249 299.52 329.249C299.837 329.249 300.048 329.461 300.048 329.777C300.048 330.094 299.837 330.306 299.52 330.306C299.309 330.306 298.992 330.094 298.992 329.777ZM292.656 329.777C292.656 329.461 292.973 329.249 293.184 329.249C293.501 329.249 293.712 329.461 293.712 329.777C293.712 330.094 293.501 330.306 293.184 330.306C292.973 330.306 292.656 330.094 292.656 329.777ZM286.426 329.777C286.426 329.461 286.637 329.249 286.954 329.249C287.165 329.249 287.482 329.461 287.482 329.777C287.482 330.094 287.165 330.306 286.954 330.306C286.637 330.306 286.426 330.094 286.426 329.777ZM280.09 329.777C280.09 329.461 280.301 329.249 280.618 329.249C280.934 329.249 281.146 329.461 281.146 329.777C281.146 330.094 280.934 330.306 280.618 330.306C280.301 330.306 280.09 330.094 280.09 329.777ZM273.754 329.777C273.754 329.461 273.965 329.249 274.282 329.249C274.598 329.249 274.81 329.461 274.81 329.777C274.81 330.094 274.598 330.306 274.282 330.306C273.965 330.306 273.754 330.094 273.754 329.777ZM267.418 329.777C267.418 329.461 267.629 329.249 267.946 329.249C268.262 329.249 268.474 329.461 268.474 329.777C268.474 330.094 268.262 330.306 267.946 330.306C267.629 330.306 267.418 330.094 267.418 329.777ZM261.082 329.777C261.082 329.461 261.293 329.249 261.61 329.249C261.926 329.249 262.138 329.461 262.138 329.777C262.138 330.094 261.926 330.306 261.61 330.306C261.293 330.306 261.082 330.094 261.082 329.777ZM254.746 329.777C254.746 329.461 255.062 329.249 255.274 329.249C255.59 329.249 255.802 329.461 255.802 329.777C255.802 330.094 255.59 330.306 255.274 330.306C255.062 330.306 254.746 330.094 254.746 329.777ZM248.41 329.777C248.41 329.461 248.726 329.249 248.938 329.249C249.254 329.249 249.466 329.461 249.466 329.777C249.466 330.094 249.254 330.306 248.938 330.306C248.726 330.306 248.41 330.094 248.41 329.777ZM242.074 329.777C242.074 329.461 242.39 329.249 242.602 329.249C242.918 329.249 243.13 329.461 243.13 329.777C243.13 330.094 242.918 330.306 242.602 330.306C242.39 330.306 242.074 330.094 242.074 329.777ZM235.843 329.777C235.843 329.461 236.054 329.249 236.371 329.249C236.582 329.249 236.899 329.461 236.899 329.777C236.899 330.094 236.582 330.306 236.371 330.306C236.054 330.306 235.843 330.094 235.843 329.777Z" fill="#E0E0E0"/>
<path d="M230.035 330.306C229.965 330.306 229.895 330.306 229.824 330.306C229.754 330.235 229.683 330.165 229.613 330.094C229.613 330.094 229.578 330.059 229.507 329.989C229.507 329.918 229.507 329.848 229.507 329.777C229.507 329.707 229.507 329.637 229.507 329.566C229.578 329.496 229.613 329.425 229.613 329.355C229.683 329.355 229.754 329.32 229.824 329.249C229.965 329.249 230.106 329.249 230.247 329.249C230.317 329.32 230.352 329.355 230.352 329.355C230.423 329.425 230.458 329.496 230.458 329.566C230.528 329.637 230.563 329.707 230.563 329.777C230.563 329.848 230.528 329.918 230.458 329.989C230.458 330.059 230.423 330.094 230.352 330.094C230.352 330.165 230.317 330.235 230.247 330.306C230.176 330.306 230.106 330.306 230.035 330.306V330.306Z" fill="#E0E0E0"/>
<path d="M229.507 323.017C229.507 322.7 229.719 322.489 230.035 322.489C230.247 322.489 230.563 322.7 230.563 323.017C230.563 323.334 230.247 323.545 230.035 323.545C229.719 323.545 229.507 323.334 229.507 323.017ZM229.507 316.257C229.507 315.94 229.719 315.729 230.035 315.729C230.247 315.729 230.563 315.94 230.563 316.257C230.563 316.574 230.247 316.785 230.035 316.785C229.719 316.785 229.507 316.574 229.507 316.257ZM229.507 309.496C229.507 309.18 229.719 308.968 230.035 308.968C230.247 308.968 230.563 309.18 230.563 309.496C230.563 309.813 230.247 310.025 230.035 310.025C229.719 310.025 229.507 309.813 229.507 309.496ZM229.507 302.736C229.507 302.419 229.719 302.208 230.035 302.208C230.247 302.208 230.563 302.419 230.563 302.736C230.563 303.053 230.247 303.264 230.035 303.264C229.719 303.264 229.507 303.053 229.507 302.736Z" fill="#E0E0E0"/>
<path d="M230.035 296.504C229.965 296.504 229.895 296.504 229.824 296.504C229.754 296.434 229.683 296.363 229.613 296.293C229.613 296.293 229.578 296.258 229.507 296.187C229.507 296.117 229.507 296.046 229.507 295.976C229.507 295.835 229.543 295.694 229.613 295.553C229.683 295.553 229.754 295.518 229.824 295.448C229.965 295.448 230.106 295.448 230.247 295.448C230.317 295.518 230.352 295.553 230.352 295.553C230.493 295.694 230.563 295.835 230.563 295.976C230.563 296.046 230.528 296.117 230.458 296.187C230.458 296.258 230.423 296.293 230.352 296.293C230.352 296.363 230.317 296.434 230.247 296.504C230.176 296.504 230.106 296.504 230.035 296.504V296.504Z" fill="#E0E0E0"/>
<path d="M230.035 170.91C229.965 170.91 229.895 170.91 229.824 170.91C229.754 170.84 229.683 170.804 229.613 170.804C229.613 170.734 229.578 170.663 229.507 170.593C229.507 170.523 229.507 170.452 229.507 170.382C229.507 170.311 229.507 170.241 229.507 170.171C229.578 170.1 229.613 170.065 229.613 170.065C229.683 169.994 229.754 169.924 229.824 169.854C229.965 169.854 230.106 169.854 230.247 169.854C230.317 169.924 230.352 169.994 230.352 170.065C230.423 170.065 230.458 170.1 230.458 170.171C230.528 170.241 230.563 170.311 230.563 170.382C230.563 170.523 230.493 170.663 230.352 170.804C230.352 170.804 230.317 170.84 230.247 170.91C230.176 170.91 230.106 170.91 230.035 170.91V170.91Z" fill="#E0E0E0"/>
<path d="M229.507 197.106C229.507 196.789 229.719 196.472 230.035 196.472C230.247 196.472 230.563 196.789 230.563 197.106C230.563 197.317 230.247 197.634 230.035 197.634C229.719 197.634 229.507 197.317 229.507 197.106ZM229.507 190.346C229.507 190.135 229.719 189.818 230.035 189.818C230.247 189.818 230.563 190.135 230.563 190.346C230.563 190.663 230.247 190.874 230.035 190.874C229.719 190.874 229.507 190.663 229.507 190.346ZM229.507 183.691C229.507 183.48 229.719 183.163 230.035 183.163C230.247 183.163 230.563 183.48 230.563 183.691C230.563 184.008 230.247 184.219 230.035 184.219C229.719 184.219 229.507 184.008 229.507 183.691ZM229.507 177.036C229.507 176.72 229.719 176.508 230.035 176.508C230.247 176.508 230.563 176.72 230.563 177.036C230.563 177.353 230.247 177.565 230.035 177.565C229.719 177.565 229.507 177.353 229.507 177.036Z" fill="#E0E0E0"/>
<path d="M230.035 204.289C229.965 204.289 229.895 204.254 229.824 204.183C229.754 204.183 229.683 204.148 229.613 204.078C229.613 204.007 229.578 203.972 229.507 203.972C229.507 203.902 229.507 203.831 229.507 203.761C229.507 203.62 229.543 203.479 229.613 203.338C229.683 203.268 229.754 203.233 229.824 203.233C229.965 203.162 230.106 203.162 230.247 203.233C230.317 203.233 230.352 203.268 230.352 203.338C230.493 203.479 230.563 203.62 230.563 203.761C230.563 203.831 230.528 203.902 230.458 203.972C230.458 203.972 230.423 204.007 230.352 204.078C230.352 204.148 230.317 204.183 230.247 204.183C230.176 204.254 230.106 204.289 230.035 204.289V204.289Z" fill="#E0E0E0"/>
<path d="M105.427 243.161C102.47 170.91 200.678 137.636 274.915 131.087C376.502 122.109 416.63 180.417 410.4 230.485C406.07 265.343 384 318.264 293.606 329.883C169.737 345.833 108.595 322.595 105.427 243.161V243.161Z" fill="#FC8019"/>
<path opacity="0.9" d="M105.427 243.161C102.47 170.91 200.678 137.636 274.915 131.087C376.502 122.109 416.63 180.417 410.4 230.485C406.07 265.343 384 318.264 293.606 329.883C169.737 345.833 108.595 322.595 105.427 243.161V243.161Z" fill="white"/>
<path d="M118.627 330.306L120.739 294.075C120.845 291.962 122.64 290.272 124.752 290.272H183.465C185.577 290.272 187.161 291.962 187.056 294.075L184.944 330.306C184.838 332.418 183.043 334.108 180.931 334.108H122.217C120.105 334.108 118.521 332.418 118.627 330.306V330.306Z" fill="#FC8019"/>
<path d="M115.671 330.306L117.783 294.075C117.888 291.962 119.683 290.272 121.795 290.272H182.832C184.944 290.272 186.528 291.962 186.422 294.075L184.31 330.306C184.205 332.418 182.41 334.108 180.298 334.108H119.261C117.149 334.108 115.565 332.418 115.671 330.306V330.306Z" fill="white"/>
<path opacity="0.3" d="M115.671 330.306L117.783 294.075C117.888 291.962 119.683 290.272 121.795 290.272H182.832C184.944 290.272 186.528 291.962 186.422 294.075L184.31 330.306C184.205 332.418 182.41 334.108 180.298 334.108H119.261C117.149 334.108 115.565 332.418 115.671 330.306V330.306Z" fill="#FC8019"/>
<path d="M140.698 341.925V341.397C140.698 339.284 142.387 337.594 144.499 337.594H166.57C168.682 337.594 170.477 339.284 170.477 341.397V341.925C170.477 344.038 168.682 345.728 166.57 345.728H144.499C142.387 345.728 140.698 344.038 140.698 341.925Z" fill="#FC8019"/>
<g opacity="0.6">
<path opacity="0.6" d="M140.698 341.925V341.397C140.698 339.284 142.387 337.594 144.499 337.594H166.57C168.682 337.594 170.477 339.284 170.477 341.397V341.925C170.477 344.038 168.682 345.728 166.57 345.728H144.499C142.387 345.728 140.698 344.038 140.698 341.925Z" fill="white"/>
</g>
<path d="M131.616 341.925V341.397C131.616 339.284 133.411 337.594 135.523 337.594H159.917C162.029 337.594 163.718 339.284 163.718 341.397V341.925C163.718 344.038 162.029 345.728 159.917 345.728H135.523C133.411 345.728 131.616 344.038 131.616 341.925Z" fill="white"/>
<path opacity="0.3" d="M131.616 341.925V341.397C131.616 339.284 133.411 337.594 135.523 337.594H159.917C162.029 337.594 163.718 339.284 163.718 341.397V341.925C163.718 344.038 162.029 345.728 159.917 345.728H135.523C133.411 345.728 131.616 344.038 131.616 341.925Z" fill="#FC8019"/>
<path opacity="0.9" d="M181.142 332.207H118.627C117.677 332.207 116.938 331.468 117.043 330.623L119.155 293.863C119.155 292.913 120 292.173 120.95 292.173H183.466C184.416 292.173 185.05 292.913 185.05 293.863L182.938 330.623C182.938 331.468 182.093 332.207 181.142 332.207Z" fill="white"/>
<path opacity="0.1" d="M136.685 332.207H124.224L135.629 292.173H147.984L136.685 332.207Z" fill="#FC8019"/>
<path opacity="0.1" d="M146.822 332.207H138.163L149.568 292.173H158.227L146.822 332.207Z" fill="#FC8019"/>
<path opacity="0.1" d="M165.725 332.207H157.065L168.47 292.173H177.129L165.725 332.207Z" fill="#FC8019"/>
<path d="M219.686 330.306L221.798 294.075C221.904 291.962 223.699 290.272 225.811 290.272H284.525C286.637 290.272 288.221 291.962 288.115 294.075L286.003 330.306C285.897 332.418 284.102 334.108 281.99 334.108H223.277C221.165 334.108 219.581 332.418 219.686 330.306Z" fill="#FC8019"/>
<path d="M216.73 330.306L218.842 294.075C218.947 291.962 220.742 290.272 222.854 290.272H283.891C286.003 290.272 287.587 291.962 287.482 294.075L285.475 330.306C285.264 332.418 283.469 334.108 281.357 334.108H220.32C218.208 334.108 216.624 332.418 216.73 330.306V330.306Z" fill="white"/>
<path opacity="0.3" d="M216.73 330.306L218.842 294.075C218.947 291.962 220.742 290.272 222.854 290.272H283.891C286.003 290.272 287.587 291.962 287.482 294.075L285.475 330.306C285.264 332.418 283.469 334.108 281.357 334.108H220.32C218.208 334.108 216.624 332.418 216.73 330.306V330.306Z" fill="#FC8019"/>
<path d="M241.757 341.925V341.397C241.757 339.284 243.552 337.594 245.664 337.594H267.734C269.846 337.594 271.536 339.284 271.536 341.397V341.925C271.536 344.038 269.846 345.728 267.734 345.728H245.664C243.552 345.728 241.757 344.038 241.757 341.925Z" fill="#FC8019"/>
<g opacity="0.6">
<path opacity="0.6" d="M241.757 341.925V341.397C241.757 339.284 243.552 337.594 245.664 337.594H267.734C269.846 337.594 271.536 339.284 271.536 341.397V341.925C271.536 344.038 269.846 345.728 267.734 345.728H245.664C243.552 345.728 241.757 344.038 241.757 341.925Z" fill="white"/>
</g>
<path d="M232.675 341.925V341.397C232.675 339.284 234.47 337.594 236.582 337.594H260.976C263.088 337.594 264.778 339.284 264.778 341.397V341.925C264.778 344.038 263.088 345.728 260.976 345.728H236.582C234.47 345.728 232.675 344.038 232.675 341.925V341.925Z" fill="white"/>
<path opacity="0.3" d="M232.675 341.925V341.397C232.675 339.284 234.47 337.594 236.582 337.594H260.976C263.088 337.594 264.778 339.284 264.778 341.397V341.925C264.778 344.038 263.088 345.728 260.976 345.728H236.582C234.47 345.728 232.675 344.038 232.675 341.925V341.925Z" fill="#FC8019"/>
<path opacity="0.9" d="M282.202 332.207H219.687C218.736 332.207 218.103 331.468 218.103 330.623L220.215 293.863C220.32 292.913 221.059 292.173 222.01 292.173H284.525C285.475 292.173 286.215 292.913 286.109 293.863L283.997 330.623C283.997 331.468 283.152 332.207 282.202 332.207Z" fill="white"/>
<path opacity="0.1" d="M237.744 332.207H225.283L236.688 292.173H249.149L237.744 332.207Z" fill="#FC8019"/>
<path opacity="0.1" d="M247.881 332.207H239.222L250.627 292.173H259.286L247.881 332.207Z" fill="#FC8019"/>
<path opacity="0.1" d="M266.889 332.207H258.125L269.529 292.173H278.189L266.889 332.207Z" fill="#FC8019"/>
<path d="M320.746 330.306L322.858 294.075C322.963 291.962 324.758 290.272 326.87 290.272H385.584C387.696 290.272 389.28 291.962 389.175 294.075L387.063 330.306C386.957 332.418 385.162 334.108 383.05 334.108H324.442C322.224 334.108 320.64 332.418 320.746 330.306Z" fill="#FC8019"/>
<path d="M317.789 330.306L319.901 294.075C320.006 291.962 321.801 290.272 323.913 290.272H384.95C387.062 290.272 388.646 291.962 388.541 294.075L386.534 330.306C386.429 332.418 384.528 334.108 382.416 334.108H321.379C319.267 334.108 317.683 332.418 317.789 330.306V330.306Z" fill="white"/>
<path opacity="0.3" d="M317.789 330.306L319.901 294.075C320.006 291.962 321.801 290.272 323.913 290.272H384.95C387.062 290.272 388.646 291.962 388.541 294.075L386.534 330.306C386.429 332.418 384.528 334.108 382.416 334.108H321.379C319.267 334.108 317.683 332.418 317.789 330.306V330.306Z" fill="#FC8019"/>
<path d="M342.816 341.925V341.397C342.816 339.284 344.611 337.594 346.723 337.594H368.793C370.905 337.594 372.595 339.284 372.595 341.397V341.925C372.595 344.038 370.905 345.728 368.793 345.728H346.723C344.611 345.728 342.816 344.038 342.816 341.925Z" fill="#FC8019"/>
<g opacity="0.6">
<path opacity="0.6" d="M342.816 341.925V341.397C342.816 339.284 344.611 337.594 346.723 337.594H368.793C370.905 337.594 372.595 339.284 372.595 341.397V341.925C372.595 344.038 370.905 345.728 368.793 345.728H346.723C344.611 345.728 342.816 344.038 342.816 341.925Z" fill="white"/>
</g>
<path d="M333.84 341.925V341.397C333.84 339.284 335.529 337.594 337.641 337.594H362.035C364.147 337.594 365.837 339.284 365.837 341.397V341.925C365.837 344.038 364.147 345.728 362.035 345.728H337.641C335.529 345.728 333.84 344.038 333.84 341.925Z" fill="white"/>
<path opacity="0.3" d="M333.84 341.925V341.397C333.84 339.284 335.529 337.594 337.641 337.594H362.035C364.147 337.594 365.837 339.284 365.837 341.397V341.925C365.837 344.038 364.147 345.728 362.035 345.728H337.641C335.529 345.728 333.84 344.038 333.84 341.925Z" fill="#FC8019"/>
<path opacity="0.9" d="M383.261 332.207H320.746C319.795 332.207 319.162 331.468 319.162 330.623L321.274 293.863C321.379 292.913 322.118 292.173 323.069 292.173H385.584C386.534 292.173 387.274 292.913 387.168 293.863L385.056 330.623C385.056 331.468 384.211 332.207 383.261 332.207Z" fill="white"/>
<path opacity="0.1" d="M338.803 332.207H326.342L337.747 292.173H350.208L338.803 332.207Z" fill="#FC8019"/>
<path opacity="0.1" d="M348.941 332.207H340.282L351.687 292.173H360.346L348.941 332.207Z" fill="#FC8019"/>
<path opacity="0.1" d="M367.949 332.207H359.29L370.589 292.173H379.354L367.949 332.207Z" fill="#FC8019"/>
<path d="M150.73 283.089C150.659 283.089 150.589 283.089 150.518 283.089C150.448 283.019 150.378 282.948 150.307 282.878C150.307 282.878 150.272 282.843 150.202 282.772C150.202 282.702 150.202 282.631 150.202 282.561C150.202 282.42 150.237 282.279 150.307 282.138C150.518 282.033 150.73 282.033 150.941 282.033C151.011 282.103 151.046 282.138 151.046 282.138C151.117 282.209 151.152 282.279 151.152 282.35C151.222 282.42 151.258 282.49 151.258 282.561C151.258 282.631 151.222 282.702 151.152 282.772C151.152 282.843 151.117 282.878 151.046 282.878C151.046 282.948 151.011 283.019 150.941 283.089C150.87 283.089 150.8 283.089 150.73 283.089V283.089Z" fill="#FC8019"/>
<path d="M150.202 278.653C150.202 278.441 150.413 278.124 150.73 278.124C151.046 278.124 151.258 278.441 151.258 278.653C151.258 278.969 151.046 279.181 150.73 279.181C150.413 279.181 150.202 278.969 150.202 278.653Z" fill="#FC8019"/>
<path d="M150.73 275.378C150.589 275.378 150.448 275.308 150.307 275.167C150.307 275.167 150.272 275.132 150.202 275.061C150.202 274.991 150.202 274.92 150.202 274.85C150.202 274.709 150.237 274.568 150.307 274.427C150.518 274.322 150.73 274.216 150.941 274.322C151.011 274.322 151.046 274.357 151.046 274.427C151.117 274.498 151.152 274.568 151.152 274.639C151.222 274.709 151.258 274.779 151.258 274.85C151.258 274.92 151.222 274.991 151.152 275.061C151.152 275.132 151.117 275.167 151.046 275.167C151.046 275.237 151.011 275.272 150.941 275.272C150.87 275.343 150.8 275.378 150.73 275.378V275.378Z" fill="#FC8019"/>
<path d="M247.671 274.85C247.671 274.533 247.882 274.322 248.199 274.322C248.515 274.322 248.727 274.533 248.727 274.85C248.727 275.061 248.515 275.378 248.199 275.378C247.882 275.378 247.671 275.061 247.671 274.85ZM243.447 274.85C243.447 274.533 243.658 274.322 243.975 274.322C244.186 274.322 244.503 274.533 244.503 274.85C244.503 275.061 244.186 275.378 243.975 275.378C243.658 275.378 243.447 275.061 243.447 274.85ZM239.223 274.85C239.223 274.533 239.434 274.322 239.751 274.322C239.962 274.322 240.279 274.533 240.279 274.85C240.279 275.061 239.962 275.378 239.751 275.378C239.434 275.378 239.223 275.061 239.223 274.85ZM234.999 274.85C234.999 274.533 235.21 274.322 235.527 274.322C235.738 274.322 235.949 274.533 235.949 274.85C235.949 275.061 235.738 275.378 235.527 275.378C235.21 275.378 234.999 275.061 234.999 274.85ZM230.669 274.85C230.669 274.533 230.986 274.322 231.197 274.322C231.514 274.322 231.725 274.533 231.725 274.85C231.725 275.061 231.514 275.378 231.197 275.378C230.986 275.378 230.669 275.061 230.669 274.85ZM226.445 274.85C226.445 274.533 226.656 274.322 226.973 274.322C227.29 274.322 227.501 274.533 227.501 274.85C227.501 275.061 227.29 275.378 226.973 275.378C226.656 275.378 226.445 275.061 226.445 274.85ZM222.221 274.85C222.221 274.533 222.432 274.322 222.749 274.322C223.066 274.322 223.277 274.533 223.277 274.85C223.277 275.061 223.066 275.378 222.749 275.378C222.432 275.378 222.221 275.061 222.221 274.85ZM217.997 274.85C217.997 274.533 218.208 274.322 218.525 274.322C218.842 274.322 219.053 274.533 219.053 274.85C219.053 275.061 218.842 275.378 218.525 275.378C218.208 275.378 217.997 275.061 217.997 274.85ZM213.773 274.85C213.773 274.533 213.984 274.322 214.301 274.322C214.512 274.322 214.829 274.533 214.829 274.85C214.829 275.061 214.512 275.378 214.301 275.378C213.984 275.378 213.773 275.061 213.773 274.85ZM209.549 274.85C209.549 274.533 209.76 274.322 210.077 274.322C210.288 274.322 210.605 274.533 210.605 274.85C210.605 275.061 210.288 275.378 210.077 275.378C209.76 275.378 209.549 275.061 209.549 274.85ZM205.219 274.85C205.219 274.533 205.536 274.322 205.747 274.322C206.064 274.322 206.275 274.533 206.275 274.85C206.275 275.061 206.064 275.378 205.747 275.378C205.536 275.378 205.219 275.061 205.219 274.85ZM200.995 274.85C200.995 274.533 201.312 274.322 201.523 274.322C201.84 274.322 202.051 274.533 202.051 274.85C202.051 275.061 201.84 275.378 201.523 275.378C201.312 275.378 200.995 275.061 200.995 274.85ZM196.771 274.85C196.771 274.533 196.983 274.322 197.299 274.322C197.616 274.322 197.827 274.533 197.827 274.85C197.827 275.061 197.616 275.378 197.299 275.378C196.983 275.378 196.771 275.061 196.771 274.85ZM192.547 274.85C192.547 274.533 192.759 274.322 193.075 274.322C193.392 274.322 193.603 274.533 193.603 274.85C193.603 275.061 193.392 275.378 193.075 275.378C192.759 275.378 192.547 275.061 192.547 274.85ZM188.323 274.85C188.323 274.533 188.535 274.322 188.851 274.322C189.168 274.322 189.379 274.533 189.379 274.85C189.379 275.061 189.168 275.378 188.851 275.378C188.535 275.378 188.323 275.061 188.323 274.85ZM184.099 274.85C184.099 274.533 184.311 274.322 184.627 274.322C184.944 274.322 185.155 274.533 185.155 274.85C185.155 275.061 184.944 275.378 184.627 275.378C184.311 275.378 184.099 275.061 184.099 274.85ZM179.875 274.85C179.875 274.533 180.087 274.322 180.403 274.322C180.615 274.322 180.931 274.533 180.931 274.85C180.931 275.061 180.615 275.378 180.403 275.378C180.087 275.378 179.875 275.061 179.875 274.85ZM175.651 274.85C175.651 274.533 175.863 274.322 176.179 274.322C176.391 274.322 176.707 274.533 176.707 274.85C176.707 275.061 176.391 275.378 176.179 275.378C175.863 275.378 175.651 275.061 175.651 274.85ZM171.322 274.85C171.322 274.533 171.639 274.322 171.85 274.322C172.167 274.322 172.378 274.533 172.378 274.85C172.378 275.061 172.167 275.378 171.85 275.378C171.639 275.378 171.322 275.061 171.322 274.85ZM167.098 274.85C167.098 274.533 167.415 274.322 167.626 274.322C167.943 274.322 168.154 274.533 168.154 274.85C168.154 275.061 167.943 275.378 167.626 275.378C167.415 275.378 167.098 275.061 167.098 274.85ZM162.874 274.85C162.874 274.533 163.085 274.322 163.402 274.322C163.719 274.322 163.93 274.533 163.93 274.85C163.93 275.061 163.719 275.378 163.402 275.378C163.085 275.378 162.874 275.061 162.874 274.85ZM158.65 274.85C158.65 274.533 158.861 274.322 159.178 274.322C159.495 274.322 159.706 274.533 159.706 274.85C159.706 275.061 159.495 275.378 159.178 275.378C158.861 275.378 158.65 275.061 158.65 274.85ZM154.426 274.85C154.426 274.533 154.637 274.322 154.954 274.322C155.271 274.322 155.482 274.533 155.482 274.85C155.482 275.061 155.271 275.378 154.954 275.378C154.637 275.378 154.426 275.061 154.426 274.85Z" fill="#FC8019"/>
<path d="M252.423 275.378C252.352 275.378 252.282 275.343 252.211 275.272C252.141 275.272 252.071 275.237 252 275.167C252 275.167 251.965 275.132 251.895 275.061C251.895 274.991 251.895 274.92 251.895 274.85C251.895 274.779 251.895 274.709 251.895 274.639C251.965 274.568 252 274.498 252 274.427C252.071 274.357 252.141 274.322 252.211 274.322C252.352 274.251 252.493 274.251 252.634 274.322C252.704 274.322 252.739 274.357 252.739 274.427C252.88 274.568 252.951 274.709 252.951 274.85C252.951 274.92 252.951 274.991 252.951 275.061C252.88 275.132 252.81 275.167 252.739 275.167C252.739 275.237 252.704 275.272 252.634 275.272C252.563 275.343 252.493 275.378 252.423 275.378V275.378Z" fill="#FC8019"/>
<path d="M252.423 275.378C252.352 275.378 252.282 275.343 252.211 275.272C252.141 275.272 252.071 275.237 252 275.167C252 275.167 251.965 275.132 251.895 275.061C251.895 274.991 251.895 274.92 251.895 274.85C251.895 274.779 251.895 274.709 251.895 274.639C251.965 274.568 252 274.498 252 274.427C252.071 274.357 252.141 274.322 252.211 274.322C252.352 274.251 252.493 274.251 252.634 274.322C252.704 274.322 252.739 274.357 252.739 274.427C252.88 274.568 252.951 274.709 252.951 274.85C252.951 274.92 252.951 274.991 252.951 275.061C252.88 275.132 252.81 275.167 252.739 275.167C252.739 275.237 252.704 275.272 252.634 275.272C252.563 275.343 252.493 275.378 252.423 275.378V275.378Z" fill="#FC8019"/>
<path d="M251.895 271.153C251.895 270.836 252.106 270.625 252.423 270.625C252.739 270.625 252.951 270.836 252.951 271.153C252.951 271.47 252.739 271.681 252.423 271.681C252.106 271.681 251.895 271.47 251.895 271.153ZM251.895 267.456C251.895 267.139 252.106 266.928 252.423 266.928C252.739 266.928 252.951 267.139 252.951 267.456C252.951 267.773 252.739 267.984 252.423 267.984C252.106 267.984 251.895 267.773 251.895 267.456ZM251.895 263.864C251.895 263.547 252.106 263.336 252.423 263.336C252.739 263.336 252.951 263.547 252.951 263.864C252.951 264.076 252.739 264.392 252.423 264.392C252.106 264.392 251.895 264.076 251.895 263.864Z" fill="#FC8019"/>
<path d="M252.423 260.695C252.282 260.695 252.141 260.625 252 260.484C252 260.484 251.965 260.449 251.895 260.379C251.895 260.308 251.895 260.238 251.895 260.167C251.895 260.097 251.895 260.026 251.895 259.956C251.965 259.886 252 259.815 252 259.745C252.071 259.745 252.141 259.71 252.211 259.639C252.352 259.569 252.493 259.569 252.634 259.639C252.704 259.71 252.739 259.745 252.739 259.745C252.81 259.815 252.88 259.886 252.951 259.956C252.951 260.026 252.951 260.097 252.951 260.167C252.951 260.238 252.951 260.308 252.951 260.379C252.88 260.449 252.81 260.484 252.739 260.484C252.669 260.625 252.563 260.695 252.423 260.695V260.695Z" fill="#FC8019"/>
<path d="M252.423 275.378C252.352 275.378 252.282 275.343 252.211 275.272C252.141 275.272 252.071 275.237 252 275.167C252 275.167 251.965 275.132 251.895 275.061C251.895 274.991 251.895 274.92 251.895 274.85C251.895 274.779 251.895 274.709 251.895 274.639C251.965 274.568 252 274.498 252 274.427C252.071 274.357 252.141 274.322 252.211 274.322C252.352 274.251 252.493 274.251 252.634 274.322C252.704 274.322 252.739 274.357 252.739 274.427C252.88 274.568 252.951 274.709 252.951 274.85C252.951 274.92 252.951 274.991 252.951 275.061C252.88 275.132 252.81 275.167 252.739 275.167C252.739 275.237 252.704 275.272 252.634 275.272C252.563 275.343 252.493 275.378 252.423 275.378V275.378Z" fill="#FC8019"/>
<path d="M251.895 278.653C251.895 278.441 252.106 278.124 252.423 278.124C252.739 278.124 252.951 278.441 252.951 278.653C252.951 278.969 252.739 279.181 252.423 279.181C252.106 279.181 251.895 278.969 251.895 278.653Z" fill="#FC8019"/>
<path d="M252.423 283.089C252.282 283.089 252.141 283.019 252 282.878C252 282.878 251.965 282.843 251.895 282.772C251.895 282.702 251.895 282.631 251.895 282.561C251.895 282.49 251.895 282.42 251.895 282.35C251.965 282.279 252 282.209 252 282.138C252.211 282.033 252.634 281.927 252.739 282.138C252.81 282.209 252.88 282.279 252.951 282.35C252.951 282.42 252.951 282.49 252.951 282.561C252.951 282.631 252.951 282.702 252.951 282.772C252.88 282.843 252.81 282.878 252.739 282.878C252.669 283.019 252.563 283.089 252.423 283.089V283.089Z" fill="#FC8019"/>
<path d="M354.115 283.089C353.975 283.089 353.869 283.019 353.799 282.878C353.658 282.807 353.587 282.702 353.587 282.561C353.587 282.42 353.658 282.279 353.799 282.138C353.904 282.033 354.327 281.927 354.538 282.138C354.538 282.209 354.573 282.279 354.643 282.35C354.643 282.42 354.643 282.49 354.643 282.561C354.643 282.702 354.608 282.807 354.538 282.878C354.397 283.019 354.256 283.089 354.115 283.089V283.089Z" fill="#FC8019"/>
<path d="M353.587 278.653C353.587 278.441 353.799 278.124 354.115 278.124C354.432 278.124 354.643 278.441 354.643 278.653C354.643 278.969 354.432 279.181 354.115 279.181C353.799 279.181 353.587 278.969 353.587 278.653Z" fill="#FC8019"/>
<path d="M354.115 275.378C353.975 275.378 353.869 275.308 353.799 275.167C353.658 275.096 353.587 274.991 353.587 274.85C353.587 274.709 353.658 274.568 353.799 274.427C353.904 274.216 354.327 274.216 354.538 274.427C354.608 274.568 354.643 274.709 354.643 274.85C354.643 274.991 354.608 275.096 354.538 275.167C354.397 275.308 354.256 275.378 354.115 275.378Z" fill="#FC8019"/>
<path d="M349.363 274.85C349.363 274.533 349.574 274.322 349.891 274.322C350.208 274.322 350.419 274.533 350.419 274.85C350.419 275.061 350.208 275.378 349.891 275.378C349.574 275.378 349.363 275.061 349.363 274.85ZM345.139 274.85C345.139 274.533 345.35 274.322 345.667 274.322C345.984 274.322 346.195 274.533 346.195 274.85C346.195 275.061 345.984 275.378 345.667 275.378C345.35 275.378 345.139 275.061 345.139 274.85ZM340.915 274.85C340.915 274.533 341.126 274.322 341.443 274.322C341.76 274.322 341.971 274.533 341.971 274.85C341.971 275.061 341.76 275.378 341.443 275.378C341.126 275.378 340.915 275.061 340.915 274.85ZM336.691 274.85C336.691 274.533 336.902 274.322 337.219 274.322C337.43 274.322 337.747 274.533 337.747 274.85C337.747 275.061 337.43 275.378 337.219 275.378C336.902 275.378 336.691 275.061 336.691 274.85ZM332.361 274.85C332.361 274.533 332.678 274.322 332.889 274.322C333.206 274.322 333.523 274.533 333.523 274.85C333.523 275.061 333.206 275.378 332.889 275.378C332.678 275.378 332.361 275.061 332.361 274.85ZM328.137 274.85C328.137 274.533 328.454 274.322 328.665 274.322C328.982 274.322 329.193 274.533 329.193 274.85C329.193 275.061 328.982 275.378 328.665 275.378C328.454 275.378 328.137 275.061 328.137 274.85ZM323.913 274.85C323.913 274.533 324.23 274.322 324.441 274.322C324.758 274.322 324.969 274.533 324.969 274.85C324.969 275.061 324.758 275.378 324.441 275.378C324.23 275.378 323.913 275.061 323.913 274.85ZM319.689 274.85C319.689 274.533 319.901 274.322 320.217 274.322C320.534 274.322 320.745 274.533 320.745 274.85C320.745 275.061 320.534 275.378 320.217 275.378C319.901 275.378 319.689 275.061 319.689 274.85ZM315.465 274.85C315.465 274.533 315.677 274.322 315.993 274.322C316.31 274.322 316.521 274.533 316.521 274.85C316.521 275.061 316.31 275.378 315.993 275.378C315.677 275.378 315.465 275.061 315.465 274.85ZM311.241 274.85C311.241 274.533 311.453 274.322 311.769 274.322C312.086 274.322 312.297 274.533 312.297 274.85C312.297 275.061 312.086 275.378 311.769 275.378C311.453 275.378 311.241 275.061 311.241 274.85ZM307.017 274.85C307.017 274.533 307.229 274.322 307.545 274.322C307.862 274.322 308.073 274.533 308.073 274.85C308.073 275.061 307.862 275.378 307.545 275.378C307.229 275.378 307.017 275.061 307.017 274.85ZM302.793 274.85C302.793 274.533 303.005 274.322 303.321 274.322C303.533 274.322 303.849 274.533 303.849 274.85C303.849 275.061 303.533 275.378 303.321 275.378C303.005 275.378 302.793 275.061 302.793 274.85ZM298.464 274.85C298.464 274.533 298.781 274.322 298.992 274.322C299.309 274.322 299.52 274.533 299.52 274.85C299.52 275.061 299.309 275.378 298.992 275.378C298.781 275.378 298.464 275.061 298.464 274.85ZM294.24 274.85C294.24 274.533 294.557 274.322 294.768 274.322C295.085 274.322 295.296 274.533 295.296 274.85C295.296 275.061 295.085 275.378 294.768 275.378C294.557 275.378 294.24 275.061 294.24 274.85ZM290.016 274.85C290.016 274.533 290.227 274.322 290.544 274.322C290.861 274.322 291.072 274.533 291.072 274.85C291.072 275.061 290.861 275.378 290.544 275.378C290.227 275.378 290.016 275.061 290.016 274.85ZM285.792 274.85C285.792 274.533 286.003 274.322 286.32 274.322C286.637 274.322 286.848 274.533 286.848 274.85C286.848 275.061 286.637 275.378 286.32 275.378C286.003 275.378 285.792 275.061 285.792 274.85ZM281.568 274.85C281.568 274.533 281.779 274.322 282.096 274.322C282.413 274.322 282.624 274.533 282.624 274.85C282.624 275.061 282.413 275.378 282.096 275.378C281.779 275.378 281.568 275.061 281.568 274.85ZM277.344 274.85C277.344 274.533 277.555 274.322 277.872 274.322C278.189 274.322 278.4 274.533 278.4 274.85C278.4 275.061 278.189 275.378 277.872 275.378C277.555 275.378 277.344 275.061 277.344 274.85ZM273.12 274.85C273.12 274.533 273.331 274.322 273.648 274.322C273.859 274.322 274.176 274.533 274.176 274.85C274.176 275.061 273.859 275.378 273.648 275.378C273.331 275.378 273.12 275.061 273.12 274.85ZM268.79 274.85C268.79 274.533 269.107 274.322 269.318 274.322C269.635 274.322 269.952 274.533 269.952 274.85C269.952 275.061 269.635 275.378 269.318 275.378C269.107 275.378 268.79 275.061 268.79 274.85ZM264.566 274.85C264.566 274.533 264.883 274.322 265.094 274.322C265.411 274.322 265.622 274.533 265.622 274.85C265.622 275.061 265.411 275.378 265.094 275.378C264.883 275.378 264.566 275.061 264.566 274.85ZM260.342 274.85C260.342 274.533 260.553 274.322 260.87 274.322C261.187 274.322 261.398 274.533 261.398 274.85C261.398 275.061 261.187 275.378 260.87 275.378C260.553 275.378 260.342 275.061 260.342 274.85ZM256.118 274.85C256.118 274.533 256.329 274.322 256.646 274.322C256.963 274.322 257.174 274.533 257.174 274.85C257.174 275.061 256.963 275.378 256.646 275.378C256.329 275.378 256.118 275.061 256.118 274.85Z" fill="#FC8019"/>
<path d="M252.423 275.378C252.352 275.378 252.282 275.343 252.211 275.272C252.141 275.272 252.071 275.237 252 275.167C252 275.167 251.965 275.132 251.895 275.061C251.895 274.991 251.895 274.92 251.895 274.85C251.895 274.779 251.895 274.709 251.895 274.639C251.965 274.568 252 274.498 252 274.427C252.071 274.357 252.141 274.322 252.211 274.322C252.352 274.251 252.493 274.251 252.634 274.322C252.704 274.322 252.739 274.357 252.739 274.427C252.88 274.568 252.951 274.709 252.951 274.85C252.951 274.92 252.951 274.991 252.951 275.061C252.88 275.132 252.81 275.167 252.739 275.167C252.739 275.237 252.704 275.272 252.634 275.272C252.563 275.343 252.493 275.378 252.423 275.378V275.378Z" fill="#FC8019"/>
<path d="M443.558 207.035C443.558 232.809 422.649 253.724 396.883 253.724H187.478C151.152 253.724 121.689 224.253 121.689 187.916C121.689 152.953 148.829 124.433 183.149 122.214C186.739 106.264 195.187 92.2156 207.014 81.7582V62.3223H257.808C286.214 62.3223 310.925 77.7442 324.125 100.666H350.208C385.056 100.666 413.251 128.764 413.568 163.41C431.097 170.171 443.558 187.071 443.558 207.035V207.035Z" fill="#FC8019"/>
<path opacity="0.7" d="M443.558 207.035C443.558 232.809 422.649 253.724 396.883 253.724H187.478C151.152 253.724 121.689 224.253 121.689 187.916C121.689 152.953 148.829 124.433 183.149 122.214C186.739 106.264 195.187 92.2156 207.014 81.7582V62.3223H257.808C286.214 62.3223 310.925 77.7442 324.125 100.666H350.208C385.056 100.666 413.251 128.764 413.568 163.41C431.097 170.171 443.558 187.071 443.558 207.035V207.035Z" fill="white"/>
<path d="M392.659 207.035C392.659 232.809 371.856 253.724 346.09 253.724H136.579C100.253 253.724 70.7905 224.253 70.7905 187.916C70.7905 152.953 97.9297 124.433 132.355 122.214C139.959 87.8847 170.477 62.3223 207.015 62.3223C237.216 62.3223 263.299 79.8569 275.655 105.314C283.047 102.356 290.967 100.666 299.415 100.666C334.157 100.666 362.352 128.764 362.669 163.41C380.198 170.171 392.659 187.071 392.659 207.035V207.035Z" fill="#FC8019"/>
<path opacity="0.1" d="M443.558 207.035C443.558 232.809 422.649 253.724 396.883 253.724H187.478C151.152 253.724 121.689 224.253 121.689 187.916C121.689 152.953 148.829 124.433 183.149 122.214C190.752 87.8847 221.27 62.3223 257.808 62.3223C288.009 62.3223 314.093 79.8569 326.553 105.314C333.84 102.356 341.865 100.666 350.208 100.666C385.056 100.666 413.251 128.764 413.568 163.41C431.097 170.171 443.558 187.071 443.558 207.035V207.035Z" fill="white"/>
<path fill-rule="evenodd" clip-rule="evenodd" d="M346.09 254.675H136.579C99.7248 254.675 69.7344 224.781 69.7344 187.916C69.7344 152.953 96.8736 123.799 131.51 121.264C135.418 104.574 144.816 89.4692 158.122 78.5893C171.85 67.3925 189.274 61.266 207.014 61.266C236.477 61.266 262.982 77.6386 276.182 103.941C283.574 101.089 291.389 99.6097 299.414 99.6097C334.262 99.6097 362.986 127.919 363.619 162.671C381.677 169.854 393.715 187.6 393.715 207.035C393.715 233.337 372.278 254.675 346.09 254.675ZM207.014 63.3786C171.85 63.3786 140.909 88.2016 133.306 122.426C133.2 122.848 132.883 123.165 132.355 123.165C98.4576 125.383 71.8464 153.798 71.8464 187.916C71.8464 223.619 100.886 252.668 136.579 252.668H346.09C371.222 252.668 391.709 232.175 391.709 207.035C391.709 188.233 379.882 171.121 362.246 164.361C361.93 164.255 361.613 163.833 361.613 163.41C361.296 129.397 333.418 101.722 299.414 101.722C291.389 101.722 283.469 103.201 276.077 106.264C275.549 106.37 275.021 106.159 274.81 105.736C262.032 79.54 236.054 63.3786 207.014 63.3786V63.3786Z" fill="#FC8019"/>
<path opacity="0.7" fill-rule="evenodd" clip-rule="evenodd" d="M346.09 254.675H136.579C99.7248 254.675 69.7344 224.781 69.7344 187.916C69.7344 152.953 96.8736 123.799 131.51 121.264C135.418 104.574 144.816 89.4692 158.122 78.5893C171.85 67.3925 189.274 61.266 207.014 61.266C236.477 61.266 262.982 77.6386 276.182 103.941C283.574 101.089 291.389 99.6097 299.414 99.6097C334.262 99.6097 362.986 127.919 363.619 162.671C381.677 169.854 393.715 187.6 393.715 207.035C393.715 233.337 372.278 254.675 346.09 254.675ZM207.014 63.3786C171.85 63.3786 140.909 88.2016 133.306 122.426C133.2 122.848 132.883 123.165 132.355 123.165C98.4576 125.383 71.8464 153.798 71.8464 187.916C71.8464 223.619 100.886 252.668 136.579 252.668H346.09C371.222 252.668 391.709 232.175 391.709 207.035C391.709 188.233 379.882 171.121 362.246 164.361C361.93 164.255 361.613 163.833 361.613 163.41C361.296 129.397 333.418 101.722 299.414 101.722C291.389 101.722 283.469 103.201 276.077 106.264C275.549 106.37 275.021 106.159 274.81 105.736C262.032 79.54 236.054 63.3786 207.014 63.3786V63.3786Z" fill="white"/>
<path d="M180.297 160.347H197.088C199.728 160.347 201.734 162.46 201.734 164.995V248.02C201.734 250.555 199.728 252.668 197.088 252.668H180.297V160.347Z" fill="#E0E0E0"/>
<path d="M186.633 164.995V248.02C186.633 250.555 184.521 252.668 181.987 252.668H145.766C143.126 252.668 141.014 250.555 141.014 248.02V164.995C141.014 162.46 143.126 160.347 145.766 160.347H181.987C184.521 160.347 186.633 162.46 186.633 164.995V164.995Z" fill="white"/>
<path d="M186.633 234.394H141.014V233.549H186.633V234.394Z" fill="#E0E0E0"/>
<path d="M186.633 216.12H141.014V215.275H186.633V216.12Z" fill="#E0E0E0"/>
<path d="M186.633 197.74H141.014V196.895H186.633V197.74Z" fill="#E0E0E0"/>
<path d="M186.633 179.466H141.014V178.621H186.633V179.466Z" fill="#E0E0E0"/>
<path opacity="0.6" d="M165.513 174.396C165.513 175.452 164.774 176.191 163.824 176.191H148.512C147.561 176.191 146.822 175.452 146.822 174.396C146.822 173.445 147.561 172.706 148.512 172.706H163.824C164.774 172.706 165.513 173.445 165.513 174.396Z" fill="#FC8019"/>
<path opacity="0.6" d="M165.513 169.959C165.513 170.91 164.774 171.649 163.824 171.649H148.512C147.561 171.649 146.822 170.91 146.822 169.959C146.822 169.009 147.561 168.164 148.512 168.164H163.824C164.774 168.164 165.513 169.009 165.513 169.959Z" fill="#FC8019"/>
<path opacity="0.6" d="M165.513 165.417C165.513 166.368 164.774 167.107 163.824 167.107H148.512C147.561 167.107 146.822 166.368 146.822 165.417C146.822 164.466 147.561 163.621 148.512 163.621H163.824C164.774 163.621 165.513 164.466 165.513 165.417Z" fill="#FC8019"/>
<path d="M167.098 172.706H173.539V176.191H167.098V172.706Z" fill="#EBEBEB"/>
<path d="M167.098 168.164H173.539V171.649H167.098V168.164Z" fill="#FC8019"/>
<path d="M167.098 163.621H173.539V167.107H167.098V163.621Z" fill="#EBEBEB"/>
<path d="M174.49 172.706H180.931V176.191H174.49V172.706Z" fill="#EBEBEB"/>
<path d="M174.49 168.164H180.931V171.649H174.49V168.164Z" fill="#EBEBEB"/>
<path d="M174.49 163.621H180.931V167.107H174.49V163.621Z" fill="#FC8019"/>
<path d="M165.513 192.775C165.513 193.726 164.774 194.465 163.824 194.465H148.512C147.561 194.465 146.822 193.726 146.822 192.775C146.822 191.825 147.561 190.98 148.512 190.98H163.824C164.774 190.98 165.513 191.825 165.513 192.775Z" fill="#EBEBEB"/>
<path opacity="0.6" d="M165.513 188.233C165.513 189.184 164.774 189.923 163.824 189.923H148.512C147.561 189.923 146.822 189.184 146.822 188.233C146.822 187.283 147.561 186.438 148.512 186.438H163.824C164.774 186.438 165.513 187.283 165.513 188.233Z" fill="#FC8019"/>
<path opacity="0.6" d="M165.513 183.691C165.513 184.642 164.774 185.381 163.824 185.381H148.512C147.561 185.381 146.822 184.642 146.822 183.691C146.822 182.741 147.561 181.896 148.512 181.896H163.824C164.774 181.896 165.513 182.741 165.513 183.691Z" fill="#FC8019"/>
<path d="M167.098 190.98H173.539V194.465H167.098V190.98Z" fill="#EBEBEB"/>
<path d="M167.098 186.438H173.539V189.923H167.098V186.438Z" fill="#EBEBEB"/>
<path d="M167.098 181.896H173.539V185.381H167.098V181.896Z" fill="#FC8019"/>
<path d="M174.49 190.98H180.931V194.465H174.49V190.98Z" fill="#EBEBEB"/>
<path d="M174.49 186.438H180.931V189.923H174.49V186.438Z" fill="#EBEBEB"/>
<path d="M174.49 181.896H180.931V185.381H174.49V181.896Z" fill="#EBEBEB"/>
<path opacity="0.6" d="M165.513 211.049C165.513 212 164.774 212.739 163.824 212.739H148.512C147.561 212.739 146.822 212 146.822 211.049C146.822 210.099 147.561 209.254 148.512 209.254H163.824C164.774 209.254 165.513 210.099 165.513 211.049Z" fill="#FC8019"/>
<path opacity="0.6" d="M165.513 206.507C165.513 207.458 164.774 208.303 163.824 208.303H148.512C147.561 208.303 146.822 207.458 146.822 206.507C146.822 205.557 147.561 204.817 148.512 204.817H163.824C164.774 204.817 165.513 205.557 165.513 206.507Z" fill="#FC8019"/>
<path opacity="0.6" d="M165.513 201.965C165.513 202.916 164.774 203.761 163.824 203.761H148.512C147.561 203.761 146.822 202.916 146.822 201.965C146.822 201.014 147.561 200.275 148.512 200.275H163.824C164.774 200.275 165.513 201.014 165.513 201.965Z" fill="#FC8019"/>
<path d="M167.098 209.254H173.539V212.739H167.098V209.254Z" fill="#EBEBEB"/>
<path d="M167.098 204.817H173.539V208.303H167.098V204.817Z" fill="#FC8019"/>
<path d="M167.098 200.275H173.539V203.761H167.098V200.275Z" fill="#EBEBEB"/>
<path d="M174.49 209.254H180.931V212.739H174.49V209.254Z" fill="#EBEBEB"/>
<path d="M174.49 204.817H180.931V208.303H174.49V204.817Z" fill="#EBEBEB"/>
<path d="M174.49 200.275H180.931V203.761H174.49V200.275Z" fill="#FC8019"/>
<path opacity="0.6" d="M165.513 229.323C165.513 230.274 164.774 231.119 163.824 231.119H148.512C147.561 231.119 146.822 230.274 146.822 229.323C146.822 228.373 147.561 227.633 148.512 227.633H163.824C164.774 227.633 165.513 228.373 165.513 229.323Z" fill="#FC8019"/>
<path opacity="0.6" d="M165.513 224.781C165.513 225.732 164.774 226.577 163.824 226.577H148.512C147.561 226.577 146.822 225.732 146.822 224.781C146.822 223.831 147.561 223.091 148.512 223.091H163.824C164.774 223.091 165.513 223.831 165.513 224.781Z" fill="#FC8019"/>
<path opacity="0.6" d="M165.513 220.239C165.513 221.19 164.774 222.035 163.824 222.035H148.512C147.561 222.035 146.822 221.19 146.822 220.239C146.822 219.288 147.561 218.549 148.512 218.549H163.824C164.774 218.549 165.513 219.288 165.513 220.239Z" fill="#FC8019"/>
<path d="M167.098 227.633H173.539V231.119H167.098V227.633Z" fill="#EBEBEB"/>
<path d="M167.098 223.091H173.539V226.577H167.098V223.091Z" fill="#FC8019"/>
<path d="M167.098 218.549H173.539V222.035H167.098V218.549Z" fill="#EBEBEB"/>
<path d="M174.49 227.633H180.931V231.119H174.49V227.633Z" fill="#FC8019"/>
<path d="M174.49 223.091H180.931V226.577H174.49V223.091Z" fill="#EBEBEB"/>
<path d="M174.49 218.549H180.931V222.035H174.49V218.549Z" fill="#FC8019"/>
<path opacity="0.6" d="M165.513 247.597C165.513 248.548 164.774 249.393 163.824 249.393H148.512C147.561 249.393 146.822 248.548 146.822 247.597C146.822 246.647 147.561 245.907 148.512 245.907H163.824C164.774 245.907 165.513 246.647 165.513 247.597Z" fill="#FC8019"/>
<path opacity="0.6" d="M165.513 243.055C165.513 244.111 164.774 244.851 163.824 244.851H148.512C147.561 244.851 146.822 244.111 146.822 243.055C146.822 242.105 147.561 241.365 148.512 241.365H163.824C164.774 241.365 165.513 242.105 165.513 243.055Z" fill="#FC8019"/>
<path opacity="0.6" d="M165.513 238.619C165.513 239.569 164.774 240.309 163.824 240.309H148.512C147.561 240.309 146.822 239.569 146.822 238.619C146.822 237.562 147.561 236.823 148.512 236.823H163.824C164.774 236.823 165.513 237.562 165.513 238.619Z" fill="#FC8019"/>
<path d="M167.098 245.907H173.539V249.393H167.098V245.907Z" fill="#FC8019"/>
<path d="M167.098 241.365H173.539V244.851H167.098V241.365Z" fill="#EBEBEB"/>
<path d="M167.098 236.823H173.539V240.309H167.098V236.823Z" fill="#EBEBEB"/>
<path d="M174.49 245.907H180.931V249.393H174.49V245.907Z" fill="#EBEBEB"/>
<path d="M174.49 241.365H180.931V244.851H174.49V241.365Z" fill="#EBEBEB"/>
<path d="M174.49 236.823H180.931V240.309H174.49V236.823Z" fill="#FC8019"/>
<path d="M245.981 116.722H270.691C274.493 116.722 277.661 119.891 277.661 123.693V245.802C277.661 249.604 274.493 252.668 270.691 252.668H245.981V116.722Z" fill="#E0E0E0"/>
<path d="M255.379 123.693V245.802C255.379 249.604 252.211 252.668 248.41 252.668H195.082C191.28 252.668 188.218 249.604 188.218 245.802V123.693C188.218 119.891 191.28 116.722 195.082 116.722H248.41C252.211 116.722 255.379 119.891 255.379 123.693Z" fill="white"/>
<path d="M255.379 225.732H188.218V224.464H255.379V225.732Z" fill="#E0E0E0"/>
<path d="M255.379 198.796H188.218V197.529H255.379V198.796Z" fill="#E0E0E0"/>
<path d="M255.379 171.861H188.218V170.593H255.379V171.861Z" fill="#E0E0E0"/>
<path d="M255.379 144.925H188.218V143.657H255.379V144.925Z" fill="#E0E0E0"/>
<path opacity="0.6" d="M224.227 137.531C224.227 138.904 223.066 140.066 221.693 140.066H199.2C197.827 140.066 196.666 138.904 196.666 137.531C196.666 136.052 197.827 134.996 199.2 134.996H221.693C223.066 134.996 224.227 136.052 224.227 137.531Z" fill="#FC8019"/>
<path opacity="0.6" d="M224.227 130.876C224.227 132.249 223.066 133.411 221.693 133.411H199.2C197.827 133.411 196.666 132.249 196.666 130.876C196.666 129.397 197.827 128.235 199.2 128.235H221.693C223.066 128.235 224.227 129.397 224.227 130.876Z" fill="#FC8019"/>
<path opacity="0.6" d="M224.227 124.221C224.227 125.595 223.066 126.757 221.693 126.757H199.2C197.827 126.757 196.666 125.595 196.666 124.221C196.666 122.743 197.827 121.581 199.2 121.581H221.693C223.066 121.581 224.227 122.743 224.227 124.221Z" fill="#FC8019"/>
<path d="M226.656 134.996H235.949V140.066H226.656V134.996Z" fill="#EBEBEB"/>
<path d="M226.656 128.235H235.949V133.411H226.656V128.235Z" fill="#FC8019"/>
<path d="M226.656 121.581H235.949V126.757H226.656V121.581Z" fill="#EBEBEB"/>
<path d="M237.533 134.996H246.931V140.066H237.533V134.996Z" fill="#EBEBEB"/>
<path d="M237.533 128.235H246.931V133.411H237.533V128.235Z" fill="#EBEBEB"/>
<path d="M237.533 121.581H246.931V126.757H237.533V121.581Z" fill="#FC8019"/>
<path opacity="0.6" d="M224.227 164.466C224.227 165.84 223.066 167.002 221.693 167.002H199.2C197.827 167.002 196.666 165.84 196.666 164.466C196.666 162.988 197.827 161.826 199.2 161.826H221.693C223.066 161.826 224.227 162.988 224.227 164.466Z" fill="#FC8019"/>
<path opacity="0.6" d="M224.227 157.812C224.227 159.185 223.066 160.347 221.693 160.347H199.2C197.827 160.347 196.666 159.185 196.666 157.812C196.666 156.333 197.827 155.171 199.2 155.171H221.693C223.066 155.171 224.227 156.333 224.227 157.812Z" fill="#FC8019"/>
<path opacity="0.6" d="M224.227 151.157C224.227 152.53 223.066 153.692 221.693 153.692H199.2C197.827 153.692 196.666 152.53 196.666 151.157C196.666 149.678 197.827 148.516 199.2 148.516H221.693C223.066 148.516 224.227 149.678 224.227 151.157Z" fill="#FC8019"/>
<path d="M226.656 161.826H235.949V167.002H226.656V161.826Z" fill="#EBEBEB"/>
<path d="M226.656 155.171H235.949V160.347H226.656V155.171Z" fill="#EBEBEB"/>
<path d="M226.656 148.516H235.949V153.692H226.656V148.516Z" fill="#FC8019"/>
<path d="M237.533 161.826H246.931V167.002H237.533V161.826Z" fill="#FC8019"/>
<path d="M237.533 155.171H246.931V160.347H237.533V155.171Z" fill="#EBEBEB"/>
<path d="M237.533 148.516H246.931V153.692H237.533V148.516Z" fill="#FC8019"/>
<path opacity="0.6" d="M224.227 191.402C224.227 192.775 223.066 193.937 221.693 193.937H199.2C197.827 193.937 196.666 192.775 196.666 191.402C196.666 189.923 197.827 188.761 199.2 188.761H221.693C223.066 188.761 224.227 189.923 224.227 191.402Z" fill="#FC8019"/>
<path opacity="0.6" d="M224.227 184.747C224.227 186.121 223.066 187.283 221.693 187.283H199.2C197.827 187.283 196.666 186.121 196.666 184.747C196.666 183.269 197.827 182.107 199.2 182.107H221.693C223.066 182.107 224.227 183.269 224.227 184.747Z" fill="#FC8019"/>
<path opacity="0.6" d="M224.227 178.093C224.227 179.466 223.066 180.628 221.693 180.628H199.2C197.827 180.628 196.666 179.466 196.666 178.093C196.666 176.614 197.827 175.452 199.2 175.452H221.693C223.066 175.452 224.227 176.614 224.227 178.093Z" fill="#FC8019"/>
<path d="M226.656 188.761H235.949V193.937H226.656V188.761Z" fill="#FC8019"/>
<path d="M226.656 182.107H235.949V187.283H226.656V182.107Z" fill="#EBEBEB"/>
<path d="M226.656 175.452H235.949V180.628H226.656V175.452Z" fill="#EBEBEB"/>
<path d="M237.533 188.761H246.931V193.937H237.533V188.761Z" fill="#EBEBEB"/>
<path d="M237.533 182.107H246.931V187.283H237.533V182.107Z" fill="#EBEBEB"/>
<path d="M237.533 175.452H246.931V180.628H237.533V175.452Z" fill="#FC8019"/>
<path opacity="0.6" d="M224.227 218.338C224.227 219.711 223.066 220.873 221.693 220.873H199.2C197.827 220.873 196.666 219.711 196.666 218.338C196.666 216.859 197.827 215.697 199.2 215.697H221.693C223.066 215.697 224.227 216.859 224.227 218.338Z" fill="#FC8019"/>
<path d="M224.227 211.683C224.227 213.056 223.066 214.218 221.693 214.218H199.2C197.827 214.218 196.666 213.056 196.666 211.683C196.666 210.204 197.827 209.042 199.2 209.042H221.693C223.066 209.042 224.227 210.204 224.227 211.683Z" fill="#EBEBEB"/>
<path opacity="0.6" d="M224.227 205.028C224.227 206.402 223.066 207.564 221.693 207.564H199.2C197.827 207.564 196.666 206.402 196.666 205.028C196.666 203.55 197.827 202.388 199.2 202.388H221.693C223.066 202.388 224.227 203.55 224.227 205.028Z" fill="#FC8019"/>
<path d="M226.656 215.697H235.949V220.873H226.656V215.697Z" fill="#EBEBEB"/>
<path d="M226.656 209.042H235.949V214.218H226.656V209.042Z" fill="#FC8019"/>
<path d="M226.656 202.388H235.949V207.564H226.656V202.388Z" fill="#EBEBEB"/>
<path d="M237.533 215.697H246.931V220.873H237.533V215.697Z" fill="#FC8019"/>
<path d="M237.533 209.042H246.931V214.218H237.533V209.042Z" fill="#FC8019"/>
<path d="M237.533 202.388H246.931V207.564H237.533V202.388Z" fill="#EBEBEB"/>
<path opacity="0.6" d="M224.227 245.273C224.227 246.647 223.066 247.809 221.693 247.809H199.2C197.827 247.809 196.666 246.647 196.666 245.273C196.666 243.795 197.827 242.633 199.2 242.633H221.693C223.066 242.633 224.227 243.795 224.227 245.273Z" fill="#FC8019"/>
<path opacity="0.6" d="M224.227 238.619C224.227 239.992 223.066 241.154 221.693 241.154H199.2C197.827 241.154 196.666 239.992 196.666 238.619C196.666 237.14 197.827 235.978 199.2 235.978H221.693C223.066 235.978 224.227 237.14 224.227 238.619Z" fill="#FC8019"/>
<path opacity="0.6" d="M224.227 231.964C224.227 233.337 223.066 234.499 221.693 234.499H199.2C197.827 234.499 196.666 233.337 196.666 231.964C196.666 230.485 197.827 229.323 199.2 229.323H221.693C223.066 229.323 224.227 230.485 224.227 231.964Z" fill="#FC8019"/>
<path d="M226.656 242.633H235.949V247.809H226.656V242.633Z" fill="#EBEBEB"/>
<path d="M226.656 235.978H235.949V241.154H226.656V235.978Z" fill="#EBEBEB"/>
<path d="M226.656 229.323H235.949V234.499H226.656V229.323Z" fill="#EBEBEB"/>
<path d="M237.533 242.633H246.931V247.809H237.533V242.633Z" fill="#EBEBEB"/>
<path d="M237.533 235.978H246.931V241.154H237.533V235.978Z" fill="#EBEBEB"/>
<path d="M237.533 229.323H246.931V234.499H237.533V229.323Z" fill="#FC8019"/>
<path d="M307.545 134.468H329.088C332.361 134.468 335.107 137.108 335.107 140.488V246.647C335.107 250.027 332.361 252.668 329.088 252.668H307.545V134.468Z" fill="#E0E0E0"/>
<path d="M315.677 140.488V246.647C315.677 250.027 313.037 252.668 309.658 252.668H263.299C260.026 252.668 257.386 250.027 257.386 246.647V140.488C257.386 137.108 260.026 134.468 263.299 134.468H309.658C313.037 134.468 315.677 137.108 315.677 140.488V140.488Z" fill="white"/>
<path d="M315.677 229.218H257.386V228.161H315.677V229.218Z" fill="#E0E0E0"/>
<path d="M315.677 205.873H257.386V204.712H315.677V205.873Z" fill="#E0E0E0"/>
<path d="M315.677 182.424H257.386V181.262H315.677V182.424Z" fill="#E0E0E0"/>
<path d="M315.677 158.974H257.386V157.917H315.677V158.974Z" fill="#E0E0E0"/>
<path opacity="0.6" d="M288.643 152.53C288.643 153.692 287.693 154.748 286.425 154.748H266.889C265.728 154.748 264.672 153.692 264.672 152.53C264.672 151.263 265.728 150.312 266.889 150.312H286.425C287.693 150.312 288.643 151.263 288.643 152.53Z" fill="#FC8019"/>
<path opacity="0.6" d="M288.643 146.721C288.643 147.988 287.693 148.939 286.425 148.939H266.889C265.728 148.939 264.672 147.988 264.672 146.721C264.672 145.453 265.728 144.502 266.889 144.502H286.425C287.693 144.502 288.643 145.453 288.643 146.721Z" fill="#FC8019"/>
<path opacity="0.6" d="M288.643 140.911C288.643 142.179 287.693 143.129 286.425 143.129H266.889C265.728 143.129 264.672 142.179 264.672 140.911C264.672 139.643 265.728 138.693 266.889 138.693H286.425C287.693 138.693 288.643 139.643 288.643 140.911Z" fill="#FC8019"/>
<path d="M290.755 232.387H298.887V236.823H290.755V232.387Z" fill="#EBEBEB"/>
<path d="M290.755 238.196H298.887V242.633H290.755V238.196Z" fill="#FC8019"/>
<path d="M290.755 244.006H298.887V248.442H290.755V244.006Z" fill="#EBEBEB"/>
<path d="M300.259 232.387H308.391V236.823H300.259V232.387Z" fill="#EBEBEB"/>
<path d="M300.259 238.196H308.391V242.633H300.259V238.196Z" fill="#EBEBEB"/>
<path d="M300.259 244.006H308.391V248.442H300.259V244.006Z" fill="#FC8019"/>
<path d="M288.643 175.98C288.643 177.142 287.693 178.198 286.425 178.198H266.889C265.728 178.198 264.672 177.142 264.672 175.98C264.672 174.713 265.728 173.656 266.889 173.656H286.425C287.693 173.656 288.643 174.713 288.643 175.98Z" fill="#EBEBEB"/>
<path opacity="0.6" d="M288.643 170.17C288.643 171.332 287.693 172.389 286.425 172.389H266.889C265.728 172.389 264.672 171.332 264.672 170.17C264.672 168.903 265.728 167.952 266.889 167.952H286.425C287.693 167.952 288.643 168.903 288.643 170.17Z" fill="#FC8019"/>
<path opacity="0.6" d="M288.643 164.361C288.643 165.523 287.693 166.579 286.425 166.579H266.889C265.728 166.579 264.672 165.523 264.672 164.361C264.672 163.093 265.728 162.143 266.889 162.143H286.425C287.693 162.143 288.643 163.093 288.643 164.361Z" fill="#FC8019"/>
<path d="M290.755 208.937H298.887V213.373H290.755V208.937Z" fill="#EBEBEB"/>
<path d="M290.755 214.746H298.887V219.183H290.755V214.746Z" fill="#EBEBEB"/>
<path d="M290.755 220.556H298.887V224.992H290.755V220.556Z" fill="#FC8019"/>
<path d="M300.259 208.937H308.391V213.373H300.259V208.937Z" fill="#FC8019"/>
<path d="M300.259 214.746H308.391V219.183H300.259V214.746Z" fill="#EBEBEB"/>
<path d="M300.259 220.556H308.391V224.992H300.259V220.556Z" fill="#FC8019"/>
<path opacity="0.6" d="M288.643 199.324C288.643 200.592 287.693 201.543 286.425 201.543H266.889C265.728 201.543 264.672 200.592 264.672 199.324C264.672 198.163 265.728 197.106 266.889 197.106H286.425C287.693 197.106 288.643 198.163 288.643 199.324Z" fill="#FC8019"/>
<path opacity="0.6" d="M288.643 193.515C288.643 194.782 287.693 195.839 286.425 195.839H266.889C265.728 195.839 264.672 194.782 264.672 193.515C264.672 192.353 265.728 191.297 266.889 191.297H286.425C287.693 191.297 288.643 192.353 288.643 193.515Z" fill="#FC8019"/>
<path opacity="0.6" d="M288.643 187.811C288.643 188.973 287.693 190.029 286.425 190.029H266.889C265.728 190.029 264.672 188.973 264.672 187.811C264.672 186.543 265.728 185.487 266.889 185.487H286.425C287.693 185.487 288.643 186.543 288.643 187.811Z" fill="#FC8019"/>
<path d="M290.755 185.487H298.887V190.029H290.755V185.487Z" fill="#FC8019"/>
<path d="M290.755 191.297H298.887V195.839H290.755V191.297Z" fill="#EBEBEB"/>
<path d="M290.755 197.106H298.887V201.543H290.755V197.106Z" fill="#EBEBEB"/>
<path d="M300.259 185.487H308.391V190.029H300.259V185.487Z" fill="#EBEBEB"/>
<path d="M300.259 191.297H308.391V195.839H300.259V191.297Z" fill="#EBEBEB"/>
<path d="M300.259 197.106H308.391V201.543H300.259V197.106Z" fill="#FC8019"/>
<path opacity="0.6" d="M288.643 222.774C288.643 224.042 287.693 224.992 286.425 224.992H266.889C265.728 224.992 264.672 224.042 264.672 222.774C264.672 221.507 265.728 220.556 266.889 220.556H286.425C287.693 220.556 288.643 221.507 288.643 222.774Z" fill="#FC8019"/>
<path opacity="0.6" d="M288.643 216.965C288.643 218.232 287.693 219.183 286.425 219.183H266.889C265.728 219.183 264.672 218.232 264.672 216.965C264.672 215.803 265.728 214.746 266.889 214.746H286.425C287.693 214.746 288.643 215.803 288.643 216.965Z" fill="#FC8019"/>
<path opacity="0.6" d="M288.643 211.155C288.643 212.423 287.693 213.373 286.425 213.373H266.889C265.728 213.373 264.672 212.423 264.672 211.155C264.672 209.993 265.728 208.937 266.889 208.937H286.425C287.693 208.937 288.643 209.993 288.643 211.155Z" fill="#FC8019"/>
<path d="M290.755 162.143H298.887V166.579H290.755V162.143Z" fill="#EBEBEB"/>
<path d="M290.755 167.952H298.887V172.389H290.755V167.952Z" fill="#FC8019"/>
<path d="M290.755 173.656H298.887V178.198H290.755V173.656Z" fill="#EBEBEB"/>
<path d="M300.259 162.143H308.391V166.579H300.259V162.143Z" fill="#FC8019"/>
<path d="M300.259 167.952H308.391V172.389H300.259V167.952Z" fill="#EBEBEB"/>
<path d="M300.259 173.656H308.391V178.198H300.259V173.656Z" fill="#EBEBEB"/>
<path opacity="0.6" d="M288.643 246.224C288.643 247.492 287.693 248.442 286.425 248.442H266.889C265.728 248.442 264.672 247.492 264.672 246.224C264.672 244.957 265.728 244.006 266.889 244.006H286.425C287.693 244.006 288.643 244.957 288.643 246.224Z" fill="#FC8019"/>
<path opacity="0.6" d="M288.643 240.415C288.643 241.682 287.693 242.633 286.425 242.633H266.889C265.728 242.633 264.672 241.682 264.672 240.415C264.672 239.147 265.728 238.196 266.889 238.196H286.425C287.693 238.196 288.643 239.147 288.643 240.415Z" fill="#FC8019"/>
<path opacity="0.6" d="M288.643 234.605C288.643 235.872 287.693 236.823 286.425 236.823H266.889C265.728 236.823 264.672 235.872 264.672 234.605C264.672 233.337 265.728 232.387 266.889 232.387H286.425C287.693 232.387 288.643 233.337 288.643 234.605Z" fill="#FC8019"/>
<path d="M290.755 138.693H298.887V143.129H290.755V138.693Z" fill="#FC8019"/>
<path d="M290.755 144.502H298.887V148.939H290.755V144.502Z" fill="#EBEBEB"/>
<path d="M290.755 150.312H298.887V154.748H290.755V150.312Z" fill="#EBEBEB"/>
<path d="M300.259 138.693H308.391V143.129H300.259V138.693Z" fill="#EBEBEB"/>
<path d="M300.259 144.502H308.391V148.939H300.259V144.502Z" fill="#EBEBEB"/>
<path d="M300.259 150.312H308.391V154.748H300.259V150.312Z" fill="#FC8019"/>
</svg>
