<svg width="528" height="394" viewBox="0 0 528 394" fill="none" xmlns="http://www.w3.org/2000/svg">
<rect width="528" height="394" fill="white"/>
<path d="M424.701 260.582C391.579 339.703 303.354 384.026 226.838 372.064C214.387 370.128 180.251 364.333 150.027 336.985C91.8602 284.353 79.4088 180.14 126.342 106.686C160.503 53.2335 221.722 22.9365 279.901 24.4494C292.442 24.7699 340.465 26.7829 382.666 62.0931C388.873 67.2858 402.542 79.6072 414.866 99.1471C443.808 145.061 446.295 209.014 424.701 260.582V260.582Z" fill="url(#paint0_linear_170_1339)"/>
<path d="M89.0647 245.811C94.7198 221.681 113.224 202.731 136.767 196.949C152.95 192.961 168.479 195.103 181.597 201.552C185.957 203.693 191.125 201.27 192.331 196.475C203.936 150.369 244.778 116.315 293.365 116.315C350.993 116.315 397.708 164.203 397.708 223.271C397.708 224.848 397.683 226.99 397.657 229.041C397.862 233.464 399.734 235.336 402.543 235.811C425.124 238.221 442.872 257.299 443.859 280.827C444.988 307.854 423.534 330.241 397.144 330.241H153.104C111.326 330.241 78.6137 290.443 89.0647 245.811V245.811Z" fill="url(#paint1_linear_170_1339)"/>
<path opacity="0.2" d="M107.966 254.863C113.018 233.31 129.535 216.399 150.552 211.219C165.004 207.668 178.866 209.578 190.586 215.335C194.472 217.245 199.101 215.091 200.178 210.809C210.526 169.639 246.996 139.227 290.39 139.227C341.837 139.227 383.551 181.986 383.551 234.734C383.551 236.131 383.525 238.054 383.5 239.888C383.679 243.824 385.359 245.504 387.86 245.927C408.018 248.081 423.867 265.108 424.739 286.122C425.752 310.252 406.594 330.24 383.038 330.24H165.145C127.842 330.24 98.6306 294.712 107.966 254.863V254.863Z" fill="white"/>
<path d="M133.638 246.119C133.574 243.632 134.536 241.234 136.293 239.478C138.049 237.734 140.46 236.772 142.948 236.836L333.181 241.76C337.451 241.465 339.785 245.324 339.785 247.311L338.157 359.153C338.157 361.127 336.541 362.756 334.566 362.756H139.909C137.921 362.756 136.306 361.127 136.306 359.153L133.638 246.119Z" fill="url(#paint2_linear_170_1339)"/>
<path d="M137.152 247.619C137.1 245.875 137.78 244.196 139.024 242.965C140.255 241.721 141.948 241.055 143.692 241.106L326.013 245.991C329.27 245.863 334.617 248.055 334.797 254.171L333.271 355.704C333.271 357.576 331.745 359.114 329.873 359.114H143.268C141.396 359.114 139.857 357.576 139.857 355.704L137.152 247.619Z" fill="#FC8019"/>
<path d="M331.258 307.47C330.976 307.47 330.758 307.239 330.758 306.957L330.873 298.725C330.886 298.456 331.104 298.238 331.373 298.238C331.382 298.238 331.386 298.238 331.386 298.238C331.656 298.238 331.886 298.469 331.874 298.738L331.758 306.983C331.758 307.252 331.527 307.47 331.258 307.47V307.47Z" fill="white"/>
<path d="M331.553 287.289C331.271 287.289 331.053 287.058 331.053 286.789L331.514 255.248C331.514 253.376 330.937 251.876 329.822 250.812C327.744 248.824 324.449 248.927 324.308 248.927L266.039 247.363C265.756 247.363 265.538 247.132 265.551 246.85C265.551 246.581 265.769 246.337 266.064 246.363L324.308 247.927C324.667 247.914 328.18 247.85 330.514 250.094C331.835 251.35 332.502 253.081 332.514 255.248L332.053 286.801C332.053 287.071 331.822 287.289 331.553 287.289V287.289Z" fill="white"/>
<path d="M120.52 371.308V362.935C120.52 362.538 120.841 362.204 121.238 362.204H349.287C349.685 362.204 350.005 362.538 350.005 362.935V371.308C350.005 371.705 349.685 372.038 349.287 372.038H121.238C120.841 372.038 120.52 371.705 120.52 371.308Z" fill="url(#paint3_linear_170_1339)"/>
<path d="M220.811 354.152H148.975C146.321 354.152 144.179 352.011 144.179 349.357V255.594C144.179 252.876 146.436 250.696 149.155 250.799L221.003 253.555C223.581 253.645 225.62 255.761 225.62 258.338V349.357C225.62 352.011 223.466 354.152 220.811 354.152Z" fill="#FFDBB1"/>
<path opacity="0.5" d="M206.526 293.904H158.938C158.554 293.904 158.259 293.597 158.259 293.225V288.263C158.259 287.891 158.554 287.583 158.938 287.583H206.526C206.91 287.583 207.205 287.891 207.205 288.263V293.225C207.205 293.597 206.91 293.904 206.526 293.904Z" fill="white"/>
<path opacity="0.5" d="M206.628 304.008H159.028C158.656 304.008 158.349 303.7 158.349 303.328V298.367C158.349 297.995 158.656 297.687 159.028 297.687H206.628C207 297.687 207.308 297.995 207.308 298.367V303.328C207.308 303.7 207 304.008 206.628 304.008V304.008Z" fill="white"/>
<path opacity="0.5" d="M206.91 314.316H159.323C158.939 314.316 158.631 314.009 158.631 313.637V308.675C158.631 308.303 158.939 307.995 159.323 307.995H206.91C207.282 307.995 207.59 308.303 207.59 308.675V313.637C207.59 314.009 207.282 314.316 206.91 314.316Z" fill="white"/>
<path opacity="0.5" d="M207 324.42H159.413C159.041 324.42 158.733 324.112 158.733 323.727V318.778C158.733 318.394 159.041 318.099 159.413 318.099H207C207.385 318.099 207.693 318.394 207.693 318.778V323.727C207.693 324.112 207.385 324.42 207 324.42Z" fill="white"/>
<path opacity="0.5" d="M310.894 293.904H241.879C241.495 293.904 241.187 293.597 241.187 293.212V288.263C241.187 287.878 241.495 287.583 241.879 287.583H310.894C311.279 287.583 311.574 287.878 311.574 288.263V293.212C311.574 293.597 311.279 293.904 310.894 293.904Z" fill="white"/>
<path opacity="0.5" d="M311.113 304.008H242.098C241.713 304.008 241.405 303.7 241.405 303.328V298.367C241.405 297.995 241.713 297.687 242.098 297.687H311.113C311.497 297.687 311.792 297.995 311.792 298.367V303.328C311.792 303.7 311.497 304.008 311.113 304.008Z" fill="white"/>
<path opacity="0.5" d="M282.44 314.316H242.098C241.713 314.316 241.405 314.009 241.405 313.637V308.675C241.405 308.303 241.713 307.995 242.098 307.995H282.44C282.812 307.995 283.119 308.303 283.119 308.675V313.637C283.119 314.009 282.812 314.316 282.44 314.316Z" fill="white"/>
<g opacity="0.5">
<path opacity="0.5" d="M278.555 264.005H277.49C276.952 264.005 276.528 263.582 276.528 263.043V259.376C276.528 258.069 275.464 257.004 274.143 257.004H267.501C266.193 257.004 265.129 258.069 265.129 259.376V263.043C265.129 263.582 264.693 264.005 264.167 264.005H263.09C262.564 264.005 262.128 263.582 262.128 263.043V259.376C262.128 256.415 264.539 254.004 267.501 254.004H274.143C277.118 254.004 279.529 256.415 279.529 259.376V263.043C279.529 263.582 279.093 264.005 278.555 264.005V264.005Z" fill="white"/>
<path opacity="0.5" fill-rule="evenodd" clip-rule="evenodd" d="M281.901 266.89V280.788C281.901 281.904 281.004 282.801 279.888 282.801H261.769C260.653 282.801 259.755 281.904 259.755 280.788V266.89C259.755 265.774 260.653 264.877 261.769 264.877H279.888C281.004 264.877 281.901 265.774 281.901 266.89ZM272.553 274.685C273.528 274.095 274.182 273.031 274.182 271.8C274.182 269.877 272.566 268.326 270.617 268.454C268.924 268.557 267.565 269.928 267.475 271.621C267.398 272.916 268.078 274.07 269.104 274.685L268.232 278.314C268.116 278.788 268.475 279.237 268.962 279.237H272.694C273.181 279.237 273.528 278.788 273.425 278.314L272.553 274.685Z" fill="white"/>
</g>
<path d="M331.309 101.647C331.241 101.647 331.172 101.63 331.104 101.596C330.899 101.48 330.822 101.211 330.937 101.006C331.219 100.51 331.488 100.006 331.745 99.4932C331.86 99.2881 332.117 99.1983 332.335 99.3137C332.54 99.4163 332.63 99.6855 332.514 99.8907C332.249 100.404 331.976 100.916 331.694 101.429C331.617 101.57 331.463 101.647 331.309 101.647V101.647Z" fill="#91B3FA"/>
<path d="M280.811 131.367C280.555 131.367 280.302 131.367 280.055 131.367C279.811 131.354 279.619 131.162 279.619 130.931C279.631 130.688 279.824 130.495 280.055 130.495C281.183 130.521 282.311 130.495 283.414 130.444C283.645 130.431 283.863 130.624 283.876 130.854C283.876 131.098 283.696 131.303 283.453 131.303C282.581 131.354 281.696 131.367 280.811 131.367V131.367ZM274.566 131.034C274.549 131.034 274.532 131.034 274.515 131.034C273.386 130.906 272.258 130.752 271.142 130.56C270.912 130.521 270.745 130.303 270.783 130.072C270.822 129.829 271.053 129.675 271.283 129.713C272.386 129.893 273.502 130.047 274.617 130.175C274.848 130.201 275.015 130.406 274.989 130.649C274.977 130.867 274.784 131.034 274.566 131.034V131.034ZM288.915 130.803C288.697 130.803 288.518 130.649 288.492 130.431C288.454 130.188 288.62 129.97 288.851 129.944C289.954 129.79 291.07 129.598 292.173 129.38C292.403 129.329 292.634 129.483 292.673 129.713C292.724 129.944 292.57 130.175 292.339 130.226C291.224 130.444 290.095 130.636 288.98 130.79C288.954 130.799 288.933 130.803 288.915 130.803V130.803ZM265.834 129.406C265.799 129.406 265.765 129.401 265.731 129.393C264.628 129.098 263.538 128.765 262.461 128.418C262.23 128.341 262.115 128.098 262.179 127.867C262.256 127.649 262.5 127.521 262.73 127.598C263.795 127.944 264.872 128.265 265.949 128.559C266.18 128.624 266.321 128.854 266.257 129.085C266.205 129.277 266.026 129.406 265.834 129.406ZM297.584 128.893C297.404 128.893 297.225 128.765 297.174 128.585C297.11 128.354 297.238 128.111 297.456 128.047C298.533 127.726 299.597 127.367 300.649 126.97C300.867 126.893 301.123 127.008 301.2 127.226C301.29 127.457 301.174 127.7 300.944 127.79C299.879 128.175 298.802 128.547 297.712 128.867C297.669 128.884 297.627 128.893 297.584 128.893ZM257.46 126.457C257.4 126.457 257.345 126.448 257.293 126.431C256.255 125.969 255.216 125.469 254.216 124.957C253.998 124.854 253.921 124.585 254.023 124.38C254.139 124.162 254.395 124.085 254.6 124.187C255.601 124.7 256.614 125.187 257.639 125.636C257.857 125.726 257.96 125.982 257.857 126.2C257.781 126.367 257.627 126.457 257.46 126.457V126.457ZM305.855 125.662C305.701 125.662 305.547 125.572 305.47 125.418C305.368 125.213 305.457 124.944 305.675 124.841C306.676 124.367 307.676 123.841 308.65 123.303C308.868 123.187 309.125 123.251 309.24 123.469C309.356 123.674 309.279 123.931 309.074 124.046C308.086 124.598 307.06 125.136 306.047 125.623C305.987 125.649 305.923 125.662 305.855 125.662V125.662ZM249.638 122.264C249.561 122.264 249.484 122.238 249.407 122.2C248.458 121.585 247.509 120.943 246.599 120.277C246.406 120.136 246.355 119.866 246.496 119.674C246.637 119.482 246.906 119.431 247.099 119.572C248.009 120.225 248.932 120.867 249.881 121.469C250.074 121.597 250.138 121.867 250.01 122.072C249.92 122.2 249.779 122.264 249.638 122.264ZM313.536 121.2C313.395 121.2 313.267 121.136 313.177 121.02C313.049 120.815 313.1 120.546 313.292 120.418C314.216 119.79 315.126 119.11 315.998 118.43C316.191 118.277 316.46 118.315 316.614 118.507C316.755 118.687 316.716 118.969 316.537 119.11C315.639 119.802 314.716 120.482 313.78 121.123C313.703 121.174 313.626 121.2 313.536 121.2V121.2ZM242.559 116.918C242.457 116.918 242.367 116.879 242.277 116.802C241.431 116.059 240.597 115.276 239.789 114.469C239.623 114.302 239.623 114.033 239.789 113.866C239.956 113.687 240.225 113.687 240.405 113.853C241.2 114.648 242.021 115.417 242.854 116.161C243.034 116.315 243.047 116.584 242.893 116.764C242.803 116.866 242.688 116.918 242.559 116.918V116.918ZM320.448 115.623C320.332 115.623 320.217 115.571 320.127 115.482C319.961 115.302 319.973 115.033 320.153 114.866C320.961 114.11 321.756 113.302 322.525 112.494C322.692 112.327 322.961 112.315 323.128 112.481C323.307 112.648 323.32 112.917 323.154 113.084C322.371 113.905 321.563 114.725 320.743 115.494C320.653 115.571 320.55 115.623 320.448 115.623V115.623ZM236.379 110.545C236.263 110.545 236.135 110.481 236.045 110.379C235.327 109.52 234.622 108.609 233.942 107.699C233.801 107.507 233.839 107.237 234.032 107.096C234.224 106.955 234.493 106.994 234.635 107.186C235.301 108.084 236.007 108.981 236.712 109.827C236.866 110.02 236.84 110.289 236.661 110.443C236.584 110.507 236.481 110.545 236.379 110.545ZM326.423 109.058C326.321 109.058 326.231 109.02 326.154 108.955C325.962 108.814 325.936 108.545 326.077 108.353C326.77 107.468 327.437 106.558 328.065 105.648C328.193 105.455 328.462 105.404 328.668 105.532C328.86 105.673 328.911 105.942 328.77 106.135C328.142 107.058 327.462 107.994 326.757 108.891C326.68 108.994 326.552 109.058 326.423 109.058V109.058ZM231.236 103.301C231.095 103.301 230.954 103.224 230.864 103.096C230.287 102.122 229.723 101.122 229.197 100.121C229.095 99.9035 229.172 99.6471 229.377 99.5317C229.595 99.4291 229.851 99.506 229.967 99.724C230.48 100.698 231.031 101.686 231.608 102.647C231.736 102.852 231.66 103.122 231.454 103.237C231.39 103.288 231.313 103.301 231.236 103.301V103.301ZM227.274 95.3647C227.094 95.3647 226.941 95.2622 226.864 95.0955C226.44 94.0441 226.043 92.9671 225.684 91.8901C225.607 91.6722 225.722 91.4285 225.953 91.3516C226.171 91.2747 226.428 91.3901 226.505 91.6209C226.851 92.6722 227.248 93.7364 227.672 94.7621C227.761 94.9929 227.659 95.2365 227.428 95.3263C227.377 95.3519 227.325 95.3647 227.274 95.3647V95.3647Z" fill="#91B3FA"/>
<path d="M224.568 86.8769C224.376 86.8769 224.196 86.7487 224.145 86.5435C224.017 85.9794 223.893 85.4152 223.773 84.8511C223.734 84.6203 223.875 84.3895 224.119 84.3383C224.35 84.287 224.581 84.4408 224.619 84.6716C224.739 85.2358 224.863 85.7956 224.991 86.3512C225.042 86.582 224.901 86.8128 224.671 86.8641C224.636 86.8726 224.602 86.8769 224.568 86.8769V86.8769Z" fill="#91B3FA"/>
<path d="M231.89 42.861C231.813 42.861 231.736 42.8353 231.659 42.7969C231.454 42.6687 231.39 42.3994 231.518 42.1943C231.826 41.7071 232.142 41.2241 232.467 40.7454C232.608 40.5403 232.878 40.489 233.07 40.6301C233.275 40.7583 233.326 41.0275 233.185 41.2198C232.869 41.6985 232.557 42.1772 232.249 42.6558C232.172 42.7969 232.031 42.861 231.89 42.861V42.861Z" fill="#91B3FA"/>
<path d="M336.233 57.3235C336.041 57.3235 335.862 57.1953 335.81 57.0158C335.477 55.8875 335.118 54.7592 334.72 53.6566C334.631 53.4258 334.746 53.1822 334.977 53.1053C335.195 53.0155 335.451 53.1309 335.528 53.3617C335.926 54.4772 336.31 55.6311 336.644 56.7722C336.708 57.003 336.58 57.2338 336.349 57.3107C336.306 57.3193 336.268 57.3235 336.233 57.3235V57.3235ZM332.887 48.605C332.72 48.605 332.566 48.5152 332.489 48.3614C331.989 47.31 331.438 46.2458 330.86 45.2329C330.745 45.0278 330.822 44.7585 331.027 44.6431C331.232 44.5277 331.502 44.6047 331.617 44.8098C332.194 45.8484 332.758 46.9125 333.271 47.9895C333.374 48.2075 333.284 48.4639 333.066 48.5665C333.006 48.5921 332.946 48.605 332.887 48.605V48.605ZM328.168 40.5531C328.027 40.5531 327.898 40.489 327.809 40.3736C327.142 39.412 326.436 38.4632 325.706 37.5401C325.552 37.3478 325.577 37.0785 325.77 36.9375C325.949 36.7836 326.231 36.8221 326.372 37.0016C327.116 37.9375 327.834 38.8991 328.527 39.8736C328.655 40.0659 328.604 40.3351 328.411 40.4762C328.334 40.5275 328.257 40.5531 328.168 40.5531V40.5531ZM236.289 36.7836C236.199 36.7836 236.096 36.758 236.02 36.681C235.84 36.54 235.814 36.2579 235.968 36.0784C236.725 35.1681 237.52 34.2578 238.341 33.3987C238.494 33.2192 238.777 33.2064 238.943 33.3731C239.123 33.5398 239.123 33.809 238.969 33.9885C238.161 34.8476 237.379 35.7322 236.622 36.6297C236.545 36.7323 236.417 36.7836 236.289 36.7836V36.7836ZM322.218 33.3603C322.102 33.3603 321.987 33.3218 321.91 33.2321C321.089 32.3987 320.243 31.5653 319.371 30.7704C319.191 30.6165 319.178 30.3344 319.345 30.1678C319.499 29.9883 319.781 29.9754 319.961 30.1293C320.833 30.937 321.705 31.7832 322.525 32.6295C322.692 32.7961 322.692 33.0782 322.513 33.2449C322.436 33.3218 322.32 33.3603 322.218 33.3603ZM242.816 30.1036C242.688 30.1036 242.572 30.0524 242.482 29.9626C242.329 29.7831 242.354 29.501 242.534 29.3472C243.431 28.5651 244.355 27.7958 245.304 27.0778C245.496 26.9239 245.765 26.9624 245.906 27.1547C246.047 27.3342 246.022 27.6163 245.829 27.7573C244.906 28.4753 243.983 29.2318 243.098 30.0011C243.021 30.0652 242.918 30.1036 242.816 30.1036V30.1036ZM315.203 27.206C315.113 27.206 315.024 27.1804 314.947 27.1291C313.998 26.4239 313.023 25.7444 312.049 25.1033C311.844 24.9751 311.792 24.7058 311.92 24.5135C312.049 24.3084 312.318 24.2571 312.523 24.3853C313.511 25.0392 314.511 25.7187 315.46 26.4367C315.652 26.5777 315.691 26.847 315.549 27.0393C315.46 27.1547 315.331 27.206 315.203 27.206V27.206ZM250.317 24.552C250.176 24.552 250.035 24.475 249.946 24.3468C249.817 24.1417 249.881 23.8724 250.087 23.7442C251.1 23.116 252.138 22.5134 253.19 21.9492C253.395 21.8338 253.664 21.9107 253.767 22.1287C253.882 22.3339 253.805 22.5903 253.6 22.7057C252.562 23.2698 251.536 23.8596 250.548 24.4879C250.471 24.5263 250.394 24.552 250.317 24.552ZM307.291 22.2698C307.223 22.2698 307.155 22.2569 307.086 22.2313C306.047 21.6928 304.97 21.1799 303.906 20.7055C303.688 20.6158 303.585 20.3594 303.675 20.1414C303.778 19.9234 304.034 19.8209 304.252 19.9106C305.342 20.3978 306.432 20.9107 307.484 21.462C307.689 21.5646 307.779 21.8338 307.663 22.039C307.586 22.1928 307.445 22.2698 307.291 22.2698V22.2698ZM258.614 20.2696C258.447 20.2696 258.281 20.1799 258.217 20.0132C258.127 19.7824 258.229 19.5388 258.447 19.449C259.55 18.9875 260.679 18.5644 261.807 18.1669C262.025 18.09 262.269 18.2182 262.346 18.4361C262.423 18.6669 262.307 18.9105 262.089 18.9875C260.974 19.3721 259.858 19.7952 258.781 20.244C258.73 20.2611 258.674 20.2696 258.614 20.2696V20.2696ZM298.674 18.6798C298.631 18.6798 298.584 18.6755 298.533 18.6669C297.43 18.3079 296.289 17.9746 295.148 17.6797C294.917 17.6156 294.776 17.3848 294.84 17.154C294.891 16.9232 295.135 16.7822 295.366 16.8463C296.52 17.1412 297.674 17.4745 298.802 17.8464C299.033 17.9105 299.161 18.1541 299.084 18.3849C299.02 18.5644 298.854 18.6798 298.674 18.6798V18.6798ZM267.501 17.3976C267.295 17.3976 267.129 17.2694 267.078 17.0643C267.026 16.8335 267.167 16.6027 267.398 16.5514C268.552 16.2821 269.745 16.0385 270.912 15.8334C271.155 15.7949 271.373 15.9488 271.412 16.1924C271.45 16.4232 271.296 16.654 271.053 16.6924C269.899 16.8847 268.745 17.1284 267.59 17.3976C267.556 17.3976 267.526 17.3976 267.501 17.3976V17.3976ZM289.595 16.5386C289.57 16.5386 289.548 16.5343 289.531 16.5257C288.364 16.3462 287.184 16.2052 286.017 16.1026C285.787 16.077 285.607 15.8719 285.633 15.6283C285.646 15.3975 285.851 15.218 286.094 15.2436C287.287 15.3462 288.48 15.4872 289.659 15.6795C289.89 15.7052 290.057 15.936 290.018 16.1668C289.98 16.3847 289.8 16.5386 289.595 16.5386V16.5386ZM276.721 16.0001C276.503 16.0001 276.31 15.8334 276.297 15.6026C276.272 15.359 276.451 15.1539 276.695 15.141C277.875 15.0513 279.08 15.0128 280.273 15H280.285C280.516 15 280.709 15.1923 280.709 15.4231C280.721 15.6667 280.529 15.859 280.285 15.859C279.106 15.8719 277.926 15.9231 276.759 16.0001C276.742 16.0001 276.729 16.0001 276.721 16.0001V16.0001Z" fill="#91B3FA"/>
<path d="M337.862 64.6702C337.656 64.6702 337.477 64.5163 337.438 64.3112C337.353 63.7471 337.259 63.1829 337.156 62.6188C337.105 62.388 337.259 62.1572 337.503 62.1187C337.733 62.0675 337.964 62.2213 338.003 62.4649C338.105 63.0291 338.204 63.5975 338.298 64.1702C338.336 64.4138 338.169 64.6317 337.939 64.6702C337.913 64.6702 337.887 64.6702 337.862 64.6702V64.6702Z" fill="#91B3FA"/>
<path d="M324.372 81.9791C324.346 82.274 324.141 82.5305 323.846 82.5946L315.678 84.7229C314.485 88.4796 312.69 92.0696 310.292 95.3391L313.382 103.186C313.485 103.455 313.408 103.763 313.19 103.955L305.496 110.545C305.278 110.738 304.944 110.763 304.701 110.609L297.43 106.34C293.827 108.199 289.992 109.43 286.094 110.02L282.735 117.764C282.619 118.033 282.337 118.2 282.042 118.174L271.963 117.392C271.668 117.366 271.412 117.161 271.335 116.879L269.219 108.712C265.462 107.519 261.871 105.712 258.601 103.314L250.753 106.404C250.484 106.519 250.163 106.442 249.971 106.212L243.393 98.5188C243.2 98.3008 243.175 97.9803 243.329 97.7239L247.599 90.4541C245.727 86.8513 244.508 83.0305 243.906 79.1328L236.173 75.7736C235.904 75.6454 235.737 75.3761 235.763 75.0812L236.545 64.9908C236.571 64.6959 236.776 64.4523 237.058 64.3753L245.226 62.247C246.419 58.4903 248.227 54.9003 250.625 51.6308L247.535 43.7969C247.419 43.5149 247.496 43.2071 247.727 43.0148L255.408 36.4374C255.639 36.2451 255.96 36.2067 256.216 36.3605L263.487 40.63C267.09 38.7709 270.911 37.5401 274.81 36.9503L278.169 29.2062C278.285 28.9369 278.567 28.7702 278.862 28.7959L288.954 29.578C289.249 29.6036 289.492 29.8088 289.569 30.1037L291.698 38.2581C295.442 39.4633 299.033 41.2583 302.303 43.6559L310.151 40.5659C310.433 40.4505 310.741 40.5403 310.933 40.7583L317.511 48.4511C317.704 48.6691 317.729 48.9896 317.588 49.246L313.318 56.5158C315.177 60.1186 316.396 63.9522 316.998 67.8371L324.744 71.2091C325.013 71.3245 325.18 71.5938 325.154 71.8887L324.372 81.9791Z" fill="#FC8019"/>
<path opacity="0.7" fill-rule="evenodd" clip-rule="evenodd" d="M280.439 83.1202C278.464 83.1202 276.541 82.5176 274.887 81.3509C270.552 78.2866 269.527 72.2605 272.591 67.9269C274.079 65.8241 276.297 64.4266 278.823 63.9907C281.362 63.5548 283.914 64.1317 286.017 65.619C288.12 67.1063 289.518 69.3244 289.954 71.863C290.39 74.4017 289.8 76.9531 288.325 79.0559C286.838 81.1457 284.62 82.5433 282.081 82.9792C281.533 83.0732 280.986 83.1202 280.439 83.1202V83.1202ZM280.478 65.1446C279.999 65.1446 279.524 65.1874 279.054 65.2728C276.849 65.6447 274.938 66.8499 273.643 68.6705C270.988 72.4272 271.886 77.6327 275.643 80.2867C277.451 81.5817 279.67 82.0817 281.863 81.7099C284.055 81.3252 285.979 80.12 287.261 78.2994C288.543 76.4788 289.056 74.2735 288.672 72.081C288.3 69.8885 287.094 67.9653 285.274 66.6832C283.85 65.6703 282.183 65.1446 280.478 65.1446V65.1446Z" fill="white"/>
<path opacity="0.7" d="M280.285 98.5573C279.619 98.5573 278.956 98.5316 278.298 98.4803C271.617 97.9546 265.539 94.8647 261.191 89.7746C257.268 85.1973 255.165 79.4918 255.165 73.5298C255.165 72.8717 255.19 72.2092 255.241 71.5425C255.767 64.8625 258.858 58.798 263.948 54.4387C269.027 50.0923 275.515 47.9767 282.183 48.5024C288.864 49.0153 294.942 52.1052 299.289 57.1953C300.456 58.5544 301.469 60.0289 302.316 61.5931L301.174 62.2085C300.379 60.734 299.405 59.3237 298.302 58.0415C294.173 53.2079 288.415 50.2846 282.081 49.7845C275.759 49.2973 269.616 51.2975 264.782 55.426C259.96 59.5545 257.037 65.3113 256.537 71.6451C256.485 72.2691 256.46 72.8973 256.46 73.5298C256.46 79.1841 258.46 84.5947 262.179 88.9412C266.308 93.762 272.066 96.6982 278.387 97.1854C284.722 97.6854 290.865 95.6724 295.699 91.5568C298.969 88.7489 301.418 85.1204 302.777 81.056L304.008 81.4663C302.572 85.7487 299.995 89.5823 296.532 92.5312C291.955 96.4545 286.248 98.5573 280.285 98.5573V98.5573Z" fill="white"/>
<path d="M380.012 115.815C379.935 115.815 379.858 115.802 379.794 115.764C379.589 115.635 379.512 115.366 379.64 115.161C379.935 114.674 380.204 114.174 380.461 113.674C380.576 113.469 380.832 113.379 381.05 113.494C381.256 113.597 381.345 113.866 381.23 114.071C380.961 114.584 380.678 115.097 380.384 115.61C380.307 115.738 380.153 115.815 380.012 115.815V115.815Z" fill="#91B3FA"/>
<path d="M352.147 130.265C352.138 130.265 352.125 130.265 352.108 130.265C350.941 130.175 349.762 130.008 348.62 129.777C348.377 129.739 348.236 129.508 348.274 129.277C348.325 129.047 348.556 128.893 348.787 128.931C349.903 129.162 351.044 129.316 352.185 129.406C352.416 129.418 352.596 129.624 352.583 129.867C352.557 130.098 352.365 130.265 352.147 130.265V130.265ZM357.789 130.175C357.571 130.175 357.391 130.008 357.366 129.79C357.34 129.547 357.507 129.342 357.751 129.316C358.879 129.188 360.02 128.995 361.123 128.739C361.354 128.675 361.585 128.829 361.649 129.059C361.7 129.29 361.559 129.521 361.315 129.572C360.187 129.842 359.007 130.034 357.84 130.175C357.823 130.175 357.806 130.175 357.789 130.175ZM343.286 128.175C343.235 128.175 343.179 128.162 343.119 128.136C342.042 127.7 340.965 127.188 339.939 126.623C339.734 126.508 339.657 126.252 339.772 126.034C339.888 125.828 340.144 125.752 340.362 125.867C341.35 126.418 342.401 126.918 343.453 127.341C343.671 127.431 343.773 127.688 343.683 127.906C343.619 128.072 343.453 128.175 343.286 128.175V128.175ZM366.573 127.79C366.406 127.79 366.252 127.688 366.188 127.534C366.086 127.316 366.188 127.059 366.406 126.957C367.445 126.495 368.471 125.97 369.445 125.38C369.651 125.252 369.907 125.328 370.035 125.534C370.163 125.739 370.087 125.995 369.881 126.123C368.881 126.726 367.83 127.264 366.752 127.752C366.693 127.777 366.633 127.79 366.573 127.79V127.79ZM335.489 123.495C335.387 123.495 335.297 123.457 335.207 123.392C334.31 122.636 333.45 121.828 332.643 120.969C332.476 120.802 332.489 120.533 332.655 120.367C332.835 120.2 333.104 120.213 333.271 120.379C334.053 121.213 334.899 121.995 335.771 122.726C335.951 122.88 335.977 123.149 335.823 123.341C335.733 123.431 335.618 123.495 335.489 123.495ZM374.216 122.841C374.1 122.841 373.985 122.79 373.895 122.7C373.741 122.521 373.754 122.238 373.934 122.085L374.177 121.854C374.947 121.161 375.677 120.431 376.357 119.661C376.511 119.482 376.78 119.469 376.96 119.623C377.139 119.777 377.152 120.059 376.998 120.238C376.293 121.02 375.549 121.777 374.767 122.495L374.511 122.726C374.421 122.803 374.318 122.841 374.216 122.841ZM329.475 116.661C329.321 116.661 329.193 116.597 329.103 116.469C328.475 115.482 327.898 114.443 327.385 113.392C327.27 113.174 327.359 112.917 327.577 112.815C327.795 112.699 328.052 112.789 328.154 113.007C328.655 114.033 329.219 115.046 329.834 115.994C329.962 116.2 329.898 116.469 329.706 116.597C329.629 116.648 329.552 116.661 329.475 116.661V116.661Z" fill="#91B3FA"/>
<path d="M325.795 108.314C325.603 108.314 325.436 108.186 325.385 107.994C325.231 107.43 325.103 106.866 324.987 106.289C324.936 106.058 325.09 105.827 325.321 105.789C325.552 105.737 325.782 105.891 325.834 106.122C325.936 106.673 326.077 107.225 326.218 107.776C326.283 108.007 326.142 108.237 325.911 108.302C325.868 108.31 325.829 108.314 325.795 108.314V108.314Z" fill="#91B3FA"/>
<path d="M329.36 84.8896C329.27 84.8896 329.193 84.8768 329.129 84.8255C328.924 84.6973 328.86 84.4281 328.988 84.2357C329.296 83.7357 329.629 83.2485 329.963 82.7741C330.104 82.5818 330.373 82.5433 330.565 82.6715C330.758 82.8126 330.809 83.0818 330.668 83.2741C330.334 83.7357 330.027 84.2101 329.719 84.6973C329.642 84.8255 329.501 84.8896 329.36 84.8896V84.8896Z" fill="#91B3FA"/>
<path d="M381.794 89.095C381.627 89.095 381.474 88.9924 381.397 88.8258C380.961 87.8 380.461 86.7743 379.896 85.7999C379.781 85.5948 379.858 85.3383 380.063 85.2229C380.268 85.0947 380.537 85.1717 380.653 85.3768C381.217 86.3769 381.743 87.4282 382.192 88.4924C382.281 88.7104 382.179 88.9668 381.961 89.0565C381.91 89.0822 381.854 89.095 381.794 89.095V89.095ZM377.088 81.4791C376.96 81.4791 376.844 81.4278 376.755 81.3252C376.532 81.0688 376.306 80.8124 376.075 80.5559C375.549 79.979 374.998 79.4148 374.421 78.8763C374.254 78.7225 374.241 78.4404 374.408 78.2737C374.575 78.0942 374.844 78.0942 375.011 78.2481C375.6 78.7994 376.178 79.3764 376.716 79.979C376.955 80.2354 377.186 80.4961 377.409 80.7611C377.562 80.9406 377.55 81.2227 377.37 81.3765C377.28 81.4406 377.178 81.4791 377.088 81.4791V81.4791ZM333.963 79.261C333.848 79.261 333.732 79.2225 333.643 79.1328C333.476 78.9533 333.489 78.684 333.656 78.5173C333.835 78.3549 334.015 78.1883 334.194 78.0173C334.861 77.4019 335.579 76.8121 336.297 76.2608C336.489 76.1197 336.759 76.1582 336.9 76.3505C337.054 76.5428 337.015 76.8121 336.823 76.9531C336.118 77.4916 335.425 78.0558 334.771 78.6584C334.6 78.8208 334.429 78.9832 334.258 79.1456C334.168 79.2225 334.066 79.261 333.963 79.261V79.261ZM370.33 75.6069C370.253 75.6069 370.163 75.5812 370.099 75.5299C369.15 74.9402 368.15 74.3888 367.15 73.9016C366.932 73.7991 366.842 73.5426 366.945 73.3247C367.047 73.1067 367.304 73.0169 367.522 73.1195C368.561 73.6196 369.586 74.1837 370.561 74.7991C370.753 74.9273 370.817 75.1966 370.689 75.4017C370.612 75.5299 370.471 75.6069 370.33 75.6069V75.6069ZM341.285 74.1068C341.119 74.1068 340.965 74.017 340.901 73.876C340.785 73.658 340.875 73.4016 341.093 73.2862C342.119 72.7733 343.196 72.3246 344.286 71.9271C344.504 71.8502 344.76 71.9656 344.837 72.1836C344.914 72.4143 344.799 72.6579 344.581 72.7349C343.517 73.1195 342.478 73.5683 341.478 74.0683C341.409 74.0939 341.345 74.1068 341.285 74.1068V74.1068ZM362.123 72.0169C362.089 72.0169 362.051 72.0126 362.008 72.0041C360.931 71.722 359.815 71.4912 358.712 71.3245C358.469 71.2989 358.302 71.0809 358.34 70.8373C358.379 70.6065 358.597 70.4398 358.828 70.4783C359.969 70.645 361.123 70.8758 362.239 71.1707C362.457 71.2348 362.598 71.4656 362.534 71.6963C362.482 71.8887 362.316 72.0169 362.123 72.0169V72.0169ZM349.813 71.3886C349.608 71.3886 349.415 71.2348 349.39 71.0296C349.351 70.786 349.505 70.5681 349.749 70.5296C350.877 70.3501 352.044 70.2347 353.198 70.1834C353.442 70.1834 353.647 70.3629 353.647 70.5937C353.66 70.8373 353.48 71.0424 353.237 71.0424C352.121 71.0937 350.98 71.2091 349.877 71.3886C349.86 71.3886 349.839 71.3886 349.813 71.3886V71.3886Z" fill="#91B3FA"/>
<path d="M383.795 96.0955C383.59 96.0955 383.397 95.9417 383.372 95.7237C383.282 95.1724 383.179 94.6082 383.051 94.0569C383.013 93.8261 383.154 93.5953 383.385 93.5441C383.628 93.4928 383.846 93.6466 383.898 93.8774C384.026 94.4416 384.128 95.0185 384.218 95.5955C384.257 95.8263 384.103 96.0571 383.859 96.0955C383.833 96.0955 383.812 96.0955 383.795 96.0955V96.0955Z" fill="#91B3FA"/>
<path d="M376.857 104.776C376.845 104.929 376.742 105.058 376.588 105.096L372.395 106.186C371.779 108.109 370.856 109.955 369.625 111.635L371.215 115.661C371.266 115.802 371.228 115.969 371.113 116.071L367.163 119.443C367.048 119.546 366.881 119.559 366.753 119.482L363.021 117.289C361.175 118.251 359.2 118.879 357.199 119.187L355.468 123.162C355.417 123.303 355.276 123.38 355.122 123.367L349.941 122.969C349.787 122.956 349.659 122.854 349.621 122.7L348.531 118.507C346.594 117.892 344.761 116.969 343.081 115.738L339.042 117.328C338.9 117.379 338.747 117.341 338.644 117.225L335.271 113.276C335.169 113.161 335.156 112.994 335.233 112.866L337.426 109.135C336.464 107.276 335.836 105.314 335.528 103.314L331.553 101.583C331.412 101.532 331.335 101.378 331.348 101.237L331.745 96.0442C331.758 95.9032 331.861 95.775 332.014 95.7365L336.208 94.6467C336.823 92.7107 337.746 90.8644 338.977 89.1848L337.387 85.1589C337.336 85.0178 337.375 84.864 337.49 84.7614L341.439 81.3765C341.555 81.2868 341.722 81.2611 341.85 81.3381L345.581 83.5434C347.441 82.5817 349.403 81.9535 351.403 81.6458L353.134 77.6711C353.186 77.5301 353.327 77.4404 353.481 77.4532L358.661 77.8635C358.815 77.8763 358.943 77.9789 358.982 78.1199L360.072 82.3253C362.008 82.9279 363.842 83.8639 365.522 85.0947L369.561 83.5049C369.702 83.4408 369.856 83.4921 369.959 83.6075L373.344 87.5565C373.434 87.6719 373.446 87.8385 373.369 87.9667L371.177 91.6978C372.138 93.5441 372.767 95.5186 373.075 97.5187L377.05 99.2368C377.191 99.3009 377.268 99.4419 377.268 99.5958L376.857 104.776Z" fill="#FC8019"/>
<path opacity="0.7" fill-rule="evenodd" clip-rule="evenodd" d="M354.288 105.673C353.211 105.673 352.16 105.34 351.262 104.712C348.89 103.032 348.326 99.7368 350.005 97.3777C350.813 96.2237 352.032 95.4673 353.416 95.2237C354.801 94.9929 356.199 95.3006 357.34 96.1212C358.494 96.9289 359.251 98.1341 359.495 99.5317C359.725 100.916 359.405 102.301 358.597 103.455C357.789 104.596 356.571 105.365 355.186 105.596C354.887 105.647 354.588 105.673 354.288 105.673V105.673ZM354.301 96.4417C353.057 96.4417 351.839 97.0315 351.057 98.1213C349.8 99.9035 350.223 102.391 352.006 103.647C352.878 104.263 353.929 104.506 354.968 104.327C356.02 104.147 356.93 103.57 357.546 102.711C358.148 101.84 358.392 100.788 358.212 99.7496C358.033 98.6983 357.456 97.7879 356.597 97.1725C355.904 96.6853 355.096 96.4417 354.301 96.4417V96.4417Z" fill="white"/>
<path opacity="0.7" d="M354.211 113.61C353.861 113.61 353.515 113.597 353.173 113.571C349.659 113.289 346.453 111.661 344.171 108.994C342.042 106.507 341.003 103.455 341.003 100.429C341.003 96.6982 342.568 92.9928 345.62 90.39C351.147 85.6589 359.482 86.3128 364.214 91.8388C364.256 91.8816 364.295 91.9243 364.329 91.9671C364.842 92.5825 365.291 93.2492 365.688 93.9416C365.697 93.9587 365.705 93.9715 365.714 93.98C365.722 93.9971 365.731 94.0142 365.74 94.0313C365.748 94.0399 365.752 94.0484 365.752 94.0569C365.769 94.0911 365.787 94.1253 365.804 94.1595L364.662 94.7749C364.265 94.0313 363.79 93.3261 363.226 92.6851C360.213 89.1463 355.558 87.8257 351.326 88.8643C349.582 89.3002 347.915 90.1336 346.453 91.3773C343.709 93.7236 342.299 97.0572 342.299 100.416C342.299 103.16 343.235 105.904 345.145 108.148C349.415 113.135 356.943 113.712 361.931 109.455C363.56 108.058 364.791 106.237 365.47 104.199L366.701 104.609C365.945 106.866 364.585 108.879 362.765 110.443C360.354 112.494 357.353 113.61 354.211 113.61V113.61Z" fill="white"/>
<path d="M270.142 159.921C271.206 158.921 272.655 158.421 274.104 158.549C289.646 159.946 318.627 152.471 337.58 133.085C338.9 131.739 341.298 132.496 342.799 133.624C363.867 149.369 398.798 152.638 410.929 153.305C413.442 153.433 415.468 155.382 415.725 157.882C426.753 264.364 357.417 302.957 343.029 309.765C341.465 310.508 339.606 310.406 338.131 309.483C266.449 264.838 269.514 206.796 268.526 163.78C268.501 162.318 269.078 160.908 270.142 159.921V159.921Z" fill="url(#paint4_linear_170_1339)"/>
<path opacity="0.6" fill-rule="evenodd" clip-rule="evenodd" d="M341.093 302.033C340.772 302.033 340.452 301.944 340.17 301.764C312.689 284.199 294.788 263.197 285.414 237.567C277.054 214.681 276.643 191.372 276.284 170.806L276.233 168.062C276.233 167.601 276.4 167.178 276.72 166.844C277.041 166.511 277.477 166.331 277.938 166.331C294.955 166.331 320.499 158.818 339.234 142.035C339.811 141.522 340.657 141.458 341.311 141.881C361.892 155.548 391.258 159.523 406.928 160.677C407.761 160.741 408.415 161.382 408.492 162.216C412.134 203.77 403.491 238.901 382.807 266.646C367.355 287.366 349.031 298.161 341.862 301.841C341.619 301.969 341.362 302.033 341.093 302.033V302.033ZM341.542 301.226C348.659 297.571 366.881 286.84 382.243 266.236C402.824 238.631 411.429 203.654 407.8 162.28C407.748 161.793 407.364 161.408 406.876 161.369C391.142 160.215 361.636 156.215 340.926 142.471C340.542 142.214 340.042 142.253 339.695 142.56C320.832 159.459 295.096 167.037 277.951 167.037C277.669 167.037 277.413 167.139 277.22 167.331C277.028 167.524 276.925 167.78 276.938 168.049L276.977 170.793C277.349 191.307 277.746 214.553 286.068 237.336C295.378 262.813 313.202 283.699 340.554 301.174C340.849 301.367 341.234 301.392 341.542 301.226V301.226Z" fill="white"/>
<path d="M366.15 200.116H362.906C361.303 200.116 359.995 198.808 359.995 197.205V186.128C359.995 182.153 356.776 178.948 352.814 178.948H332.733C328.757 178.948 325.552 182.153 325.552 186.128V197.205C325.552 198.808 324.244 200.116 322.628 200.116H319.396C317.781 200.116 316.473 198.808 316.473 197.205V186.128C316.473 177.153 323.756 169.87 332.733 169.87H352.814C361.79 169.87 369.061 177.153 369.061 186.128V197.205C369.061 198.808 367.753 200.116 366.15 200.116Z" fill="#FFDBB1"/>
<path fill-rule="evenodd" clip-rule="evenodd" d="M376.242 208.809V250.85C376.242 254.209 373.523 256.928 370.164 256.928H315.37C312.01 256.928 309.292 254.209 309.292 250.85V208.809C309.292 205.449 312.01 202.731 315.37 202.731H370.164C373.523 202.731 376.242 205.449 376.242 208.809ZM347.966 232.387C350.941 230.618 352.929 227.374 352.929 223.669C352.929 217.848 348.018 213.168 342.119 213.54C337.028 213.848 332.899 218.027 332.63 223.117C332.425 227.054 334.451 230.528 337.567 232.387L334.925 243.362C334.592 244.786 335.669 246.145 337.118 246.145H348.415C349.877 246.145 350.954 244.786 350.608 243.362L347.966 232.387Z" fill="#FFDBB1"/>
<path d="M132.741 188.987C135.699 189.141 137.357 192.261 137.716 198.346C130.86 204.492 122.798 208.3 113.531 209.77C112.493 209.924 114.993 202.642 115.365 201.654C117.16 196.962 122.79 193.936 132.741 188.987V188.987Z" fill="url(#paint5_linear_170_1339)"/>
<path d="M162.157 190.577C159.319 187.824 149.727 179.298 133.382 164.998L134.497 191.718C134.189 192.47 133.689 193.064 132.997 193.5C130.676 194.987 127.573 193.872 126.457 191.346C117.241 170.49 117.011 154.476 125.765 143.304C138.331 145.441 154.194 157.091 173.352 178.255H182.713C188.086 192.192 166.427 194.718 162.157 190.577V190.577Z" fill="#7D97F4"/>
<path d="M92.1807 244.888C96.1046 241.452 102.362 237.593 111.39 236.49L114.442 238.349C113.143 240.264 111.309 242.234 108.941 244.26C105.671 246.158 100.618 248.722 96.438 249.286C92.3731 249.825 91.7704 247.363 92.1807 244.888V244.888Z" fill="url(#paint6_linear_170_1339)"/>
<path d="M115.365 201.654C117.789 202.437 118.853 205.86 124.983 203.603C130.92 201.411 135.331 198.577 137.601 196.949C137.652 197.398 137.691 197.859 137.716 198.347C130.484 205.227 122.234 209.399 112.967 210.86C111.929 211.027 111.095 209.988 111.48 209.001C112.147 207.232 113.365 204.539 115.365 201.654V201.654Z" fill="#91B3FA"/>
<path d="M89.2186 247.824C90.0008 246.94 90.9882 245.94 92.1808 244.888C91.7704 247.363 92.3731 249.825 96.4381 249.286C100.618 248.722 105.671 246.158 108.941 244.26C104.837 247.747 98.6052 251.453 90.7446 251.235C88.9878 251.196 88.0645 249.132 89.2186 247.824V247.824Z" fill="#91B3FA"/>
<path d="M201.217 192.641C194.498 202.975 185.329 203.911 173.814 201.372C157.827 194.936 145.795 198.864 137.716 213.155C131.142 224.814 122.807 233.939 112.711 240.529C109.693 240.264 108.436 239.358 108.941 237.811C111.967 216.749 121.828 199.312 138.524 185.499L182.38 185.025L201.217 192.641Z" fill="#7D97F4"/>
<path d="M187.855 161.126C182.033 172.99 173.621 181.102 162.619 185.461L143.32 184.845L145.256 181.743L153.489 182.717C168.911 176.477 178.195 165.472 181.341 149.702C192.959 150.599 188.15 160.536 187.855 161.126V161.126Z" fill="url(#paint7_linear_170_1339)"/>
<path d="M178.815 184.64C182.388 174.913 184.559 165.323 185.329 155.869C182.713 153.621 180.588 152.01 178.956 151.035C178.161 150.561 177.853 149.574 178.263 148.74C180.058 144.996 190.971 130.316 191.792 130.111C196.241 129.008 214.463 120.341 227.299 137.893C232.813 145.432 226.209 168.626 201.217 192.641C193.177 193.949 185.649 191.641 178.815 184.64V184.64Z" fill="url(#paint8_linear_170_1339)"/>
<path d="M207.436 170.242C199.725 179.601 188.15 184.555 172.711 185.102H148.231C151.582 180.384 154.476 177.49 156.912 176.422C159.357 175.353 162.225 176.315 165.517 179.307C178.229 177.588 189.556 170.84 199.498 159.062C203.717 162.408 206.5 165.331 207.436 170.242V170.242Z" fill="url(#paint9_linear_170_1339)"/>
<path d="M208.193 117.725L211.463 128.611C211.617 129.111 211.424 129.649 211.001 129.944C209.424 131.021 205.32 133.162 199.691 131.085C199.037 130.842 198.601 130.239 198.55 129.559L197.768 120.072L208.193 117.725Z" fill="url(#paint10_linear_170_1339)"/>
<path d="M204.974 101.481L210.655 116.02C207.808 124.521 199.357 127.136 195.023 123.662C192.134 121.354 190.155 116.439 189.086 108.917L204.974 101.481Z" fill="url(#paint11_linear_170_1339)"/>
<path d="M205.615 110.891C205.282 110.994 204.936 110.776 204.884 110.443C204.73 109.404 204.346 107.34 203.551 105.93C203.824 104.947 202.576 105.199 199.806 106.686C195.652 108.93 189.419 112.212 185.739 110.25C182.162 108.353 178.533 98.7495 187.996 100.532C188.355 100.596 188.689 100.314 188.663 99.9419C188.547 98.3649 188.701 94.7364 192.382 93.5697C195.818 92.4799 197.703 94.0313 198.473 94.9672C198.704 95.2493 199.127 95.2365 199.345 94.9544C200.371 93.6082 203.179 90.749 207.295 92.5696C210.68 94.0569 211.206 96.1468 211.155 97.4546C211.142 97.8777 211.565 98.1598 211.95 97.9803C212.989 97.5059 214.656 97.2623 216.259 99.2624C218.477 102.032 215.31 104.442 214.361 105.071C214.207 105.173 214.104 105.34 214.104 105.532C214.104 106.968 213.873 113.263 210.719 116.815C210.45 117.123 209.95 117.033 209.783 116.648L207.359 110.866C207.244 110.597 206.949 110.456 206.667 110.545L205.615 110.891Z" fill="url(#paint12_linear_170_1339)"/>
<path d="M205.564 112.058C206.556 108.032 207.8 106.673 209.296 107.981C211.552 109.943 208.706 114.264 206.128 115.084L205.564 112.058Z" fill="url(#paint13_linear_170_1339)"/>
<path d="M147.667 187.602L133.048 185.987C131.856 185.858 130.843 185.063 130.445 183.935L118.161 148.933C117.661 147.509 118.776 146.035 120.289 146.138L135.139 147.15C136.69 147.253 138.024 148.317 138.473 149.817L149.462 186.474L147.667 187.602Z" fill="url(#paint14_linear_170_1339)"/>
<path d="M129.381 158.408C130.304 157.946 131.728 158.921 132.548 160.575C133.369 162.228 133.279 163.947 132.356 164.408C131.42 164.87 130.009 163.895 129.189 162.241C128.368 160.575 128.458 158.869 129.381 158.408Z" fill="#91B3FA"/>
<path d="M146.269 186.282C146.231 185.512 146.821 184.858 147.59 184.82L178.738 183.243C179.507 183.192 180.161 183.794 180.2 184.563C180.238 185.333 179.648 185.999 178.879 186.038L147.731 187.602C147.714 187.602 147.693 187.602 147.667 187.602C146.923 187.602 146.308 187.025 146.269 186.282V186.282Z" fill="url(#paint15_linear_170_1339)"/>
<path d="M185.329 156.087C185.213 156.087 185.111 155.984 185.111 155.869C185.098 149.292 187.624 140.599 187.65 140.509C187.688 140.394 187.804 140.329 187.919 140.368C188.035 140.394 188.099 140.522 188.06 140.624C188.035 140.714 185.521 149.356 185.547 155.869C185.547 155.984 185.457 156.087 185.329 156.087V156.087Z" fill="url(#paint16_linear_170_1339)"/>
<path d="M199.498 159.28C199.447 159.28 199.409 159.267 199.357 159.241C199.268 159.164 199.255 159.023 199.332 158.933C199.396 158.844 206.167 150.24 208.488 144.368C208.526 144.266 208.654 144.202 208.757 144.253C208.872 144.291 208.924 144.419 208.885 144.535C206.538 150.458 199.729 159.113 199.665 159.203C199.627 159.254 199.563 159.28 199.498 159.28Z" fill="url(#paint17_linear_170_1339)"/>
<path d="M209.09 172.511L207.859 170.768C207.795 170.678 207.821 170.537 207.911 170.473C208.013 170.396 208.141 170.421 208.218 170.524L209.244 171.973C218.849 167.767 224.799 156.279 224.85 156.164C224.914 156.049 225.043 156.01 225.145 156.061C225.248 156.125 225.299 156.254 225.235 156.356C225.184 156.472 219.105 168.229 209.257 172.447L209.09 172.511Z" fill="url(#paint18_linear_170_1339)"/>
<defs>
<linearGradient id="paint0_linear_170_1339" x1="699492" y1="1.309e+06" x2="47484" y2="751837" gradientUnits="userSpaceOnUse">
<stop stop-color="#FEDDC1"/>
<stop offset="1" stop-color="#FFD4B0"/>
</linearGradient>
<linearGradient id="paint1_linear_170_1339" x1="-288992" y1="193655" x2="51122.5" y2="1.07389e+06" gradientUnits="userSpaceOnUse">
<stop stop-color="#FC8019"/>
<stop offset="1" stop-color="#FFDBB1"/>
</linearGradient>
<linearGradient id="paint2_linear_170_1339" x1="445747" y1="297602" x2="416345" y2="153184" gradientUnits="userSpaceOnUse">
<stop stop-color="white"/>
<stop offset="1" stop-color="#1A0F91"/>
</linearGradient>
<linearGradient id="paint3_linear_170_1339" x1="95815.9" y1="28133.5" x2="107495" y2="94429.4" gradientUnits="userSpaceOnUse">
<stop stop-color="#09005D"/>
<stop offset="1" stop-color="#1A0F91"/>
</linearGradient>
<linearGradient id="paint4_linear_170_1339" x1="535067" y1="156427" x2="460110" y2="217598" gradientUnits="userSpaceOnUse">
<stop stop-color="#FC8019"/>
<stop offset="0.458333" stop-color="#FFA961"/>
<stop offset="1" stop-color="#FC8019"/>
</linearGradient>
<linearGradient id="paint5_linear_170_1339" x1="6899" y1="28815.3" x2="4364.89" y2="31930.9" gradientUnits="userSpaceOnUse">
<stop stop-color="#09005D"/>
<stop offset="1" stop-color="#1A0F91"/>
</linearGradient>
<linearGradient id="paint6_linear_170_1339" x1="2982.36" y1="22376.5" x2="-17.5186" y2="26204" gradientUnits="userSpaceOnUse">
<stop stop-color="#09005D"/>
<stop offset="1" stop-color="#1A0F91"/>
</linearGradient>
<linearGradient id="paint7_linear_170_1339" x1="17165" y1="44816.2" x2="22531.7" y2="52985.9" gradientUnits="userSpaceOnUse">
<stop stop-color="#FEBBBA"/>
<stop offset="1" stop-color="#FF928E"/>
</linearGradient>
<linearGradient id="paint8_linear_170_1339" x1="73342.2" y1="54909.4" x2="44290.9" y2="78314.6" gradientUnits="userSpaceOnUse">
<stop stop-color="#FC8019"/>
<stop offset="1" stop-color="#FFA052"/>
</linearGradient>
<linearGradient id="paint9_linear_170_1339" x1="54332.7" y1="30009.1" x2="49204.8" y2="14056.1" gradientUnits="userSpaceOnUse">
<stop stop-color="#FEBBBA"/>
<stop offset="1" stop-color="#FF928E"/>
</linearGradient>
<linearGradient id="paint10_linear_170_1339" x1="13603.3" y1="12991.6" x2="13442.9" y2="11590.8" gradientUnits="userSpaceOnUse">
<stop stop-color="#FEBBBA"/>
<stop offset="1" stop-color="#FF928E"/>
</linearGradient>
<linearGradient id="paint11_linear_170_1339" x1="20655.7" y1="19951" x2="21889.3" y2="16248.6" gradientUnits="userSpaceOnUse">
<stop stop-color="#FEBBBA"/>
<stop offset="1" stop-color="#FF928E"/>
</linearGradient>
<linearGradient id="paint12_linear_170_1339" x1="27082.3" y1="12491.6" x2="26247.1" y2="19169.4" gradientUnits="userSpaceOnUse">
<stop stop-color="#09005D"/>
<stop offset="1" stop-color="#1A0F91"/>
</linearGradient>
<linearGradient id="paint13_linear_170_1339" x1="4458.61" y1="6469.02" x2="4939.97" y2="5517.26" gradientUnits="userSpaceOnUse">
<stop stop-color="#FEBBBA"/>
<stop offset="1" stop-color="#FF928E"/>
</linearGradient>
<linearGradient id="paint14_linear_170_1339" x1="15424" y1="42474.1" x2="7816.6" y2="42474.1" gradientUnits="userSpaceOnUse">
<stop stop-color="#09005D"/>
<stop offset="1" stop-color="#1A0F91"/>
</linearGradient>
<linearGradient id="paint15_linear_170_1339" x1="15240.1" y1="6037.14" x2="16515.7" y2="8755.87" gradientUnits="userSpaceOnUse">
<stop stop-color="#09005D"/>
<stop offset="1" stop-color="#1A0F91"/>
</linearGradient>
<linearGradient id="paint16_linear_170_1339" x1="2641.81" y1="5938.52" x2="-3028.83" y2="22381" gradientUnits="userSpaceOnUse">
<stop stop-color="#E1473D"/>
<stop offset="1" stop-color="#E9605A"/>
</linearGradient>
<linearGradient id="paint17_linear_170_1339" x1="9753.28" y1="5855.24" x2="7984.61" y2="23264.6" gradientUnits="userSpaceOnUse">
<stop stop-color="#E1473D"/>
<stop offset="1" stop-color="#E9605A"/>
</linearGradient>
<linearGradient id="paint18_linear_170_1339" x1="19853.3" y1="6552.19" x2="18676.6" y2="25739.4" gradientUnits="userSpaceOnUse">
<stop stop-color="#E1473D"/>
<stop offset="1" stop-color="#E9605A"/>
</linearGradient>
</defs>
</svg>
